<svg width="21" height="27" viewBox="0 0 21 27" fill="none" xmlns="http://www.w3.org/2000/svg">
<path d="M10.5 0C16.299 0 21 4.622 21 10.3235V24.6176C21 25.9334 19.9152 27 18.5769 27H16.4191C15.7765 27 15.1602 26.749 14.7057 26.3022L13.2289 24.8502C13.0775 24.7013 12.872 24.6176 12.6578 24.6176H8.02584C7.78613 24.6176 7.55881 24.7223 7.40535 24.9034L6.35486 26.1428C5.89449 26.6859 5.21251 27 4.49339 27H2.42308C1.08485 27 0 25.9334 0 24.6176V10.3235C0 4.622 4.70101 0 10.5 0ZM7.26923 8.73529C5.03885 8.73529 3.23077 10.513 3.23077 12.7059C3.23077 14.8988 5.03885 16.6765 7.26923 16.6765H13.7308C15.9611 16.6765 17.7692 14.8988 17.7692 12.7059C17.7692 10.513 15.9611 8.73529 13.7308 8.73529H7.26923ZM7.26923 10.3235H13.7308C15.069 10.3235 16.1538 11.3901 16.1538 12.7059C16.1538 14.0216 15.069 15.0882 13.7308 15.0882H7.26923C5.931 15.0882 4.84615 14.0216 4.84615 12.7059C4.84615 11.3901 5.931 10.3235 7.26923 10.3235ZM7.26923 11.5147C6.60012 11.5147 6.05769 12.048 6.05769 12.7059C6.05769 13.3638 6.60012 13.8971 7.26923 13.8971C7.93834 13.8971 8.48077 13.3638 8.48077 12.7059C8.48077 12.048 7.93834 11.5147 7.26923 11.5147ZM13.7308 11.5147C13.0617 11.5147 12.5192 12.048 12.5192 12.7059C12.5192 13.3638 13.0617 13.8971 13.7308 13.8971C14.3999 13.8971 14.9423 13.3638 14.9423 12.7059C14.9423 12.048 14.3999 11.5147 13.7308 11.5147Z" fill="black"/>
</svg>
