<svg width="132" height="32" viewBox="0 0 132 32" fill="none" xmlns="http://www.w3.org/2000/svg">
<path d="M22.0811 16C22.0811 14.4423 20.8009 13.1622 19.2432 13.1622C17.9678 13.1622 16.8723 14.0231 16.5194 15.1892L14.7838 15.1892C14.6763 15.1877 14.5696 15.2075 14.4699 15.2476C14.3702 15.2877 14.2795 15.3471 14.203 15.4226C14.1265 15.498 14.0657 15.5879 14.0242 15.687C13.9828 15.7862 13.9614 15.8925 13.9614 16C13.9614 16.1075 13.9828 16.2138 14.0242 16.313C14.0657 16.4121 14.1265 16.502 14.203 16.5774C14.2795 16.6529 14.3702 16.7123 14.4699 16.7524C14.5696 16.7925 14.6763 16.8123 14.7838 16.8108L16.5194 16.8108C16.8723 17.9769 17.9678 18.8378 19.2432 18.8378C20.8009 18.8378 22.0811 17.5577 22.0811 16ZM20.4594 16C20.4594 16.6813 19.9245 17.2162 19.2432 17.2162C18.5619 17.2162 18.027 16.6813 18.027 16C18.027 15.3187 18.5619 14.7838 19.2432 14.7838C19.9245 14.7838 20.4594 15.3187 20.4594 16ZM18.4324 7.48649C18.4324 5.92879 17.1523 4.64865 15.5946 4.64865C14.0369 4.64865 12.7567 5.92879 12.7567 7.48649C12.7567 7.97327 12.8794 8.42742 13.0988 8.82939L12.1866 9.75422C12.1093 9.82939 12.0478 9.91922 12.0056 10.0184C11.9634 10.1177 11.9415 10.2243 11.941 10.3321C11.9406 10.44 11.9616 10.5468 12.0029 10.6464C12.0443 10.746 12.105 10.8363 12.1817 10.9121C12.2584 10.988 12.3494 11.0477 12.4494 11.088C12.5495 11.1282 12.6565 11.148 12.7643 11.1464C12.8721 11.1447 12.9785 11.1216 13.0773 11.0783C13.1761 11.0351 13.2652 10.9726 13.3395 10.8944L14.239 9.98226C14.641 10.2017 15.1078 10.3243 15.5946 10.3243C17.1523 10.3243 18.4324 9.04418 18.4324 7.48649ZM18.4324 24.5135C18.4324 22.9558 17.1523 21.6757 15.5946 21.6757C15.1078 21.6757 14.641 21.7983 14.239 22.0177L13.3395 21.1056C13.2652 21.0274 13.1761 20.9649 13.0773 20.9217C12.9785 20.8784 12.8721 20.8553 12.7643 20.8536C12.6565 20.852 12.5495 20.8718 12.4494 20.912C12.3494 20.9523 12.2584 21.012 12.1817 21.0879C12.105 21.1637 12.0443 21.254 12.0029 21.3536C11.9616 21.4532 11.9406 21.56 11.941 21.6679C11.9415 21.7757 11.9634 21.8823 12.0056 21.9816C12.0478 22.0808 12.1093 22.1706 12.1866 22.2458L13.0988 23.1579C12.8761 23.5622 12.7567 24.0229 12.7567 24.5135C12.7567 26.0712 14.0369 27.3514 15.5946 27.3514C17.1523 27.3514 18.4324 26.0712 18.4324 24.5135ZM16.8108 7.48649C16.8108 8.16778 16.2759 8.7027 15.5946 8.7027C14.9133 8.7027 14.3784 8.16778 14.3784 7.48649C14.3784 6.80519 14.9133 6.27027 15.5946 6.27027C16.2759 6.27027 16.8108 6.80519 16.8108 7.48649ZM16.8108 24.5135C16.8108 25.1948 16.2759 25.7297 15.5946 25.7297C14.9133 25.7297 14.3784 25.1948 14.3784 24.5135C14.3784 23.8322 14.9133 23.2973 15.5946 23.2973C16.2759 23.2973 16.8108 23.8322 16.8108 24.5135ZM12.3513 16C12.3513 12.875 9.80063 10.3243 6.67566 10.3243C3.55071 10.3243 0.999982 12.875 0.999981 16C0.999981 19.125 3.55071 21.6757 6.67565 21.6757C9.80063 21.6757 12.3513 19.125 12.3513 16ZM10.7297 16C10.7297 18.2486 8.92424 20.0541 6.67565 20.0541C4.42712 20.0541 2.6216 18.2486 2.6216 16C2.6216 13.7514 4.42712 11.9459 6.67566 11.9459C8.92424 11.9459 10.7297 13.7514 10.7297 16ZM9.51349 3.83784C9.51349 2.28014 8.23334 1 6.67566 1C5.11797 0.999999 3.83782 2.28014 3.83782 3.83784C3.83782 5.11704 4.69346 6.21207 5.86484 6.56166L5.86484 8.2973C5.86333 8.40474 5.88318 8.51141 5.92324 8.61111C5.96331 8.71081 6.02279 8.80156 6.09823 8.87807C6.17368 8.95459 6.26357 9.01534 6.3627 9.05681C6.46182 9.09828 6.5682 9.11964 6.67566 9.11964C6.78311 9.11964 6.88949 9.09828 6.98861 9.05681C7.08774 9.01534 7.17763 8.95459 7.25308 8.87807C7.32852 8.80156 7.388 8.71081 7.42806 8.61111C7.46813 8.51141 7.48798 8.40474 7.48647 8.2973L7.48647 6.54899C8.65114 6.19517 9.51349 5.11224 9.51349 3.83784ZM9.51349 28.1622C9.51349 26.8878 8.65114 25.8048 7.48646 25.451L7.48646 23.7027C7.48765 23.6774 7.48765 23.652 7.48646 23.6267C7.48149 23.5202 7.4556 23.4157 7.41025 23.3192C7.3649 23.2228 7.30099 23.1362 7.22216 23.0644C7.14334 22.9926 7.05115 22.9371 6.95086 22.9009C6.85056 22.8648 6.74413 22.8487 6.63764 22.8537C6.53115 22.8587 6.42668 22.8846 6.33021 22.93C6.23374 22.9754 6.14715 23.0393 6.07539 23.1181C6.00362 23.197 5.9481 23.2892 5.91197 23.3895C5.87584 23.4898 5.85983 23.5962 5.86484 23.7027L5.86484 25.4383C4.69345 25.7879 3.83782 26.883 3.83782 28.1622C3.83782 29.7199 5.11797 31 6.67565 31C8.23334 31 9.51349 29.7199 9.51349 28.1622ZM7.89187 3.83784C7.89187 4.51914 7.35695 5.05405 6.67566 5.05405C5.99436 5.05405 5.45944 4.51914 5.45944 3.83784C5.45944 3.15654 5.99436 2.62162 6.67566 2.62162C7.35695 2.62162 7.89187 3.15654 7.89187 3.83784ZM7.89187 28.1622C7.89187 28.8435 7.35695 29.3784 6.67565 29.3784C5.99436 29.3784 5.45944 28.8435 5.45944 28.1622C5.45944 27.4809 5.99435 26.9459 6.67565 26.9459C7.35695 26.9459 7.89187 27.4809 7.89187 28.1622Z" fill="black" stroke="black" stroke-width="0.3"/>
<path d="M36.9602 9.74217C36.4393 9.74217 36.0007 9.5594 35.6443 9.19386C35.2879 8.82833 35.1097 8.38512 35.1097 7.86423C35.1097 7.34334 35.2879 6.9047 35.6443 6.5483C36.0007 6.18277 36.4393 6 36.9602 6C37.4902 6 37.9334 6.18277 38.2898 6.5483C38.6554 6.9047 38.8381 7.34334 38.8381 7.86423C38.8381 8.38512 38.6554 8.82833 38.2898 9.19386C37.9334 9.5594 37.4902 9.74217 36.9602 9.74217ZM38.9341 26.7258H35V13.0183H38.9341V26.7258Z" fill="#3172B7"/>
<path d="M56.4387 26.7258H52.9844L52.7787 24.8616C52.1939 25.5196 51.4902 26.0405 50.6678 26.4243C49.8545 26.8081 48.9635 27 47.9948 27C46.7428 27 45.6234 26.6939 44.6364 26.0816C43.6586 25.4602 42.8864 24.6103 42.3198 23.532C41.7533 22.4537 41.47 21.2337 41.47 19.8721C41.47 18.5013 41.7533 17.2813 42.3198 16.2121C42.8864 15.1338 43.6586 14.2885 44.6364 13.6762C45.6234 13.0548 46.7428 12.7441 47.9948 12.7441C48.8904 12.7441 49.7219 12.9086 50.4896 13.2376C51.2663 13.5574 51.938 14.0052 52.5046 14.5809V6.16449H56.4387V26.7258ZM49.0092 23.4772C49.658 23.4772 50.2428 23.3309 50.7637 23.0385C51.2937 22.7461 51.7141 22.3486 52.0248 21.846C52.3447 21.3342 52.5046 20.7539 52.5046 20.1051V19.6116C52.5046 18.9628 52.3447 18.3871 52.0248 17.8845C51.7141 17.3819 51.2937 16.9889 50.7637 16.7056C50.2428 16.4132 49.658 16.267 49.0092 16.267C48.342 16.267 47.7435 16.4223 47.2135 16.733C46.6834 17.0437 46.2631 17.4732 45.9524 18.0215C45.6508 18.5607 45.5 19.1775 45.5 19.8721C45.5 20.5574 45.6508 21.1743 45.9524 21.7226C46.2631 22.2617 46.6834 22.6913 47.2135 23.0111C47.7435 23.3218 48.342 23.4772 49.0092 23.4772Z" fill="#3172B7"/>
<path d="M72.408 25.1906C70.7083 26.3969 68.8486 27 66.829 27C65.3303 27 63.9824 26.6802 62.7853 26.0405C61.5973 25.3916 60.656 24.5144 59.9615 23.4086C59.2761 22.3029 58.9334 21.0555 58.9334 19.6664C58.9334 18.3414 59.2441 17.158 59.8656 16.1162C60.4961 15.0744 61.3505 14.252 62.4289 13.6488C63.5072 13.0457 64.7318 12.7441 66.1025 12.7441C67.519 12.7441 68.7663 13.0777 69.8447 13.7448C70.923 14.4027 71.7637 15.3257 72.3669 16.5137C72.97 17.6926 73.2716 19.0587 73.2716 20.6123V21.0509H63.1691C63.3336 21.5901 63.6032 22.0653 63.9778 22.4765C64.3525 22.8786 64.8186 23.1984 65.376 23.436C65.9334 23.6736 66.5731 23.7924 67.2951 23.7924C68.6932 23.7924 69.9955 23.3401 71.2017 22.4354L72.408 25.1906ZM62.9909 19.0496H69.6391C69.566 18.4556 69.3786 17.9347 69.0771 17.4869C68.7846 17.03 68.3962 16.6736 67.9119 16.4178C67.4367 16.1619 66.9021 16.0339 66.3081 16.0339C65.705 16.0339 65.1658 16.1664 64.6906 16.4315C64.2246 16.6965 63.8453 17.0529 63.5529 17.5007C63.2605 17.9484 63.0731 18.4648 62.9909 19.0496Z" fill="#3172B7"/>
<path d="M87.9935 26.7258H84.5666L84.361 25.0946C83.8584 25.6978 83.237 26.1684 82.4968 26.5065C81.7566 26.8355 80.9433 27 80.0568 27C79.0973 27 78.2429 26.8172 77.4935 26.4517C76.7442 26.077 76.1547 25.5653 75.7252 24.9164C75.2957 24.2585 75.081 23.5137 75.081 22.6821C75.081 21.8048 75.314 21.0326 75.7801 20.3655C76.2461 19.6984 76.8858 19.1775 77.6991 18.8029C78.5216 18.4191 79.4537 18.2272 80.4955 18.2272C81.1077 18.2272 81.72 18.2957 82.3323 18.4328C82.9537 18.5698 83.5294 18.7617 84.0594 19.0085V18.6521C84.0594 18.1038 83.9041 17.6332 83.5934 17.2402C83.2918 16.8381 82.8715 16.5274 82.3323 16.3081C81.8023 16.0888 81.2083 15.9791 80.5503 15.9791C79.9198 15.9791 79.2938 16.0796 78.6724 16.2807C78.0601 16.4817 77.4935 16.7833 76.9726 17.1854L75.9034 14.1834C76.8264 13.7082 77.7585 13.3518 78.6998 13.1142C79.6502 12.8675 80.5686 12.7441 81.455 12.7441C82.7892 12.7441 83.9452 13.0091 84.923 13.5392C85.9008 14.0601 86.6547 14.8003 87.1848 15.7598C87.7239 16.7102 87.9935 17.8388 87.9935 19.1456V26.7258ZM80.9204 23.9706C81.4413 23.9706 81.9393 23.8564 82.4145 23.6279C82.8897 23.3995 83.2735 23.0888 83.566 22.6958C83.8675 22.3029 84.0275 21.8688 84.0457 21.3936V21.2976C83.6436 21.0235 83.1959 20.8133 82.7024 20.6671C82.2181 20.5117 81.7246 20.4341 81.222 20.4341C80.4726 20.4341 79.8604 20.5986 79.3852 20.9275C78.91 21.2565 78.6724 21.6815 78.6724 22.2023C78.6724 22.5405 78.7683 22.8466 78.9602 23.1208C79.1613 23.3858 79.4308 23.596 79.769 23.7513C80.1071 23.8975 80.4909 23.9706 80.9204 23.9706Z" fill="#3172B7"/>
<path d="M103.73 26.7258H90.2141V24.752L97.0542 16.5411H90.5843V13.0183H103.25V14.6906L96.1495 23.203H103.73V26.7258Z" fill="#3172B7"/>
<path d="M107.915 14.2485V6.25245H110.831C111.517 6.25245 112.11 6.36795 112.611 6.59895C113.116 6.82639 113.503 7.15157 113.774 7.57447C114.047 7.99382 114.184 8.49313 114.184 9.0724C114.184 9.65167 114.047 10.1545 113.774 10.581C113.503 11.0039 113.12 11.3309 112.622 11.5619C112.125 11.7928 111.536 11.9083 110.858 11.9083H110.026V14.2485H107.915ZM110.026 10.0692H110.623C111.078 10.0692 111.424 9.98396 111.663 9.81337C111.904 9.64279 112.025 9.3958 112.025 9.0724C112.025 8.75611 111.904 8.51445 111.663 8.34742C111.424 8.17684 111.078 8.09155 110.623 8.09155H110.026V10.0692Z" fill="#E16C37"/>
<path d="M122.169 14.2485H119.835L118.31 11.6045H117.361V14.2485H115.25V6.25245H118.47C119.163 6.25245 119.753 6.35729 120.24 6.56696C120.727 6.77664 121.098 7.08227 121.354 7.48385C121.613 7.88188 121.743 8.36342 121.743 8.92847C121.743 9.45799 121.629 9.91466 121.402 10.2985C121.174 10.6823 120.846 10.9844 120.416 11.2047L122.169 14.2485ZM117.361 9.97863H118.305C118.728 9.97863 119.046 9.90044 119.259 9.74407C119.476 9.58415 119.584 9.34782 119.584 9.03509C119.584 8.72235 119.476 8.4878 119.259 8.33143C119.046 8.17151 118.728 8.09155 118.305 8.09155H117.361V9.97863Z" fill="#E16C37"/>
<path d="M126.839 14.4085C126.228 14.4085 125.663 14.3054 125.144 14.0993C124.629 13.8896 124.179 13.5982 123.795 13.225C123.415 12.8483 123.12 12.4077 122.91 11.903C122.701 11.3984 122.596 10.8475 122.596 10.2505C122.596 9.65345 122.701 9.10261 122.91 8.59797C123.12 8.09333 123.415 7.65443 123.795 7.28128C124.179 6.90458 124.629 6.61316 125.144 6.40704C125.663 6.19737 126.23 6.09253 126.844 6.09253C127.456 6.09253 128.019 6.19737 128.534 6.40704C129.05 6.61316 129.496 6.90458 129.872 7.28128C130.253 7.65443 130.548 8.09333 130.757 8.59797C130.967 9.10261 131.072 9.65345 131.072 10.2505C131.072 10.8475 130.967 11.3984 130.757 11.903C130.548 12.4077 130.253 12.8483 129.872 13.225C129.496 13.5982 129.05 13.8896 128.534 14.0993C128.019 14.3054 127.454 14.4085 126.839 14.4085ZM126.839 12.5694C127.134 12.5694 127.408 12.5107 127.66 12.3934C127.912 12.2762 128.131 12.1127 128.316 11.903C128.504 11.6898 128.65 11.4428 128.753 11.162C128.859 10.8813 128.913 10.5774 128.913 10.2505C128.913 9.92354 128.859 9.61969 128.753 9.33894C128.65 9.05819 128.504 8.81297 128.316 8.6033C128.131 8.39007 127.912 8.22482 127.66 8.10754C127.408 7.99027 127.134 7.93163 126.839 7.93163C126.544 7.93163 126.269 7.99027 126.013 8.10754C125.761 8.22482 125.54 8.39007 125.352 8.6033C125.163 8.81297 125.016 9.05819 124.909 9.33894C124.806 9.61969 124.755 9.92354 124.755 10.2505C124.755 10.5774 124.806 10.8813 124.909 11.162C125.016 11.4428 125.163 11.6898 125.352 11.903C125.54 12.1127 125.761 12.2762 126.013 12.3934C126.269 12.5107 126.544 12.5694 126.839 12.5694Z" fill="#E16C37"/>
</svg>
