<svg width="455" height="268" viewBox="0 0 455 268" fill="none" xmlns="http://www.w3.org/2000/svg">
<path d="M27.9076 265.362C-1.3552 223.487 -10.5243 199.025 14.5869 154.492C26.9566 132.555 -2.46991 110.916 16.9228 94.3346C32.9572 80.6245 50.5932 99.1025 70.9345 57.008C103.376 -10.1283 144.516 51.4019 186.726 21.125C251.091 -25.0449 322.818 11.2915 369.1 66.7645C378.074 77.5225 394.882 76.519 408.108 80.9573C447.702 95.8763 444.812 122.638 436.943 160.898C433.496 177.655 443.666 183.129 448.449 191.66C463.159 218.924 447.556 244.942 431.95 268.001L27.9076 265.362Z" fill="#EBF3FA"/>
<path d="M269 190.858L271.359 196.239L242.828 210.503L269 190.858Z" fill="#CDD8FA"/>
<path d="M273.24 202.567L270.886 208.049L244.101 209.84L273.24 202.567Z" fill="#CDD8FA"/>
<path d="M242.829 210.503L288.9 201.479L274.399 194.055L242.829 210.503Z" fill="white"/>
<path d="M269.001 190.858L242.828 210.503L259.98 185.517L269.001 190.858Z" fill="white"/>
<path d="M290.591 190.624C290.144 190.624 289.749 190.301 289.671 189.845C289.585 189.336 289.926 188.855 290.436 188.769C292.215 188.467 293.955 188.273 295.607 188.19C296.121 188.165 296.559 188.562 296.586 189.077C296.61 189.592 296.215 190.03 295.701 190.056C294.122 190.135 292.455 190.321 290.748 190.611C290.695 190.619 290.642 190.624 290.591 190.624ZM305.718 191.238C305.62 191.238 305.522 191.222 305.424 191.19C303.952 190.704 302.34 190.363 300.641 190.18C300.127 190.123 299.756 189.663 299.813 189.15C299.868 188.638 300.329 188.267 300.843 188.322C302.673 188.52 304.411 188.888 306.01 189.416C306.501 189.578 306.767 190.106 306.605 190.596C306.475 190.989 306.11 191.238 305.718 191.238ZM280.745 193.209C280.357 193.209 279.996 192.968 279.862 192.582C279.692 192.095 279.949 191.562 280.437 191.392C282.101 190.813 283.764 190.304 285.373 189.874C285.873 189.743 286.385 190.04 286.518 190.538C286.65 191.037 286.352 191.548 285.855 191.68C284.288 192.096 282.673 192.594 281.051 193.157C280.949 193.193 280.845 193.209 280.745 193.209ZM314.089 196.808C313.824 196.808 313.563 196.695 313.377 196.479C312.325 195.239 311.113 194.164 309.779 193.282C309.349 192.997 309.231 192.418 309.516 191.987C309.8 191.556 310.379 191.439 310.809 191.724C312.29 192.703 313.632 193.896 314.801 195.268C315.136 195.661 315.089 196.25 314.695 196.585C314.52 196.735 314.304 196.808 314.089 196.808ZM271.36 197.173C271.017 197.173 270.687 196.982 270.524 196.655C270.293 196.193 270.483 195.632 270.944 195.402C272.476 194.64 274.05 193.915 275.625 193.249C276.1 193.046 276.649 193.269 276.849 193.745C277.049 194.219 276.829 194.768 276.353 194.968C274.813 195.62 273.273 196.329 271.776 197.075C271.643 197.141 271.501 197.173 271.36 197.173ZM318.626 205.833C318.206 205.833 317.824 205.549 317.718 205.124C317.326 203.543 316.759 202.002 316.033 200.544C315.803 200.083 315.99 199.523 316.451 199.291C316.912 199.061 317.473 199.249 317.704 199.71C318.491 201.29 319.107 202.961 319.534 204.675C319.656 205.175 319.352 205.682 318.85 205.805C318.775 205.824 318.699 205.833 318.626 205.833ZM318.946 215.944C318.893 215.944 318.84 215.939 318.785 215.931C318.275 215.842 317.936 215.357 318.024 214.85C318.265 213.454 318.389 212.043 318.389 210.658C318.389 210.426 318.387 210.195 318.379 209.965C318.365 209.45 318.769 209.019 319.287 209.005C319.801 208.989 320.231 209.395 320.247 209.91C320.254 210.159 320.258 210.409 320.258 210.658C320.258 212.15 320.125 213.668 319.864 215.17C319.786 215.624 319.393 215.944 318.946 215.944ZM315.425 225.448C315.266 225.448 315.103 225.407 314.956 225.321C314.51 225.062 314.359 224.491 314.618 224.045C315.456 222.602 316.168 221.103 316.733 219.59C316.912 219.107 317.451 218.863 317.934 219.041C318.418 219.222 318.663 219.76 318.483 220.243C317.881 221.855 317.125 223.45 316.233 224.982C316.06 225.282 315.748 225.448 315.425 225.448ZM309.061 233.357C308.812 233.357 308.564 233.258 308.378 233.061C308.027 232.684 308.048 232.093 308.425 231.741C309.649 230.596 310.789 229.375 311.807 228.113C312.131 227.713 312.721 227.651 313.12 227.975C313.522 228.3 313.586 228.888 313.261 229.289C312.186 230.617 310.987 231.901 309.7 233.106C309.52 233.274 309.29 233.357 309.061 233.357ZM300.833 239.321C300.506 239.321 300.188 239.15 300.019 238.844C299.766 238.395 299.925 237.826 300.376 237.573C301.847 236.749 303.26 235.848 304.58 234.895C304.998 234.594 305.583 234.687 305.885 235.106C306.187 235.524 306.091 236.109 305.673 236.41C304.296 237.405 302.822 238.344 301.29 239.204C301.145 239.284 300.988 239.321 300.833 239.321ZM291.499 243.368C291.107 243.368 290.74 243.116 290.611 242.722C290.452 242.231 290.722 241.703 291.211 241.545C292.821 241.022 294.397 240.43 295.897 239.783C296.37 239.577 296.918 239.796 297.124 240.27C297.328 240.744 297.11 241.293 296.637 241.498C295.083 242.169 293.453 242.781 291.788 243.321C291.693 243.353 291.595 243.368 291.499 243.368ZM281.62 245.844C281.194 245.844 280.808 245.55 280.708 245.118C280.594 244.615 280.91 244.114 281.412 243.999C282.764 243.691 284.143 243.382 285.514 243.083C285.804 243.019 286.093 242.953 286.381 242.886C286.883 242.77 287.387 243.081 287.503 243.583C287.621 244.087 287.307 244.589 286.805 244.706C286.509 244.775 286.212 244.842 285.914 244.907C284.547 245.205 283.174 245.512 281.828 245.819C281.759 245.837 281.687 245.844 281.62 245.844ZM271.711 248.23C271.295 248.23 270.913 247.948 270.807 247.526C270.679 247.026 270.981 246.518 271.482 246.39C273.106 245.978 274.775 245.565 276.441 245.165C276.943 245.044 277.445 245.352 277.567 245.854C277.687 246.355 277.379 246.86 276.878 246.981C275.219 247.379 273.557 247.791 271.941 248.201C271.864 248.22 271.786 248.23 271.711 248.23ZM261.869 250.876C261.461 250.876 261.088 250.608 260.969 250.196C260.829 249.7 261.116 249.183 261.612 249.042C263.213 248.587 264.869 248.128 266.538 247.68C267.036 247.546 267.548 247.843 267.682 248.341C267.817 248.838 267.521 249.352 267.021 249.486C265.363 249.93 263.717 250.387 262.124 250.839C262.038 250.864 261.952 250.876 261.869 250.876ZM252.115 253.837C251.721 253.837 251.354 253.585 251.227 253.191C251.068 252.7 251.335 252.172 251.827 252.013C253.394 251.504 255.034 250.989 256.708 250.483C257.2 250.333 257.722 250.612 257.871 251.105C258.022 251.599 257.742 252.121 257.249 252.269C255.588 252.773 253.959 253.285 252.404 253.79C252.308 253.82 252.21 253.837 252.115 253.837ZM242.507 257.235C242.132 257.235 241.781 257.008 241.636 256.639C241.449 256.159 241.687 255.617 242.169 255.43C243.67 254.846 245.287 254.248 246.976 253.652C247.464 253.481 247.996 253.736 248.168 254.223C248.339 254.71 248.086 255.243 247.599 255.415C245.928 256.003 244.329 256.594 242.846 257.171C242.736 257.215 242.619 257.235 242.507 257.235ZM233.23 261.438C232.9 261.438 232.584 261.264 232.412 260.957C232.161 260.508 232.325 259.937 232.773 259.687C234.087 258.957 235.651 258.187 237.42 257.4C237.891 257.19 238.442 257.401 238.652 257.873C238.864 258.344 238.65 258.897 238.179 259.107C236.461 259.872 234.948 260.617 233.681 261.32C233.54 261.4 233.383 261.438 233.23 261.438Z" fill="#CDD8FA"/>
<path d="M257.872 29.7258L245.48 52.6508C245.008 53.5249 243.918 53.8489 243.047 53.377L203.203 31.8412C202.332 31.3709 202.006 30.2808 202.478 29.4067L214.87 6.4817C215.342 5.60763 216.432 5.28361 217.304 5.75554L257.145 27.2914C258.019 27.7616 258.343 28.8517 257.872 29.7258Z" fill="#CDD8FA"/>
<path d="M257.873 29.7241L257.187 30.992L231.987 34.2191C229.511 34.5846 227.085 33.3001 225.996 31.0468L214.479 7.2062L214.87 6.48168C215.343 5.60928 216.433 5.28359 217.306 5.75552L257.145 27.2897C258.018 27.7616 258.343 28.8517 257.873 29.7241Z" fill="white"/>
<path d="M432.086 267.73H24.6613C23.3663 267.73 22.3168 266.444 22.3168 264.858C22.3168 263.272 23.3663 261.986 24.6613 261.986H432.086C433.38 261.986 434.429 263.272 434.429 264.858C434.429 266.444 433.38 267.73 432.086 267.73Z" fill="#95A6DB"/>
<path d="M249.795 120.32L250.318 116.859C250.318 116.859 247.892 116.481 248.021 114.777L250.57 114.747C250.57 114.747 251.943 113.49 250.369 109.665C250.003 106.065 252.376 107.87 252.701 106.731C253.177 105.05 256.187 108.419 256.28 111.979C256.401 116.586 253.949 120.312 253.949 120.312L249.795 120.32Z" fill="#F37A50"/>
<path d="M184.626 156.21L182.318 154.118C182.318 154.118 182.468 149.825 179.967 150.124C179.292 150.204 181.201 152.565 179.817 152.699C179.529 152.728 178.586 151.729 177.28 150.124C176.309 148.257 174.341 148.235 173.472 148.592C171.854 149.252 171.649 152.459 174.13 155.014C177.338 158.321 181.716 159.174 181.716 159.174L184.626 156.21Z" fill="#F37A50"/>
<path d="M210.314 255.826C206.896 260.634 198.503 257.684 198.78 264.186C211.545 264.103 216.85 264.186 216.85 264.186C216.833 262.693 216.581 259.147 216.287 257.761L210.314 255.826Z" fill="black"/>
<path d="M229.411 255.952C225.993 260.759 217.599 257.81 217.878 264.312C230.643 264.23 235.948 264.312 235.948 264.312C235.929 262.818 235.678 259.274 235.383 257.886L229.411 255.952Z" fill="black"/>
<path d="M204.405 182.428C204.405 182.428 202.333 213.242 203.174 220.092C204.017 226.944 206.998 235.726 206.661 258.386C210.822 259.448 216.85 258.386 216.85 258.386C216.85 258.386 217.743 232.764 213.345 221.32C215.133 210.204 220.873 184.743 220.873 184.743L204.405 182.428Z" fill="#0E6A41"/>
<path d="M210.592 183.27C210.592 183.27 214.776 217.864 216.825 224.426C218.873 230.987 222.389 236.062 226.097 258.385C230.374 258.603 236.401 258.857 236.401 258.857C236.401 258.857 234.258 230.543 227.598 224.103C227.372 212.831 228.675 183.492 228.675 183.492L210.592 183.27Z" fill="#3F964F"/>
<path d="M226.738 141.718C226.738 141.718 227.046 141.957 244.286 138.987C244.291 138.987 244.296 138.988 244.301 138.991L250.4 144.19C250.408 144.197 250.408 144.208 250.401 144.215C245.854 149.242 226.258 152.316 226.258 152.316L226.738 141.718Z" fill="#95A6DB"/>
<path d="M219.409 137.94L213.352 136.963L207.344 138.215L213.533 145.497L219.409 137.94Z" fill="#607EDB"/>
<path d="M217.186 141.48C214.79 143.351 212.254 144.151 209.617 142.255L209.253 132.932L217.157 132.837L217.186 141.48Z" fill="#F37A50"/>
<path d="M205.56 141.377L207.416 140.782L207.345 138.215L212.087 142.574L213.486 142.893L214.871 142.51L219.41 137.94L219.456 140.508L221.028 140.934L227.689 141.849V171.462L230.175 185.158C222.378 187.184 210.762 187.294 202.453 185.578L203.828 173.099L200.934 143.093L205.56 141.377Z" fill="#95A6DB"/>
<path d="M213.202 146.194C213.202 146.194 214.035 164.303 215.397 173.574C214.957 174.105 212.971 176.509 212.971 176.509C212.971 176.509 210.56 174.223 209.907 173.81C208.423 157.469 211.097 146.278 211.097 146.278L213.202 146.194Z" fill="#E62552"/>
<path d="M214.724 143.044L212.169 142.385L210.3 143.131L211.097 146.278L213.358 146.273L214.724 143.044Z" fill="#C4204A"/>
<path d="M212.169 142.385C212.169 142.385 214.227 145.108 216.101 146.189L220.91 141.09L219.431 137.938L212.169 142.385Z" fill="white"/>
<path d="M212.169 142.384C212.169 142.384 210.543 144.75 208.423 146.314L204.676 141.621L207.344 138.214L212.169 142.384Z" fill="white"/>
<path d="M254.584 119.786C251.842 119.153 250.407 118.888 248.341 119.084C244.841 134.104 241.882 139.92 243.732 143.96C245.274 147.329 249.078 146.686 250.701 143.898C252.846 140.22 253.787 126.928 254.584 119.786Z" fill="#95A6DB"/>
<path d="M201.183 143.061C197.097 143.213 192.31 162.359 192.31 162.359L184.336 153.85L179.817 160.129C179.817 160.129 191.549 174.599 196.051 173.248C200.254 171.988 202.4 156.884 202.4 156.884L201.183 143.061Z" fill="#95A6DB"/>
<path d="M177.351 115.333C176.295 116.063 174.799 116.478 174.555 117.718L171.32 116.676C171.378 112.57 175.141 108.915 175.566 108.604C176.67 107.796 177.139 107.349 177.325 107.45C177.51 107.55 178.423 108.416 176.853 109.642C174.883 111.182 177.32 112.027 180.652 107.806C181.486 106.75 183.835 106.047 183.577 107.28C183.292 108.639 182.158 112.013 177.351 115.333Z" fill="#F37A50"/>
<path d="M144.018 253.948C147.487 258.575 156.005 255.737 155.722 261.993C142.77 261.913 137.386 261.993 137.386 261.993C137.404 260.557 137.66 257.145 137.958 255.809L144.018 253.948Z" fill="black"/>
<path d="M124.638 254.071C128.107 258.696 136.625 255.858 136.343 262.116C123.39 262.036 118.006 262.116 118.006 262.116C118.023 260.678 118.28 257.268 118.578 255.932L124.638 254.071Z" fill="black"/>
<path d="M150.014 183.319C150.014 183.319 152.118 212.97 151.264 219.563C150.409 226.155 147.384 234.607 147.727 256.412C143.505 257.435 137.386 256.412 137.386 256.412C137.386 256.412 136.48 231.756 140.944 220.744C139.128 210.047 133.304 185.545 133.304 185.545L150.014 183.319Z" fill="#201D40"/>
<path d="M142.022 184.127C142.022 184.127 137.776 217.418 135.697 223.732C133.618 230.047 131.113 234.662 127.35 256.144C123.011 256.354 117.09 256.866 117.09 256.866C117.09 256.866 118.007 229.618 124.765 223.422C124.994 212.574 123.672 184.342 123.672 184.342L142.022 184.127Z" fill="#2C2858"/>
<path d="M146.966 139.417C146.966 139.417 147.614 139.134 163.977 135.178C163.981 135.177 163.987 135.178 163.99 135.181C163.99 135.181 170.19 139.798 170.184 139.805C166.142 144.924 148.303 150.4 148.303 150.4L146.968 139.419C146.968 139.418 146.966 139.417 146.966 139.417Z" fill="#201D40"/>
<path d="M139.455 139.217L133.576 138.669L127.888 140.255L134.297 146.85L139.455 139.217Z" fill="#95A6DB"/>
<path d="M137.417 142.245C135.021 144.212 132.328 144.575 129.442 142.942L128.678 135.117L136.964 134.462L137.417 142.245Z" fill="#F37A50"/>
<path d="M126.379 143.405L128.121 142.716L127.888 140.255L132.721 144.137L134.085 144.353L135.39 143.896L139.455 139.217L139.663 141.68L141.201 141.989L146.745 142.887L147.406 173.659L149.592 184.127C142.236 186.575 134.009 187.186 125.921 186.071L126.193 175.56L120.448 145.487L126.379 143.405Z" fill="#95A6DB"/>
<path d="M135.149 147.463L138.622 170.957L136.698 173.629L134.191 171.703L133.339 147.658L135.149 147.463Z" fill="#2C2858"/>
<path d="M135.355 144.688L134.085 144.353L132.793 144.918L133.34 147.704L135.16 147.54L135.355 144.688Z" fill="#2C2858"/>
<path d="M139.455 139.217L140.407 167.795L144.164 186.071C144.164 186.071 151.375 186.486 155.025 183.013L150.468 168.198L146.968 139.419L139.455 139.217Z" fill="#2C2858"/>
<path d="M139.455 139.217L140.403 167.415L144.727 145.957L139.455 139.217Z" fill="#494C7F"/>
<path d="M127.444 141.229L135.076 187.241C135.076 187.241 123.07 188.387 118.818 186.224L121.569 172.34L120.121 144.926L127.444 141.229Z" fill="#2C2858"/>
<path d="M127.444 141.229L131.952 168.198L123.879 147.851L127.444 141.229Z" fill="#494C7F"/>
<path d="M126.543 212.593H102.102C101.656 212.593 101.294 212.231 101.294 211.786V197.719C101.294 197.274 101.656 196.913 102.102 196.913H126.543C126.989 196.913 127.35 197.274 127.35 197.719V211.786C127.35 212.231 126.989 212.593 126.543 212.593Z" fill="#95A6DB"/>
<path d="M126.274 199.256C126.274 200.022 125.653 200.643 124.888 200.643C124.122 200.643 123.501 200.022 123.501 199.256C123.501 198.49 124.122 197.87 124.888 197.87C125.653 197.87 126.274 198.49 126.274 199.256Z" fill="#494C7F"/>
<path d="M124.472 201.814C124.705 201.51 125.14 201.454 125.444 201.686C125.748 201.919 125.806 202.354 125.572 202.658C125.339 202.962 124.904 203.021 124.6 202.786C124.296 202.554 124.239 202.118 124.472 201.814Z" fill="#494C7F"/>
<path d="M176.111 117.097C173.543 116.24 172.192 115.855 170.194 115.855C165.472 129.925 162.108 135.226 163.511 139.265C164.681 142.633 168.384 142.364 170.194 139.84C172.583 136.512 174.697 123.865 176.111 117.097Z" fill="#201D40"/>
<path d="M112.698 191.959L112.62 195.328C112.62 195.328 115.023 195.256 115.107 196.898L112.851 196.968C112.851 196.968 111.477 198.741 113.446 202.203C114.231 205.593 111.746 204.158 111.575 205.284C111.324 206.947 108.042 204.097 107.52 200.71C106.846 196.327 107.741 195.801 107.741 195.801L108.733 192.473L112.698 191.959Z" fill="#F37A50"/>
<path d="M120.204 144.926C116.291 145.335 105.031 168.198 105.031 168.198L107.269 193.832L113.608 192.809L115.486 171.141L121.693 158.877L120.204 144.926Z" fill="#201D40"/>
<path d="M124.727 129.665C127.029 135.417 132.557 138.613 137.075 136.806C141.591 134.998 143.388 128.87 141.086 123.117C138.785 117.367 133.256 114.169 128.739 115.978C124.222 117.785 122.425 123.913 124.727 129.665Z" fill="#F37A50"/>
<path d="M139.122 125.006C139.389 125.39 139.917 125.485 140.299 125.217C140.683 124.951 140.778 124.424 140.512 124.04C140.244 123.656 139.717 123.561 139.333 123.827C138.949 124.095 138.855 124.622 139.122 125.006Z" fill="black"/>
<path d="M132.784 127.593C133.073 128.008 133.644 128.111 134.059 127.821C134.473 127.533 134.577 126.962 134.287 126.547C133.999 126.131 133.429 126.029 133.013 126.317C132.597 126.607 132.495 127.177 132.784 127.593Z" fill="black"/>
<path d="M137.683 126.154C138.827 127.056 140.257 128.143 140.257 128.143C140.257 128.143 140.272 129.523 138.661 130.121C139.244 129.592 139.755 128.888 139.148 128.075C138.542 127.263 137.683 126.154 137.683 126.154Z" fill="#DE623C"/>
<path d="M131.116 127.042C131.307 127.042 131.48 126.911 131.527 126.717C131.538 126.672 131.821 125.572 132.765 125.568C132.998 125.566 133.186 125.377 133.185 125.143C133.184 124.91 132.992 124.722 132.76 124.724C131.473 124.73 130.853 125.902 130.705 126.521C130.651 126.748 130.791 126.976 131.018 127.03C131.051 127.039 131.084 127.042 131.116 127.042Z" fill="#2C2858"/>
<path d="M138.236 123.216C138.355 123.216 138.473 123.154 138.539 123.043C138.545 123.033 138.773 122.669 139.15 122.602C139.416 122.556 139.716 122.663 140.043 122.925C140.195 123.048 140.417 123.023 140.538 122.87C140.659 122.719 140.635 122.498 140.483 122.375C139.988 121.98 139.493 121.822 139.016 121.911C138.318 122.041 137.948 122.661 137.932 122.687C137.835 122.854 137.89 123.069 138.059 123.168C138.114 123.2 138.175 123.216 138.236 123.216Z" fill="#2C2858"/>
<path d="M126.081 129.262C126.08 127.012 128.039 127.49 128.246 124.523C128.453 121.556 128.734 119.307 131.549 119.794C134.363 120.282 135.268 119.908 136.173 118.95C137.078 117.993 140.615 122.065 140.615 122.065C140.615 122.065 143.659 117.702 140.663 115.317C137.341 112.673 136.695 114.821 133.672 112.969C130.649 111.115 126.302 112.371 125.42 114.216C124.491 116.162 124.326 117.553 121.693 118.92C119.06 120.284 117.746 122.554 120.204 125.37C122.662 128.184 118.616 130.229 122.741 132.824C124.342 133.829 126.589 134.081 127.029 133.505C127.619 132.733 126.082 130.711 126.081 129.262Z" fill="#2C2858"/>
<path d="M141.855 125.816C141.855 125.816 142.121 129.15 141.639 130.18C141.139 128.843 140.065 130.26 139.057 130.394C136.62 130.715 132.222 129.903 131.786 133.56C128.808 134.503 126.018 128.125 126.018 128.125C125.645 135.571 131.059 139.294 138.561 138.11C143.502 137.328 143.96 130.448 141.855 125.816Z" fill="#2C2858"/>
<path d="M140.472 132.303C140.598 132.099 140.422 131.848 140.189 131.897C139.597 132.022 138.617 132.207 137.675 132.291C136.73 132.376 135.734 132.367 135.13 132.348C134.893 132.341 134.763 132.62 134.922 132.798C135.408 133.345 136.382 134.152 137.829 134.023C139.275 133.895 140.091 132.927 140.472 132.303Z" fill="white"/>
<path d="M126.204 128.494C127.564 129.141 128.237 130.568 127.707 131.682C127.177 132.795 125.645 133.173 124.285 132.524C122.924 131.876 122.251 130.449 122.782 129.336C123.312 128.223 124.844 127.846 126.204 128.494Z" fill="#F37A50"/>
<path d="M126.221 131.721C126.26 131.689 126.292 131.648 126.314 131.6C126.629 130.909 126.524 130.234 126.034 129.793C125.531 129.342 124.763 129.255 124.207 129.584C124.051 129.677 123.999 129.879 124.092 130.035C124.185 130.192 124.387 130.243 124.543 130.151C124.848 129.969 125.309 130.027 125.594 130.283C125.867 130.528 125.91 130.899 125.715 131.327C125.639 131.493 125.712 131.688 125.878 131.763C125.995 131.817 126.127 131.797 126.221 131.721Z" fill="#DE623C"/>
<path d="M134.085 144.353C134.085 144.353 132.839 146.496 130.446 147.831L127.029 142.123L127.888 140.254L134.085 144.353Z" fill="white"/>
<path d="M134.085 144.353C134.085 144.353 136.273 146.563 138.286 147.128L140.686 140.791L139.456 139.217L134.085 144.353Z" fill="white"/>
<path d="M438.672 141.415C437.346 140.471 435.607 139.771 435.607 139.771C433.796 142.592 432.751 152.796 431.066 156.087C423.532 146.1 416.935 143.345 414.324 142.91C414.324 142.91 409.805 141.732 408.543 145.988C407.412 149.787 411.817 152.479 411.817 152.479C411.817 152.479 430.654 165.779 433.44 164.596C437.775 162.757 441.909 152.817 438.672 141.415Z" fill="#F37A50"/>
<path d="M442.788 142.672C441.251 142.765 439.35 142.005 438.756 143.383L435.723 141.905L435.433 140.034C438.04 135.857 444.5 134.713 445.128 134.658C446.766 134.513 447.526 134.345 447.652 134.564C447.778 134.783 448.18 136.238 445.808 136.523C442.831 136.879 444.807 139.26 450.847 136.994C452.358 136.427 455.203 137.163 454.173 138.269C453.04 139.485 449.78 142.245 442.788 142.672Z" fill="#F37A50"/>
<path d="M439.545 142.657C438.219 141.714 435.606 139.771 435.606 139.771C432.828 143.595 431.787 151.381 431.064 156.088C423.533 146.101 416.934 143.345 414.324 142.91C414.324 142.91 409.804 141.733 408.54 145.989C407.409 149.788 411.789 154.193 411.789 154.193C411.789 154.193 430.771 167.978 433.557 166.795C437.892 164.956 442.78 154.058 439.545 142.657Z" fill="#0E6A41"/>
<path d="M364.04 139.397C365.365 138.453 367.105 137.753 367.105 137.753C368.915 140.574 369.96 150.777 371.648 154.07C379.178 144.082 385.776 141.327 388.386 140.891C388.386 140.891 392.907 139.714 394.169 143.97C395.299 147.769 390.894 150.461 390.894 150.461C390.894 150.461 372.058 163.761 369.273 162.578C364.937 160.739 360.802 150.799 364.04 139.397Z" fill="#F37A50"/>
<path d="M359.923 140.653C361.46 140.746 363.36 139.987 363.953 141.365L366.987 139.887L367.276 138.015C364.67 133.838 358.207 132.694 357.579 132.639C355.947 132.495 355.185 132.326 355.057 132.546C354.931 132.764 354.531 134.219 356.901 134.504C359.879 134.861 357.902 137.241 351.865 134.976C350.352 134.408 347.507 135.145 348.536 136.25C349.67 137.467 352.927 140.227 359.923 140.653Z" fill="#F37A50"/>
<path d="M362.757 140.551C364.085 139.607 367.105 137.753 367.105 137.753C368.915 140.575 370.648 149.882 372.335 153.175C379.868 143.188 385.776 141.327 388.386 140.892C388.386 140.892 392.907 139.715 394.169 143.971C395.299 147.77 391.151 152.175 391.151 152.175C391.151 152.175 373.86 167.919 369.858 166.34C364.05 164.048 359.522 151.953 362.757 140.551Z" fill="#0E6A41"/>
<path d="M77.1356 142.996C82.7703 144.401 92.4012 157.568 93.3029 167.44C90.2112 168.08 86.6787 165.615 86.6787 165.615L79.0236 154.605L77.1356 142.996Z" fill="#DE623C"/>
<path d="M71.7588 114.517C69.1715 110.26 62.4035 108.131 59.9636 112.883C57.5239 117.634 56.861 121.079 50.8253 118.454C46.0187 116.364 39.569 119.332 37.4973 126.374C34.847 135.382 42.1215 133.713 39.365 137.738C36.6083 141.762 34.3478 146.001 40.7443 148.043C47.1408 150.085 53.7298 146.165 55.1315 138.619C56.5334 131.074 60.4302 135.142 62.8608 131.922C66.3169 127.343 71.7588 114.517 71.7588 114.517Z" fill="#201D40"/>
<path d="M82.5841 255.94L85.6022 244.055L78.1143 243.024C77.8574 248.645 77.437 254.18 77.4737 255.68L82.5841 255.94Z" fill="#F37A50"/>
<path d="M64.7169 242.956H56.8987C57.1556 244.83 58.181 254.974 58.181 254.974C58.8417 256.473 64.668 256.131 64.668 255.288C64.2275 253.461 64.6802 243.19 64.7169 242.956Z" fill="#F37A50"/>
<path d="M77.5009 247.602L85.2111 248.74L90.5574 216.767C89.4563 204.636 78.7749 178.822 78.7749 178.822L66.7356 183.039L66.442 194.422L80.9405 218.97C79.0508 223.718 77.7579 239.067 77.5009 247.602Z" fill="#C4204A"/>
<path d="M71.5414 179.676C71.4313 178.927 71.3946 178.693 70.7706 178.319L59.2084 175.039L56.4555 177.756C53.8495 187.219 55.4644 200.384 57.5199 210.831C54.5102 219.872 55.6876 238.511 56.8987 247.271H65.1208C65.5979 241.415 65.4483 230.553 65.4851 225.307C66.5495 221.09 67.5771 216.593 68.4948 211.861C69.6694 205.818 71.1375 199.962 71.5414 194.481C71.9084 189.281 72.0185 183.705 71.5414 179.676Z" fill="#E62552"/>
<path d="M62.224 126.129C60.7651 132.243 63.4743 138.127 68.2754 139.272C73.0765 140.419 78.1512 136.391 79.6103 130.279C81.0692 124.166 78.36 118.282 73.5589 117.136C68.7579 115.989 63.6831 120.017 62.224 126.129Z" fill="#F37A50"/>
<path d="M56.957 141.553C54.2389 143.336 42.7823 158.243 49.0958 170.519C49.3876 170.68 54.4446 162.112 54.4446 162.112L60.4132 150.296L56.957 141.553Z" fill="#F37A50"/>
<path d="M62.7092 133.799L69.8872 137.876C69.8872 137.876 70.5241 140.781 70.8421 141.724C71.4982 143.671 68.9844 144.521 66.8595 143.31C64.7346 142.098 63.3586 140.477 63.3586 140.477L62.7092 133.799Z" fill="#F37A50"/>
<path d="M80.3104 128.36C78.6786 127.822 77.9223 125.319 77.2373 123.394C73.817 130.27 61.2046 129.29 60.6709 127.935C59.5644 119.922 63.0699 114.094 71.6879 114.355C83.5055 114.715 80.3104 128.36 80.3104 128.36Z" fill="#2C2858"/>
<path d="M77.0091 131.351C77.1642 131.799 77.653 132.037 78.1012 131.881C78.549 131.727 78.7863 131.236 78.6311 130.79C78.476 130.342 77.987 130.104 77.539 130.259C77.091 130.414 76.8537 130.903 77.0091 131.351Z" fill="black"/>
<path d="M70.8098 129.592C70.9779 130.078 71.5072 130.334 71.9922 130.167C72.477 129.998 72.7339 129.47 72.566 128.984C72.3978 128.5 71.8686 128.244 71.3837 128.411C70.8989 128.578 70.6419 129.108 70.8098 129.592Z" fill="black"/>
<path d="M79.3477 129.658C79.3816 129.652 79.4153 129.639 79.447 129.622C79.6014 129.531 79.6543 129.335 79.5651 129.179C78.872 127.98 77.5936 128.049 77.5395 128.052C77.3618 128.063 77.2265 128.217 77.238 128.395C77.2493 128.572 77.4023 128.708 77.5796 128.696C77.6217 128.695 78.5181 128.66 79.0054 129.504C79.0764 129.626 79.2159 129.684 79.3477 129.658Z" fill="#2C2858"/>
<path d="M75.2896 131.883C75.435 132.542 75.5236 133.185 75.7567 133.662C75.8353 133.824 75.7705 134.02 75.6135 134.106C74.9656 134.462 73.7847 134.356 73.0865 134.249C72.9845 134.233 72.9836 134.086 73.0855 134.07C73.9465 133.926 74.4092 133.713 74.6326 133.578C74.7434 133.509 74.8137 133.393 74.8248 133.263C74.8504 132.967 74.9078 132.366 74.9901 131.889C75.0184 131.724 75.2537 131.72 75.2896 131.883Z" fill="#DE623C"/>
<path d="M63.93 129.089C64.6954 130.353 64.4773 131.887 63.4427 132.512C62.4082 133.14 60.9491 132.622 60.1836 131.357C59.4181 130.094 59.6362 128.561 60.6709 127.935C61.7052 127.308 63.1645 127.826 63.93 129.089Z" fill="#F37A50"/>
<path d="M62.6756 131.439C62.7215 131.423 62.7645 131.396 62.8008 131.359C63.3214 130.825 63.449 130.167 63.1421 129.597C62.828 129.013 62.148 128.677 61.5254 128.798C61.3503 128.831 61.2355 129.001 61.2694 129.176C61.3031 129.351 61.4726 129.466 61.6478 129.432C61.9889 129.367 62.3954 129.573 62.5732 129.904C62.744 130.221 62.6605 130.577 62.3384 130.908C62.2137 131.036 62.2161 131.239 62.3439 131.364C62.4345 131.453 62.5636 131.476 62.6756 131.439Z" fill="#DE623C"/>
<path d="M80.5617 180.711C80.5617 180.711 77.5998 184.218 77.0996 184.48L74.4469 181.584L74.428 181.634L73.7989 183.291L73.0632 185.226C72.4478 185.226 53.9504 181.084 53.9504 181.084C53.9884 179.416 55.556 174.014 58.0936 168.264C57.478 163.394 58.0694 158.332 57.8768 155.524C59.3706 147.993 58.305 145.101 56.9571 141.553L61.6502 140.168L70.0978 143.147L70.7252 141.11C70.7252 141.11 76.0218 142.381 77.1356 142.996L79.1367 151.346L78.7034 169.09C78.7034 169.09 79.3686 176.234 80.5617 180.711Z" fill="#3F964F"/>
<path d="M63.2816 139.227L59.9722 140.634C60.3214 144.608 69.2142 146.982 69.2142 146.982L70.0974 143.147L63.2816 139.227Z" fill="#0E6A41"/>
<path d="M70.0974 143.147L72.716 146.056C72.716 146.056 74.98 143.715 74.1605 142.267C73.3412 140.819 70.34 139.843 70.34 139.843L70.0974 143.147Z" fill="#0E6A41"/>
<path d="M72.1282 137.397C71.9215 137.371 71.7187 137.324 71.5199 137.259C70.0534 136.774 69.3741 135.405 69.346 135.347C69.2587 135.166 69.3338 134.951 69.5132 134.864C69.6926 134.776 69.9083 134.851 69.9956 135.03C70.0015 135.041 70.5784 136.191 71.7533 136.575C72.5185 136.825 73.3838 136.703 74.3247 136.211C74.5016 136.118 74.72 136.188 74.8124 136.364C74.9048 136.541 74.8363 136.76 74.6594 136.851C73.7685 137.317 72.9198 137.5 72.1282 137.397Z" fill="#DE623C"/>
<path d="M80.7626 255.75C81.5458 253.694 83.2196 253.464 83.2196 253.464C86.4735 257.804 94.4642 255.142 94.1998 261.011C82.0482 260.937 76.998 261.011 76.998 261.011C77.0142 259.664 77.2544 256.463 77.5347 255.21L78.1679 255.324L80.7626 255.75Z" fill="#2C2858"/>
<path d="M93.5983 262.578H77.6059C77.2704 262.578 76.998 262.306 76.998 261.971V260.85H94.2062V261.971C94.2062 262.306 93.9342 262.578 93.5983 262.578Z" fill="white"/>
<path d="M74.428 181.633L73.7988 183.291C73.2282 179.477 71.1017 163.521 72.3015 159.116C73.4275 154.978 72.0196 150.614 70.6565 146.396C70.3246 145.364 69.979 144.298 69.6833 143.265L70.0977 143.147L70.5104 143.028C70.8024 144.048 71.1446 145.107 71.4748 146.131C72.8756 150.47 74.3232 154.957 73.1301 159.343C72.0952 163.145 73.6818 176.244 74.428 181.633Z" fill="#0E6A41"/>
<path d="M66.0606 261.069C66.0606 261.069 65.085 257.429 64.9992 256.962C64.9014 256.431 64.6146 255.174 64.5562 254.529C64.5417 254.371 62.8668 253.346 61.5879 253.348C59.8556 253.351 58.2767 254.355 58.2449 254.544C58.0403 255.759 58.0342 257.186 57.7029 258.369C57.4566 259.249 56.7871 261.299 56.7871 261.299L66.0606 261.069Z" fill="#2C2858"/>
<path d="M66.0604 260.786C65.833 261.509 63.0281 260.675 60.9814 260.675C59.263 260.677 57.0396 261.341 56.7869 261.082C56.3572 261.842 56.7111 263.415 56.7111 263.415C56.7111 263.415 58.5018 263.506 60.6497 263.415C62.7975 263.322 65.2796 263.458 66.2146 263.181C66.8046 262.194 66.0604 260.786 66.0604 260.786Z" fill="white"/>
<path d="M69.6504 158.257C69.6504 158.257 54.8475 173.097 49.0957 170.518C47.1994 167.955 51.2261 162.81 54.9971 161.087C58.7532 159.37 65.0579 156.665 65.0579 156.665L69.6504 158.257Z" fill="#F37A50"/>
<path d="M72.4544 153.217L78.6052 148.471C78.739 148.368 78.9092 148.327 79.0754 148.355L83.2647 149.114C83.3843 149.135 83.6294 149.865 83.5328 149.939L79.3503 152.452C79.3304 152.468 79.3067 152.477 79.2818 152.48L72.7061 153.607C72.5667 153.623 72.3428 153.302 72.4544 153.217Z" fill="#F9CD2D"/>
<path d="M72.7709 153.671L78.6203 149.206C78.7542 149.104 78.9244 149.062 79.0903 149.089L83.4189 149.821C83.5387 149.841 83.5762 149.996 83.4796 150.068L79.3654 153.188C79.3455 153.203 79.3218 153.213 79.2967 153.216L72.8698 153.918C72.7305 153.934 72.6593 153.757 72.7709 153.671Z" fill="#F9F93A"/>
<path d="M64.8975 156.746L68.3537 155.014C68.3537 155.014 70.5448 152.629 71.2307 151.916C72.106 151.662 73.8092 150.927 74.1567 150.952C74.504 150.976 75.0906 151.183 75.0906 151.183L73.0904 152.747C73.0904 152.747 73.9057 153.124 75.0495 152.667C76.1932 152.209 78.3254 150.806 79.1463 151.31C79.4078 151.646 79.4078 151.646 79.4078 151.646C79.4078 151.646 80.1292 151.089 80.5628 151.476C81.9037 152.672 73.2538 157.825 73.2538 157.825L69.6505 158.257L64.8975 156.746Z" fill="#F37A50"/>
<path d="M79.257 150.164C79.0134 150.332 78.7116 150.314 78.5827 150.125C78.4538 149.937 78.5468 149.649 78.7903 149.482C79.0339 149.316 79.3358 149.334 79.4647 149.521C79.5935 149.71 79.5007 149.999 79.257 150.164Z" fill="#F9CD2D"/>
<path d="M93.3029 167.44C93.3029 167.44 85.6294 176.215 80.288 177.455C79.9703 175.695 79.6781 174.35 79.6781 174.35L86.9597 164.763L93.3029 167.44Z" fill="#DE623C"/>
<path d="M79.3173 177.936C79.3424 177.86 79.3819 177.795 79.4275 177.732C79.4145 177.728 79.4017 177.725 79.3888 177.721C78.6307 177.469 78.1628 176.824 78.3437 176.282C78.3733 176.192 78.42 176.111 78.4782 176.04C78.0765 175.729 77.8738 175.289 78.0029 174.901C78.0541 174.747 78.1532 174.619 78.2843 174.518C77.8629 174.233 77.6466 173.757 77.7913 173.322C77.972 172.778 78.6432 172.512 79.2901 172.727C79.9373 172.941 80.3152 173.556 80.1345 174.101C80.0888 174.237 80.0112 174.358 79.911 174.456C80.5435 174.748 80.9114 175.321 80.7479 175.813C80.7182 175.902 80.6717 175.982 80.6133 176.055C81.0152 176.366 81.2179 176.804 81.0888 177.193C81.0412 177.337 80.9525 177.457 80.8352 177.555C81.2208 177.791 81.4235 178.211 81.2961 178.594C81.1435 179.052 80.5766 179.278 80.0303 179.096C79.4838 178.915 79.1646 178.396 79.3173 177.936Z" fill="#DE623C"/>
<path d="M401.22 133.364H401.215L397.296 133.379L396.408 142.636L400.984 145.052L405.863 142.663L405.075 133.379L401.22 133.364Z" fill="#F37A50"/>
<path d="M412.887 128.127C410.205 134.832 403.759 138.561 398.492 136.453C393.224 134.344 391.13 127.2 393.815 120.494C396.5 113.788 402.943 110.06 408.21 112.168C413.478 114.276 415.572 121.42 412.887 128.127Z" fill="#F37A50"/>
<path d="M396.105 122.694C395.795 123.142 395.18 123.252 394.732 122.941C394.285 122.63 394.175 122.015 394.486 121.568C394.797 121.121 395.411 121.01 395.86 121.321C396.306 121.632 396.416 122.247 396.105 122.694Z" fill="black"/>
<path d="M403.496 125.711C403.159 126.195 402.492 126.314 402.008 125.978C401.525 125.641 401.405 124.975 401.742 124.491C402.079 124.007 402.745 123.887 403.228 124.224C403.713 124.561 403.833 125.226 403.496 125.711Z" fill="black"/>
<path d="M397.605 124.268C396.269 125.32 394.602 126.589 394.602 126.589C394.602 126.589 394.585 128.197 396.466 128.894C395.784 128.277 395.188 127.457 395.897 126.509C396.604 125.562 397.605 124.268 397.605 124.268Z" fill="#DE623C"/>
<path d="M405.437 125.068C405.476 125.068 405.517 125.064 405.553 125.055C405.817 124.992 405.981 124.726 405.92 124.462C405.745 123.74 405.024 122.372 403.523 122.365C403.249 122.368 403.028 122.583 403.028 122.855C403.026 123.127 403.246 123.348 403.518 123.35C404.629 123.355 404.957 124.677 404.96 124.69C405.014 124.916 405.217 125.068 405.437 125.068Z" fill="#201D40"/>
<path d="M397.139 120.607C397.21 120.607 397.28 120.589 397.345 120.551C397.541 120.436 397.607 120.185 397.491 119.99C397.474 119.959 397.044 119.237 396.229 119.086C395.671 118.983 395.098 119.165 394.519 119.628C394.341 119.769 394.313 120.028 394.456 120.205C394.597 120.382 394.854 120.41 395.032 120.268C395.417 119.962 395.769 119.836 396.078 119.893C396.521 119.975 396.782 120.4 396.785 120.405C396.86 120.535 396.998 120.607 397.139 120.607Z" fill="#201D40"/>
<path d="M418.823 125.467C420.501 118.827 414.899 113.636 414.899 113.636C414.899 113.636 415.624 113.563 416.402 113.232C417.445 112.785 417.102 111.222 415.966 111.237C414.591 111.254 412.953 111.003 411.748 110.099C404.158 104.407 397.988 107.46 397.988 110.613C397.988 111.736 391.043 112.478 393.571 121.145C393.419 120.632 396.313 115.437 397.956 115.128C399.605 114.817 398.115 117.015 401.551 117.486C405.015 117.962 407.564 117.121 409.682 119.075C413.611 123.118 409.762 132.842 409.51 133.364C410.086 132.166 416.956 132.842 418.823 125.467Z" fill="#201D40"/>
<path d="M410.195 126.7C408.714 127.532 408.065 129.189 408.746 130.401C409.427 131.612 411.177 131.921 412.66 131.088C414.14 130.257 414.79 128.6 414.108 127.389C413.427 126.177 411.675 125.869 410.195 126.7Z" fill="#F37A50"/>
<path d="M410.421 130.331C410.374 130.298 410.335 130.256 410.306 130.203C409.9 129.449 409.967 128.681 410.484 128.148C411.016 127.602 411.873 127.446 412.525 127.775C412.708 127.868 412.781 128.091 412.687 128.274C412.596 128.457 412.371 128.53 412.189 128.437C411.832 128.257 411.318 128.358 411.018 128.667C410.729 128.963 410.708 129.383 410.961 129.85C411.057 130.031 410.992 130.256 410.81 130.353C410.682 130.422 410.531 130.409 410.421 130.331Z" fill="#DE623C"/>
<path d="M398.864 132.332C399.434 132.195 400.027 131.964 400.64 131.635C400.8 131.549 400.861 131.352 400.775 131.192C400.691 131.031 400.491 130.97 400.331 131.056C398.97 131.784 397.749 131.992 396.702 131.673C395.41 131.277 394.819 130.188 394.811 130.177C394.728 130.018 394.528 129.956 394.368 130.04C394.208 130.124 394.147 130.322 394.231 130.482C394.259 130.536 394.943 131.816 396.499 132.297C397.229 132.521 398.02 132.533 398.864 132.332Z" fill="#DE623C"/>
<path d="M394.068 254.483C390.602 259.264 382.09 256.329 382.372 262.798C395.317 262.713 400.695 262.798 400.695 262.798C400.677 261.312 400.421 257.785 400.122 256.406L394.068 254.483Z" fill="black"/>
<path d="M414.48 254.482C411.014 259.264 402.501 256.329 402.783 262.798C415.727 262.713 421.105 262.798 421.105 262.798C421.089 261.312 420.834 257.785 420.534 256.406L414.48 254.482Z" fill="black"/>
<path d="M388.177 181.377C388.177 181.377 384.423 213.13 385.275 219.944C386.13 226.757 390.805 234.389 390.464 256.925C394.682 257.983 400.795 256.925 400.795 256.925C400.795 256.925 401.701 231.442 397.24 220.058C399.055 209.003 404.874 183.679 404.874 183.679L388.177 181.377Z" fill="#201D40"/>
<path d="M396.062 182.317C396.062 182.317 400.306 216.724 402.382 223.251C404.462 229.777 407.614 234.596 411.374 256.799C415.711 257.016 420.645 257.498 420.645 257.498C420.645 257.498 420.061 229.335 413.308 222.931C413.077 211.719 414.399 182.537 414.399 182.537L396.062 182.317Z" fill="#2C2858"/>
<path d="M416.509 143.553C416.509 143.553 408.083 140.515 405.693 140.663C400.712 145.159 396.608 140.564 396.608 140.564C393.93 139.969 387.422 140.919 387.422 140.919C386.62 151.608 385.276 186.145 385.276 186.145C385.276 186.145 393.403 188.275 401.088 188.331C408.773 188.28 419.137 186.5 419.137 186.5C419.137 186.5 417.628 171.474 417.287 165.921C417.395 159.696 416.509 151.756 416.509 143.553Z" fill="#3F964F"/>
<path d="M102.305 63.2382H58.8186C53.6875 63.2382 49.5281 67.398 49.5281 72.5284V90.019C49.5281 95.1493 53.6875 99.3092 58.8186 99.3092H88.813L87.7592 118.838C87.6784 120.335 89.7272 120.842 90.3524 119.477L99.5968 99.3092H102.305C107.436 99.3092 111.595 95.1493 111.595 90.019V72.5284C111.595 67.398 107.436 63.2382 102.305 63.2382Z" fill="#7F99EB"/>
<path d="M103.49 75.7163H58.2817C56.5271 75.7163 55.1047 74.2933 55.1047 72.5386C55.1047 70.7838 56.5271 69.3623 58.2817 69.3623H103.49C105.244 69.3623 106.667 70.7838 106.667 72.5386C106.667 74.2933 105.244 75.7163 103.49 75.7163Z" fill="white"/>
<path d="M103.49 85.1318H58.2817C56.5271 85.1318 55.1047 83.7103 55.1047 81.9556C55.1047 80.2008 56.5271 78.7778 58.2817 78.7778H103.49C105.244 78.7778 106.667 80.2008 106.667 81.9556C106.667 83.7103 105.244 85.1318 103.49 85.1318Z" fill="white"/>
<path d="M104.375 94.5483H72.3895C71.1235 94.5483 70.0974 93.5211 70.0974 92.2553V90.486C70.0974 89.2201 71.1235 88.1943 72.3895 88.1943H104.375C105.641 88.1943 106.667 89.2201 106.667 90.486V92.2553C106.667 93.5211 105.641 94.5483 104.375 94.5483Z" fill="white"/>
<path d="M327.045 116.737C320.19 114.134 305.648 118.581 307.48 144.511C309.314 170.44 328.012 168.511 328.012 168.511C328.012 168.511 336.681 166.603 338.87 150.425C341.059 134.248 338.573 121.115 327.045 116.737Z" fill="#2C2858"/>
<path d="M300.556 141.088C299.983 142.721 294.824 143.626 294.433 143.165C291.695 136.134 294.579 122.342 294.579 122.342L297.146 121.175C297.146 121.175 298.042 131.851 300.556 141.088Z" fill="#F37A50"/>
<path d="M313.403 154.795C308.59 153.259 294.966 144.641 294.358 142.918L300.056 139.866C300.056 139.866 315.58 146.762 318.101 148.032C322.473 150.221 321.251 157.318 313.403 154.795Z" fill="#F37A50"/>
<path d="M291.474 122.161C292.647 122.408 294.083 122.225 294.742 123.204L297.151 121.137C295.617 117.624 291.058 115.836 290.578 115.722C289.336 115.426 288.769 115.21 288.646 115.364C288.524 115.518 288.05 116.593 289.845 117.082C292.096 117.695 290.304 119.303 285.91 116.873C284.812 116.265 282.536 116.509 283.202 117.477C283.938 118.543 286.133 121.039 291.474 122.161Z" fill="#F37A50"/>
<path d="M317.255 144.713L323.734 143.517L326.163 146.75L321 157.335L313.408 150.889L317.255 144.713Z" fill="#F37A50"/>
<path d="M309.319 169.723C309.319 165.599 305.746 159.422 307.458 155.259C308.707 151.911 310.789 146.289 313.344 145.35C314.548 144.908 315.785 144.599 317.286 144.185C317.286 144.185 316.819 146.929 318.584 147.07C321.981 147.343 323.765 142.989 323.765 142.989C325.596 142.814 333.994 145.574 333.99 146.264C333.971 151.665 329.58 159.547 328.147 165.387C327.582 171.694 328.928 175.061 328.939 175.778C328.939 175.778 317.012 179.764 309.005 175.355C309.005 175.355 309.319 172.509 309.319 169.723Z" fill="#E62552"/>
<path d="M318.892 139.423L324.152 138.634L323.733 143.517C323.733 143.517 322.726 145.73 321.56 145.878L317.255 144.713L318.892 139.423Z" fill="#F37A50"/>
<path d="M329.043 132.438C327.306 138.085 322.302 141.557 317.868 140.192C313.433 138.827 311.246 133.144 312.982 127.497C314.72 121.85 319.724 118.379 324.158 119.743C328.594 121.108 330.781 126.791 329.043 132.438Z" fill="#F37A50"/>
<path d="M326.671 135.319L318.891 139.484C318.891 139.484 318.017 142.749 317.618 143.801C316.793 145.973 319.352 147.106 321.656 145.87C323.959 144.631 324.639 142.823 324.639 142.823L326.671 135.319Z" fill="#F37A50"/>
<path d="M314.82 129.403C314.599 129.789 314.103 129.92 313.718 129.697C313.332 129.473 313.202 128.979 313.424 128.594C313.647 128.208 314.143 128.077 314.529 128.3C314.914 128.524 315.045 129.018 314.82 129.403Z" fill="black"/>
<path d="M321.226 131.099C320.982 131.517 320.448 131.66 320.032 131.417C319.615 131.175 319.473 130.64 319.715 130.223C319.956 129.806 320.491 129.664 320.908 129.906C321.324 130.148 321.467 130.682 321.226 131.099Z" fill="black"/>
<path d="M322.236 130.439C322.176 130.406 322.131 130.353 322.105 130.286C321.726 129.316 320.559 129.057 320.547 129.055C320.383 129.02 320.278 128.859 320.313 128.695C320.346 128.531 320.506 128.426 320.67 128.46C320.732 128.472 322.172 128.784 322.67 130.066C322.731 130.222 322.653 130.399 322.497 130.459C322.409 130.494 322.312 130.483 322.236 130.439Z" fill="#2C2858"/>
<path d="M313.315 127.858C313.289 127.842 313.263 127.82 313.239 127.795C313.13 127.668 313.142 127.476 313.269 127.366C314.25 126.511 315.367 126.962 315.415 126.982C315.57 127.046 315.642 127.225 315.578 127.379C315.514 127.534 315.337 127.607 315.182 127.543C315.146 127.529 314.359 127.223 313.667 127.824C313.569 127.912 313.426 127.921 313.315 127.858Z" fill="#2C2858"/>
<path d="M315.404 130.922C314.933 131.348 314.516 131.792 314.077 132.031C313.928 132.111 313.872 132.299 313.945 132.45C314.249 133.076 315.211 133.636 315.805 133.934C315.892 133.978 315.972 133.866 315.904 133.797C315.322 133.218 315.082 132.803 314.986 132.578C314.937 132.466 314.947 132.339 315.01 132.233C315.151 131.992 315.435 131.5 315.632 131.09C315.698 130.947 315.521 130.816 315.404 130.922Z" fill="#DE623C"/>
<path d="M326.874 132.336C325.727 133.119 325.313 134.514 325.953 135.454C326.594 136.394 328.042 136.522 329.191 135.741C330.34 134.958 330.752 133.563 330.113 132.623C329.473 131.683 328.023 131.555 326.874 132.336Z" fill="#F37A50"/>
<path d="M327.311 135.28C327.273 135.257 327.237 135.225 327.21 135.184C326.825 134.598 326.827 133.968 327.212 133.498C327.606 133.015 328.293 132.827 328.847 133.05C329.002 133.112 329.078 133.29 329.015 133.446C328.952 133.601 328.776 133.676 328.621 133.613C328.318 133.492 327.905 133.61 327.683 133.882C327.468 134.144 327.48 134.489 327.719 134.851C327.811 134.991 327.771 135.18 327.631 135.272C327.532 135.337 327.409 135.336 327.311 135.28Z" fill="#DE623C"/>
<path d="M316.92 136.147C316.884 136.718 316.348 137.149 315.724 137.11C315.098 137.071 314.622 136.574 314.658 136.003C314.694 135.431 315.232 135 315.856 135.039C316.48 135.079 316.956 135.575 316.92 136.147Z" fill="white"/>
<path d="M329.132 131.86C323.813 131.149 316.374 125.732 315.765 122.952C316.793 119.613 322.272 117.934 325.367 119.482C328.459 121.028 331.383 127.659 329.132 131.86Z" fill="#2C2858"/>
<path d="M313.968 249.981C314.322 246.467 312.507 219.731 312.507 219.731C307.382 196.227 309.396 179.402 309.396 179.402L318.206 180.021L321.679 193.303L320.033 215.484C320.033 215.484 320.649 217.192 320.976 218.557C322.746 225.962 320.982 234.811 319.893 240.708C319.39 243.442 318.603 249.186 318.582 250.492L320.795 253.354C320.795 253.354 312.787 262.219 311.554 262.274C309.16 262.382 309.865 260.01 309.865 260.01C313.155 256.629 313.868 250.986 313.968 249.981Z" fill="#F37A50"/>
<path d="M320.934 256.495L320.493 262.191L319.47 262.236L318.951 256.947C316.225 257.643 314.273 262.588 314.273 262.588C312.397 263.26 307.624 263.723 305.928 262.847C305.516 261.184 309.871 260.017 309.871 260.017C310.264 260.483 312.589 260.839 313.414 260.34C316.453 257.753 317.936 253.99 318.582 250.491C318.582 250.491 323.386 250.826 320.934 256.495Z" fill="#201D40"/>
<path d="M316.946 181.111L329.358 179.402C334.107 190.144 335.654 208.848 336.942 215.51C342.117 224.185 343.758 250.492 343.758 250.492L345.973 253.354C345.973 253.354 337.961 262.219 336.731 262.274C334.335 262.382 335.041 260.01 335.041 260.01C338.333 256.629 338.974 252.137 339.187 251.148C339.508 249.664 329.142 220.479 329.142 220.479L328.035 217.71C315.373 196.798 313.296 180.986 313.296 180.986L316.946 181.111Z" fill="#F37A50"/>
<path d="M346.111 256.495L345.67 262.191L344.646 262.236L344.128 256.947C341.403 257.643 339.453 262.588 339.453 262.588C337.576 263.26 332.804 263.723 331.104 262.847C330.694 261.184 335.05 260.017 335.05 260.017C335.442 260.483 337.766 260.839 338.592 260.34C341.631 257.753 343.114 253.99 343.76 250.491C343.76 250.491 348.563 250.826 346.111 256.495Z" fill="#201D40"/>
<path d="M340.023 214.29C338.783 210.143 339.295 180.912 328.353 172.84L309.55 174.37C305.198 181.414 306.793 199.741 308.258 214.825C317.112 217.986 324.152 219.253 340.023 214.29Z" fill="#E62552"/>
<path d="M285.948 147.431C287.146 147.504 288.542 147.112 289.333 147.985L291.416 145.589C289.385 142.337 284.615 141.234 284.123 141.19C282.852 141.078 282.262 140.947 282.161 141.118C282.063 141.288 281.75 142.421 283.598 142.643C285.915 142.922 284.374 144.774 279.674 143.011C278.497 142.568 276.28 143.142 277.083 144.001C277.966 144.95 280.502 147.099 285.948 147.431Z" fill="#F37A50"/>
<path d="M310.138 154.518C311.257 156.112 308.703 161.425 308.026 161.481C299.798 159.38 289.074 147.705 289.074 147.705L289.689 144.592C289.689 144.592 300.042 150.765 310.138 154.518Z" fill="#F37A50"/>
<path d="M332.253 154.731C327.308 157.532 309.778 162.201 307.892 161.389L309.724 154.348C309.724 154.348 327.282 146.794 330.257 145.682C335.404 143.744 340.334 150.175 332.253 154.731Z" fill="#F37A50"/>
<path d="M281.332 78.9488C280.991 78.9488 280.672 78.7457 280.542 78.411C279.854 76.6679 279.066 75.2952 278.325 74.543C277.994 74.2102 277.998 73.6724 278.332 73.3433C278.665 73.0124 279.203 73.0162 279.532 73.3509C280.444 74.2741 281.339 75.8085 282.121 77.7886C282.292 78.2248 282.078 78.7175 281.642 78.8886C281.54 78.93 281.435 78.9488 281.332 78.9488ZM283.441 88.3338C283.001 88.3338 282.629 87.9953 282.593 87.5497C282.477 86.0303 282.242 84.4677 281.892 82.9014C281.79 82.4425 282.08 81.9894 282.537 81.8878C282.996 81.7844 283.449 82.074 283.552 82.5309C283.917 84.1763 284.165 85.8197 284.288 87.4199C284.323 87.8882 283.974 88.2955 283.507 88.3314C283.485 88.3331 283.462 88.3338 283.441 88.3338ZM288.58 92.3439C288.389 92.3439 288.197 92.28 288.039 92.1482C286.834 91.1486 285.519 90.5188 284.133 90.2768C283.673 90.1965 283.362 89.7565 283.441 89.2945C283.524 88.8327 283.962 88.5234 284.427 88.6036C286.108 88.8972 287.687 89.6501 289.124 90.8413C289.485 91.141 289.534 91.6764 289.235 92.037C289.068 92.2396 288.825 92.3439 288.58 92.3439ZM275.551 93.4229C275.344 93.4229 275.134 93.3469 274.97 93.1927C274.628 92.8714 274.611 92.3341 274.933 91.9923C276.097 90.7541 277.627 89.7387 279.241 89.133C279.679 88.9683 280.168 89.1907 280.333 89.6298C280.499 90.0689 280.277 90.5583 279.837 90.7232C278.462 91.2392 277.159 92.1031 276.17 93.1555C276.003 93.3334 275.777 93.4229 275.551 93.4229ZM281.82 97.6748C281.653 97.6748 281.484 97.6256 281.335 97.5227C280.95 97.2548 280.856 96.7258 281.123 96.3407C281.819 95.3411 282.287 93.9447 282.516 92.1907C282.578 91.7257 283.005 91.3981 283.47 91.4586C283.936 91.5199 284.263 91.9464 284.201 92.4114C283.936 94.4376 283.37 96.0857 282.516 97.3104C282.353 97.5477 282.087 97.6748 281.82 97.6748ZM277.652 99.8303C277.409 99.8303 277.155 99.8179 276.901 99.7937C273.968 99.5127 273.18 97.9678 272.971 97.0716C272.864 96.6149 273.148 96.1583 273.605 96.0519C274.062 95.9453 274.519 96.2294 274.624 96.6863C274.857 97.6865 276.078 98.0088 277.061 98.1028C277.262 98.122 277.462 98.1319 277.652 98.1319L277.721 98.1316C278.193 98.1259 278.575 98.5011 278.581 98.97C278.586 99.439 278.212 99.8239 277.744 99.8298L277.652 99.8303ZM293.383 100.484C292.952 100.484 292.584 100.158 292.539 99.7203C292.439 98.7264 292.084 97.6624 291.488 96.5579C291.311 96.2337 291.128 95.9163 290.944 95.6151C290.698 95.2153 290.826 94.6924 291.224 94.4473C291.623 94.2023 292.148 94.3279 292.392 94.7279C292.593 95.0549 292.791 95.3988 292.981 95.7499C293.686 97.0524 294.105 98.3305 294.227 99.5484C294.276 100.015 293.936 100.431 293.469 100.479C293.441 100.482 293.411 100.484 293.383 100.484ZM288.864 108.486C288.611 108.486 288.36 108.373 288.193 108.159C287.905 107.789 287.969 107.255 288.342 106.967C289.771 105.852 290.801 104.793 291.495 103.728C291.751 103.335 292.277 103.224 292.67 103.48C293.063 103.735 293.174 104.262 292.919 104.655C292.121 105.879 290.967 107.074 289.385 108.306C289.231 108.427 289.045 108.486 288.864 108.486ZM280.713 113.661C280.425 113.661 280.143 113.514 279.983 113.249C279.743 112.846 279.872 112.325 280.277 112.083C280.83 111.752 281.39 111.421 281.95 111.089C282.766 110.608 283.609 110.111 284.419 109.615C284.82 109.37 285.342 109.496 285.589 109.897C285.833 110.297 285.705 110.82 285.307 111.064C284.483 111.567 283.635 112.068 282.813 112.552C282.257 112.882 281.698 113.21 281.149 113.54C281.012 113.622 280.863 113.661 280.713 113.661ZM273.205 119.627C273.037 119.627 272.868 119.576 272.719 119.473C272.334 119.204 272.242 118.675 272.511 118.29C273.325 117.127 274.517 115.973 276.16 114.762C276.538 114.483 277.069 114.564 277.349 114.941C277.627 115.319 277.546 115.85 277.168 116.129C275.677 117.228 274.609 118.254 273.902 119.264C273.737 119.5 273.473 119.627 273.205 119.627ZM273.697 128.68C273.391 128.68 273.094 128.514 272.943 128.223C272.262 126.912 271.732 125.551 271.371 124.176C271.307 123.933 271.256 123.688 271.219 123.448C271.144 122.984 271.46 122.55 271.924 122.476C272.387 122.402 272.823 122.718 272.896 123.181C272.926 123.367 272.964 123.556 273.015 123.745C273.344 124.998 273.827 126.241 274.451 127.439C274.666 127.855 274.504 128.368 274.088 128.584C273.962 128.65 273.829 128.68 273.697 128.68ZM279.782 136.095C279.587 136.095 279.391 136.028 279.229 135.89C277.924 134.772 276.747 133.588 275.73 132.37C275.429 132.011 275.48 131.475 275.839 131.174C276.2 130.874 276.734 130.923 277.035 131.283C277.988 132.427 279.1 133.543 280.335 134.601C280.69 134.905 280.734 135.442 280.427 135.798C280.26 135.993 280.021 136.095 279.782 136.095ZM287.866 141.342C287.742 141.342 287.616 141.316 287.497 141.257C286.505 140.78 284.951 139.973 283.195 138.836C282.8 138.582 282.689 138.056 282.943 137.662C283.197 137.268 283.723 137.156 284.116 137.41C285.799 138.499 287.285 139.271 288.233 139.727C288.658 139.93 288.834 140.438 288.631 140.86C288.485 141.164 288.182 141.342 287.866 141.342Z" fill="#2C2858"/>
<path d="M187.907 72.4645C187.868 72.4645 187.829 72.4616 187.789 72.4558C187.325 72.3918 187.001 71.964 187.065 71.4984C187.107 71.1885 187.129 70.8553 187.129 70.5075C187.129 70.3591 187.126 70.2034 187.117 70.0477C187.094 69.5792 187.455 69.1806 187.923 69.1558C188.392 69.1325 188.79 69.4934 188.814 69.9619C188.822 70.1467 188.828 70.33 188.828 70.5075C188.828 70.9338 188.8 71.3456 188.747 71.7312C188.688 72.156 188.325 72.4645 187.907 72.4645ZM180.225 77.7316C179.793 77.7316 179.422 77.4028 179.379 76.9634C179.336 76.4963 179.678 76.0816 180.145 76.038C182.138 75.8459 183.637 75.4676 184.726 74.8813C185.14 74.6586 185.655 74.8129 185.877 75.2261C186.1 75.6393 185.946 76.1544 185.533 76.377C184.239 77.0725 182.529 77.5148 180.306 77.7287C180.279 77.7302 180.251 77.7316 180.225 77.7316ZM175.134 77.8902C175.131 77.8902 175.128 77.8902 175.125 77.8902C173.987 77.8786 172.838 77.8495 171.621 77.8175C171.092 77.8029 170.558 77.7898 170.019 77.7782C169.551 77.7665 169.18 77.3781 169.19 76.9095C169.202 76.4396 169.59 76.0685 170.059 76.0802C170.597 76.0918 171.134 76.1064 171.665 76.1195C172.875 76.15 174.018 76.1806 175.142 76.1922C175.611 76.1966 175.988 76.5807 175.983 77.0492C175.978 77.5163 175.599 77.8902 175.134 77.8902ZM159.863 78.1201C159.449 78.1201 159.086 77.816 159.024 77.3926C158.957 76.9285 159.277 76.4978 159.741 76.4308C159.916 76.4046 160.092 76.3814 160.271 76.361C161.669 76.1937 163.191 76.0947 164.924 76.0554C165.392 76.0453 165.782 76.4163 165.793 76.8848C165.804 77.3533 165.432 77.7433 164.963 77.7534C163.284 77.7913 161.815 77.8873 160.472 78.0474C160.307 78.0663 160.146 78.0881 159.987 78.1114C159.945 78.1172 159.904 78.1201 159.863 78.1201ZM152.159 83.7291C152.107 83.7291 152.051 83.7233 151.998 83.7131C151.536 83.6244 151.235 83.1792 151.325 82.7179C151.683 80.8628 152.823 79.287 154.621 78.1638C155.018 77.9149 155.542 78.0357 155.791 78.4329C156.04 78.8316 155.919 79.3554 155.522 79.6042C154.134 80.4714 153.259 81.6601 152.993 83.0409C152.914 83.4469 152.558 83.7291 152.159 83.7291ZM156.488 92.4112C156.304 92.4112 156.12 92.3515 155.964 92.2307C154.42 91.0216 153.218 89.6627 152.39 88.1887C152.161 87.7799 152.305 87.2619 152.713 87.032C153.122 86.8021 153.64 86.9476 153.87 87.3565C154.577 88.615 155.664 89.8387 157.012 90.8936C157.381 91.1817 157.445 91.7157 157.157 92.0852C156.988 92.2991 156.739 92.4112 156.488 92.4112ZM165.686 96.6656C165.595 96.6656 165.5 96.651 165.408 96.619L165.03 96.4881C163.956 96.1141 162.867 95.7344 161.774 95.3488C161.363 95.2048 160.956 95.0476 160.562 94.8832C160.128 94.7028 159.924 94.2052 160.105 93.7716C160.285 93.3395 160.781 93.1343 161.215 93.3147C161.58 93.4675 161.959 93.613 162.338 93.7469C163.43 94.131 164.516 94.5107 165.589 94.8832L165.966 95.0142C166.409 95.1684 166.644 95.6529 166.489 96.0952C166.367 96.4459 166.038 96.6656 165.686 96.6656ZM175.247 100.204C175.137 100.204 175.025 100.182 174.917 100.137C173.647 99.5974 172.149 99.0183 170.204 98.3127C169.763 98.1526 169.536 97.6652 169.696 97.2243C169.856 96.7834 170.344 96.555 170.785 96.7151C172.758 97.4324 174.282 98.0217 175.58 98.5731C176.012 98.7564 176.213 99.2555 176.03 99.6876C175.893 100.011 175.579 100.204 175.247 100.204ZM179.33 106.421C179.029 106.421 178.738 106.261 178.583 105.979C178.359 105.567 178.511 105.052 178.922 104.827C179.717 104.392 180.193 103.941 180.193 103.618C180.193 103.476 180.098 103.079 179.227 102.413C178.854 102.128 178.783 101.595 179.067 101.223C179.352 100.85 179.884 100.779 180.257 101.063C181.357 101.904 181.891 102.739 181.891 103.618C181.891 104.642 181.186 105.525 179.736 106.317C179.608 106.388 179.468 106.421 179.33 106.421Z" fill="#2C2858"/>
<path d="M366.321 103.374L362.253 97.6465L355.282 98.5145C354.602 98.599 354.154 97.8289 354.562 97.2799L358.752 91.6414L355.773 85.2795C355.482 84.6601 356.076 83.9953 356.725 84.2135L363.383 86.4566L368.51 81.6567C369.011 81.1896 369.827 81.5487 369.819 82.2324L369.743 89.2575L375.893 92.653C376.492 92.9837 376.404 93.8704 375.75 94.0748L369.044 96.1731L367.716 103.072C367.587 103.743 366.717 103.932 366.321 103.374Z" fill="#CDD8FA"/>
<path d="M307.828 51.3855L301.93 50.9641L298.762 55.9579C298.457 56.4442 297.714 56.3241 297.577 55.7649L296.155 50.0248L290.427 48.5558C289.869 48.414 289.755 47.6716 290.243 47.3684L295.263 44.2434L294.891 38.3418C294.853 37.7668 295.525 37.4281 295.964 37.7983L300.487 41.6066L305.985 39.4288C306.519 39.2161 307.048 39.7497 306.832 40.2814L304.608 45.7616L308.379 50.3162C308.746 50.7593 308.403 51.4268 307.828 51.3855Z" fill="#CDD8FA"/>
<path d="M155.264 48.1385C156.693 40.8649 163.179 43.2438 164.227 47.1913C165.685 51.4326 162.142 60.2179 161.739 59.7843C142.144 57.468 148.203 44.5257 155.264 48.1385Z" fill="#CDD8FA"/>
<path d="M31.3159 212.385L17.0334 216.974C15.1706 217.572 13.1679 216.543 12.5695 214.681L7.98051 200.398C7.38192 198.536 8.41047 196.533 10.2735 195.935L13.6817 194.839C14.4822 194.583 15.3395 195.022 15.5966 195.822C15.8538 196.623 15.4135 197.481 14.6131 197.737L11.2047 198.833C10.94 198.919 10.7939 199.202 10.8789 199.467L15.4678 213.75C15.5529 214.014 15.8374 214.16 16.1021 214.076L30.3845 209.486C30.6493 209.402 30.7954 209.117 30.7104 208.852L26.1212 194.57C26.0362 194.305 25.7516 194.159 25.4871 194.244L22.2359 195.288C21.4355 195.546 20.5782 195.105 20.3211 194.305C20.064 193.505 20.5043 192.648 21.3047 192.39L24.5559 191.345C26.4186 190.747 28.4213 191.776 29.0197 193.639L33.6087 207.921C34.2074 209.783 33.1786 211.787 31.3159 212.385Z" fill="#CDD8FA"/>
<path d="M20.223 186.653L14.6668 182.963C14.2684 182.7 13.7687 182.637 13.3178 182.796C12.8671 182.956 12.517 183.318 12.3731 183.774L10.4503 189.866C10.1974 190.668 10.6422 191.523 11.4439 191.776C11.7562 191.874 12.0766 191.867 12.3664 191.773C12.8204 191.628 13.1993 191.271 13.3536 190.783L13.9593 188.863L19.345 205.625C19.6023 206.425 20.4594 206.866 21.2598 206.609C22.0602 206.351 22.5007 205.494 22.2434 204.694L16.9155 188.111L18.5391 189.189C19.2396 189.655 20.1843 189.463 20.6493 188.763C21.1142 188.063 20.9234 187.117 20.223 186.653Z" fill="#CDD8FA"/>
<path d="M175.3 233.845C175.3 237.783 172.106 240.976 168.167 240.976C164.228 240.976 161.036 237.783 161.036 233.845C161.036 229.906 164.228 226.712 168.167 226.712C172.106 226.712 175.3 229.906 175.3 233.845Z" fill="white"/>
<path d="M178.64 218.128C176.851 218.128 175.396 219.583 175.396 221.372C175.396 223.161 176.851 224.617 178.64 224.617C180.428 224.617 181.883 223.161 181.883 221.372C181.883 219.583 180.428 218.128 178.64 218.128ZM178.64 226.629C175.742 226.629 173.383 224.271 173.383 221.372C173.383 218.474 175.742 216.116 178.64 216.116C181.539 216.116 183.897 218.474 183.897 221.372C183.897 224.271 181.539 226.629 178.64 226.629Z" fill="white"/>
<path d="M218.821 132.548C222.498 132.984 224.42 128.288 224.42 128.288C226.672 127.916 226.292 125.673 226.292 125.673C227.361 125.346 228.785 124.199 228.327 122.16C227.938 120.433 226.245 120.514 226.026 118.493C225.852 116.87 227.015 112.894 221.837 112.586C221.837 112.586 221.71 109.571 218.599 108.851C214.786 107.968 213.842 110.26 212.172 110.671C210.306 111.131 206.29 109.415 205.768 113.738C205.768 113.738 203.102 113.8 201.876 115.74C200.736 117.548 201.404 119.858 202.173 120.707C202.173 120.707 200.035 121.436 199.544 123.46C199.215 124.819 199.745 126.572 201.098 127.424C201.957 127.965 202.774 128.015 202.774 128.015C203.649 128.157 203.704 130.495 204.473 130.946C205.707 131.672 207.048 132.183 208.412 132.587L218.821 132.548Z" fill="#2C2858"/>
<path d="M204.686 123.57C204.263 129.911 207.743 135.307 212.46 135.622C217.177 135.937 221.346 131.053 221.769 124.712C222.193 118.371 218.421 114.275 213.704 113.96C208.987 113.644 205.111 117.229 204.686 123.57Z" fill="#F37A50"/>
<path d="M216.658 126.831C217.158 126.864 217.592 126.486 217.626 125.984C217.659 125.482 217.281 125.05 216.779 125.015C216.277 124.982 215.845 125.361 215.81 125.863C215.776 126.364 216.156 126.797 216.658 126.831Z" fill="black"/>
<path d="M209.424 126.348C209.924 126.381 210.358 126.001 210.391 125.501C210.425 124.999 210.045 124.565 209.544 124.532C209.042 124.498 208.609 124.878 208.575 125.379C208.542 125.881 208.922 126.314 209.424 126.348Z" fill="black"/>
<path d="M212.145 126.815C210.914 127.583 210.525 127.906 210.052 128.158C210.295 129.227 211.904 129.857 212.38 129.767C211.273 129.127 211.162 128.351 211.162 128.351L212.145 126.815Z" fill="#DE623C"/>
<path d="M220.245 125.754C219.364 127.07 219.44 128.666 220.415 129.319C221.388 129.971 222.893 129.434 223.774 128.12C224.656 126.805 224.581 125.209 223.606 124.557C222.631 123.903 221.126 124.44 220.245 125.754Z" fill="#F37A50"/>
<path d="M221.115 128.248C221.151 128.251 221.19 128.245 221.228 128.232C221.381 128.179 221.461 128.014 221.409 127.862C221.234 127.357 221.256 126.962 221.473 126.687C221.809 126.262 222.541 126.172 223.064 126.225C223.224 126.241 223.367 126.123 223.383 125.963C223.399 125.803 223.283 125.661 223.123 125.645C222.42 125.575 221.497 125.716 221.016 126.324C220.777 126.628 220.554 127.174 220.859 128.051C220.898 128.166 221.001 128.241 221.115 128.248Z" fill="#DE623C"/>
<path d="M224.765 120.196L214.673 111.734L203.246 117.28L204.482 125.469C204.845 121.705 207.131 122.965 208.346 121.887C209.578 120.794 210.138 119.058 212.954 120.657C212.954 120.657 215.295 119.112 216.435 121.376C217.319 123.128 218.57 122.819 219.808 122.936C221.267 123.071 220.892 124.485 221.787 124.456L224.765 120.196Z" fill="#2C2858"/>
<path d="M208.29 124.168C209.61 124.168 210.324 123.365 210.359 123.326C210.505 123.157 210.487 122.901 210.319 122.754C210.15 122.608 209.897 122.626 209.75 122.792C209.716 122.828 209.059 123.535 207.822 123.315C207.602 123.276 207.391 123.423 207.352 123.643C207.313 123.864 207.459 124.073 207.681 124.113C207.896 124.152 208.1 124.168 208.29 124.168Z" fill="#2C2858"/>
<path d="M217.933 124.168C216.613 124.168 215.898 123.365 215.864 123.326C215.718 123.157 215.735 122.901 215.904 122.754C216.073 122.608 216.326 122.626 216.475 122.792C216.507 122.828 217.164 123.535 218.401 123.315C218.621 123.276 218.832 123.423 218.871 123.643C218.91 123.864 218.763 124.073 218.542 124.113C218.327 124.152 218.123 124.168 217.933 124.168Z" fill="#2C2858"/>
<path d="M210.393 132.102C210.393 132.79 211.133 133.349 212.046 133.349C212.958 133.349 213.698 132.79 213.698 132.102C213.698 131.414 212.958 130.855 212.046 130.855C211.133 130.855 210.393 131.414 210.393 132.102Z" fill="white"/>
<path d="M263.252 88.3503L236.442 91.1725C233.123 91.5224 230.716 94.4961 231.066 97.8144L232.382 110.312C232.732 113.631 235.704 116.038 239.022 115.688L239.222 115.667L237.829 123.103C237.768 123.43 238.162 123.644 238.402 123.416L247.539 114.792L265.832 112.865C269.152 112.516 271.558 109.542 271.208 106.224L269.892 93.7265C269.544 90.4082 266.57 88.0003 263.252 88.3503Z" fill="#E62552"/>
<path d="M237.558 101.667L263.297 98.9568C264.94 98.7827 266.132 97.3123 265.959 95.6695C265.785 94.0266 264.315 92.8346 262.672 93.0088L236.931 95.719C235.29 95.8915 234.098 97.3635 234.272 99.0064C234.443 100.649 235.915 101.839 237.558 101.667Z" fill="white"/>
<path d="M238.516 110.749L264.256 108.039C265.899 107.866 267.09 106.394 266.917 104.752C266.744 103.109 265.272 101.918 263.628 102.091L237.89 104.801C236.247 104.974 235.056 106.446 235.229 108.088C235.402 109.731 236.872 110.922 238.516 110.749Z" fill="white"/>
<path d="M251.138 115.001C250.521 114.769 250.136 114.66 250.047 113.718C249.957 112.776 250.031 111.575 249.244 111.968C248.458 112.359 247.907 114.212 248.037 114.972C248.945 115.519 251.138 115.001 251.138 115.001Z" fill="#F37A50"/>
<path d="M196.688 57.0329C196.688 57.6658 196.58 58.2769 196.377 58.8575C195.361 61.7733 191.97 63.9165 187.942 63.9165C183.915 63.9165 180.523 61.7733 179.507 58.8575C179.305 58.2769 179.196 57.6658 179.196 57.0329H196.688Z" fill="#3F964F"/>
<path d="M196.688 57.0329C196.688 57.6658 196.58 58.2769 196.377 58.8574H179.507C179.305 58.2769 179.196 57.6658 179.196 57.0329H196.688Z" fill="#0E6A41"/>
<path d="M206.257 27.5303C206.257 17.4242 198.07 9.22924 187.968 9.21614C178.004 9.2014 169.807 17.2309 169.63 27.1946C169.552 31.5525 170.996 35.568 173.466 38.7501C176.591 42.7755 178.325 47.7065 178.325 52.803V52.8931H197.558V52.803C197.558 47.7 199.305 42.7689 202.43 38.7337C204.828 35.6368 206.257 31.7506 206.257 27.5303Z" fill="#FFE91D"/>
<path d="M188.141 27.687C187.612 28.5854 187.172 29.5974 186.863 30.6452C186.323 32.4761 186.25 34.2292 186.667 35.3362C186.968 36.1349 187.478 36.5506 188.23 36.6082C189.006 36.6658 189.493 36.3482 189.765 35.6071C190.385 33.9194 189.631 30.4755 188.141 27.687ZM190.712 50.8198C190.661 50.8198 190.609 50.812 190.559 50.7934C190.315 50.7077 190.186 50.4415 190.271 50.1971C190.292 50.1348 192.453 43.9133 194.02 37.5766C196.803 26.3465 195.37 24.5202 194.626 24.2571C192.437 23.4817 190.695 24.6276 189.617 25.7268C189.301 26.0491 188.998 26.4134 188.713 26.8104C189.18 27.6185 189.602 28.5122 189.955 29.4557C190.924 32.048 191.182 34.4674 190.645 35.9309C190.229 37.0581 189.347 37.6311 188.16 37.5408C187.039 37.4567 186.22 36.809 185.789 35.6663C185.295 34.3553 185.361 32.4294 185.965 30.3805C186.346 29.0867 186.918 27.8411 187.609 26.7684C186.963 25.7471 186.216 24.869 185.404 24.2773C184.199 23.3977 183.067 23.3603 182.04 24.1621C179.918 25.8202 179.837 30.8071 181.805 38.5839C183.321 44.5781 185.548 50.1208 185.569 50.1768C185.666 50.415 185.551 50.689 185.311 50.7856C185.071 50.8821 184.799 50.7669 184.701 50.5271C184.679 50.4711 182.431 44.877 180.899 38.8221C178.803 30.5362 178.991 25.3563 181.462 23.4257C182.82 22.3639 184.416 22.3981 185.956 23.5207C186.728 24.0827 187.491 24.925 188.182 25.9572C188.428 25.6381 188.683 25.3407 188.95 25.0714C190.742 23.2435 192.868 22.641 194.939 23.3743C196.228 23.8305 196.758 25.5665 196.557 28.6788C196.409 30.9752 195.859 34.0471 194.928 37.807C193.348 44.1842 191.176 50.443 191.154 50.5053C191.087 50.6984 190.907 50.8198 190.712 50.8198Z" fill="white"/>
<path d="M196.368 57.6323H179.516C177.849 57.6323 176.497 56.2806 176.497 54.6147V53.6034C176.497 51.9374 177.849 50.5857 179.516 50.5857H196.368C198.035 50.5857 199.387 51.9374 199.387 53.6034V54.6147C199.387 56.2806 198.035 57.6323 196.368 57.6323Z" fill="#3F964F"/>
<path d="M219.055 28.2827H213.068C212.215 28.2827 211.525 27.5915 211.525 26.7385C211.525 25.8872 212.215 25.1959 213.068 25.1959H219.055C219.908 25.1959 220.6 25.8872 220.6 26.7385C220.6 27.5915 219.908 28.2827 219.055 28.2827Z" fill="#FFE91D"/>
<path d="M162.815 28.2827H156.828C155.975 28.2827 155.284 27.5915 155.284 26.7385C155.284 25.8872 155.975 25.1959 156.828 25.1959H162.815C163.668 25.1959 164.36 25.8872 164.36 26.7385C164.36 27.5915 163.668 28.2827 162.815 28.2827Z" fill="#FFE91D"/>
<path d="M166.621 15.6136L161.856 11.9869C161.179 11.4707 161.046 10.5021 161.562 9.82365C162.079 9.14517 163.047 9.01406 163.724 9.53029L168.491 13.157C169.17 13.6733 169.301 14.6402 168.783 15.3186C168.268 15.9971 167.3 16.1282 166.621 15.6136Z" fill="#FFE91D"/>
<path d="M208.956 15.6136L213.723 11.9869C214.401 11.4707 214.533 10.5021 214.015 9.82365C213.5 9.14517 212.532 9.01406 211.853 9.53029L207.087 13.157C206.411 13.6733 206.278 14.6402 206.794 15.3186C207.31 15.9971 208.279 16.1282 208.956 15.6136Z" fill="#FFE91D"/>
<path d="M166.622 39.7793L161.857 43.4066C161.179 43.9217 161.046 44.8907 161.563 45.5688C162.079 46.2468 163.047 46.3777 163.725 45.8627L168.491 42.2354C169.17 41.7203 169.3 40.7512 168.784 40.0732C168.269 39.3952 167.3 39.2628 166.622 39.7793Z" fill="#FFE91D"/>
<path d="M208.957 39.7793L213.723 43.4066C214.401 43.9217 214.532 44.8907 214.016 45.5688C213.501 46.2468 212.532 46.3777 211.853 45.8627L207.088 42.2354C206.41 41.7203 206.278 40.7512 206.794 40.0732C207.311 39.3952 208.279 39.2628 208.957 39.7793Z" fill="#FFE91D"/>
<path d="M264.949 49.0336C262.636 54.0188 264.803 59.9331 269.788 62.244C274.773 64.5568 280.689 62.39 282.999 57.4049C285.311 52.4198 283.145 46.5055 278.159 44.1927C273.174 41.8818 267.26 44.0485 264.949 49.0336Z" fill="white"/>
<path d="M282.195 49.3694C280.499 47.1453 278.016 44.9303 275.003 45.4845C272.715 45.907 271.01 47.7964 270.004 49.7882C269.017 51.7453 268.402 54.187 268.945 56.3654C269.165 57.247 269.62 58.0737 270.372 58.6078C271.243 59.226 272.377 59.3247 273.41 59.1857C275.089 58.9589 276.671 58.2017 278.116 57.3494C279.493 56.5355 281.209 55.5167 281.86 53.962C282.835 51.6373 279.713 50.6753 278.001 50.6497C275.47 50.6131 272.658 51.9227 272.496 54.7503C272.446 55.6045 272.613 56.4532 272.885 57.2598C273.021 57.6603 273.134 58.1267 273.374 58.4797C273.628 58.8547 274.025 59.1419 274.416 59.3613C275.254 59.8314 276.34 60.1313 277.297 59.8991C277.668 59.8094 278.05 59.621 278.257 59.2863C278.537 58.8346 278.456 58.1322 278.423 57.6274C278.219 54.3882 276.157 51.416 273.725 49.395C273.128 48.8993 272.496 48.4439 271.826 48.0506C271.256 47.7123 270.61 47.3227 269.955 47.1672C269.194 46.988 268.479 47.3702 268.219 48.1037C267.912 48.9651 268.071 50.0205 268.322 50.8746C268.582 51.7617 269.033 52.6982 269.831 53.2213C272.422 54.9223 275.499 53.9163 278.334 53.6548C279.826 53.5158 281.418 53.5853 282.542 54.6845C283.461 55.5807 284.179 56.6727 284.543 57.9091C285.237 60.2502 284.595 62.7487 283.344 64.7844C282.008 66.9555 279.978 68.7589 277.641 69.785C276.463 70.3026 275.203 70.6263 273.913 70.6647C273.622 70.6739 273.33 70.6373 273.041 70.6464C272.737 70.6574 272.439 70.7233 272.133 70.7287C271.665 70.7342 271.19 70.6702 270.753 70.5038C269.518 70.0337 268.646 68.5924 269.123 67.2902C269.289 66.8439 269.604 66.5293 270.061 66.5897C270.888 66.6976 272.046 67.5426 272.196 68.3547C272.675 70.9665 270.195 72.8797 267.857 73.2382C266.562 73.4357 265.415 73.1339 264.281 72.512C263.001 71.8097 261.673 70.8513 260.15 70.8677C258.919 70.8805 257.852 71.539 257.399 72.684C256.982 73.7393 257.006 74.9117 256.731 76.0018C256.601 76.5158 256.406 77.0517 255.996 77.412C255.513 77.8363 255.006 77.712 254.43 77.5345C253.214 77.1614 252.192 76.3256 251.262 75.486C249.519 73.9131 247.738 71.8261 245.223 71.6597C244.177 71.5902 242.953 71.945 242.004 72.373C241.238 72.7187 240.543 73.1997 240.001 73.8454C238.159 76.0475 238.721 79.5062 240.008 81.8401C240.343 82.4455 241.009 83.5191 241.85 83.0088C242.185 82.804 242.212 82.3979 242.211 82.0431C242.209 81.7212 242.167 81.4011 242.114 81.0847C242.013 80.4647 241.744 79.9781 241.428 79.4349C240.35 77.5766 238.832 75.7128 236.7 75.0635C235.087 74.5734 233.358 74.9337 231.931 75.7823C229.148 77.4413 226.995 80.9164 226.969 84.1885C226.958 85.5201 227.419 86.8205 228.573 87.5722C228.732 87.6765 229.226 87.596 229.261 87.3656C229.94 83.0143 230.024 78.5698 229.753 74.1801C229.468 69.5783 228.78 64.9691 227.516 60.5319C227.026 58.8071 226.583 56.9616 225.067 55.8423C223.906 54.9826 222.373 54.7558 220.999 55.1838C219.441 55.6685 218.554 56.8391 217.899 58.2639C217.338 59.4857 217.237 60.8447 217.158 62.1707C217.06 63.8022 217.072 65.4813 216.666 67.0762C216.301 68.5101 215.501 69.6789 213.923 69.7886C214.023 69.816 214.122 69.8417 214.223 69.8691C213.603 69.0277 213.489 67.9815 213.345 66.9756C213.206 66.0245 212.97 65.1008 212.56 64.2284C211.968 62.9682 210.788 62.1305 209.387 62.0628C208.026 61.9951 206.678 62.5932 205.807 63.6376C204.542 65.1575 204.651 67.356 204.807 69.2125C205.015 71.6561 205.604 74.0484 205.807 76.492C205.946 78.1436 205.981 79.9909 205.021 81.4359C204.931 81.573 204.833 81.6919 204.71 81.7998C204.695 81.8126 204.597 81.8821 204.63 81.8565C204.604 81.8767 204.598 81.8675 204.617 81.8693C204.395 81.8401 204.161 81.6791 203.973 81.4889C203.305 80.8195 202.892 79.8867 202.532 79.0289C201.617 76.8413 200.984 74.4581 200.708 72.1023C200.589 71.1019 200.688 70.2203 200.787 69.2289C200.959 67.5298 201.015 65.8123 200.907 64.1077C200.823 62.7853 200.648 61.4519 200.278 60.1753C200.041 59.3522 199.72 58.4688 199.152 57.8103C198.751 57.3439 198.204 57.0659 197.582 57.1885C196.871 57.3256 196.373 57.8908 196.029 58.4944C195.417 59.5717 195.108 60.8191 194.864 62.0226C194.68 62.9407 194.546 63.8681 194.44 64.7972C194.382 65.3203 194.332 65.8452 194.29 66.3702C194.241 66.9774 194.341 67.8261 194.029 68.3528C193.818 68.704 193.467 69.1539 193.043 69.2454C192.681 69.3259 192.293 69.11 192.004 68.9162C191.296 68.4388 190.755 67.7072 190.284 67.0067C190.058 66.6683 189.913 66.4836 189.52 66.3336C189.178 66.2037 188.812 66.1653 188.45 66.1854C187.627 66.2293 186.844 66.5476 186.078 66.8256C185.302 67.1036 184.428 67.4365 183.614 67.1164C183.446 67.0487 183.228 67.0615 183.073 67.164C182.988 67.2188 182.818 67.3963 182.999 67.4676C184.166 67.9303 185.363 67.5279 186.486 67.1219C187.062 66.9116 187.662 66.6537 188.28 66.6189C188.578 66.6025 188.913 66.6427 189.171 66.8055C189.441 66.9756 189.595 67.3249 189.78 67.5828C190.407 68.4607 191.27 69.5326 192.419 69.6789C192.935 69.7447 193.452 69.6076 193.882 69.3149C194.124 69.1521 194.328 68.9454 194.51 68.7168C194.638 68.5577 194.782 68.3711 194.868 68.1846C194.967 67.9687 194.954 67.7511 194.969 67.5115C195.124 64.874 195.351 62.0921 196.269 59.59C196.49 58.9846 196.767 58.3224 197.233 57.8597C197.295 57.7975 197.381 57.7225 197.443 57.6823C197.535 57.6219 197.59 57.6055 197.59 57.6055C197.646 57.5853 197.623 57.5799 197.707 57.5945C197.74 57.6018 197.831 57.6201 197.899 57.6494C198.945 58.1139 199.367 59.7601 199.618 60.7423C200.174 62.9151 200.267 65.2124 200.161 67.4438C200.112 68.5101 199.929 69.5618 199.865 70.6227C199.825 71.2976 199.898 71.9798 199.989 72.6492C200.24 74.4526 200.695 76.2414 201.293 77.9607C201.751 79.2758 202.303 80.9274 203.382 81.8821C204.322 82.7125 205.409 82.1492 205.921 81.1542C206.462 80.1025 206.651 78.9904 206.643 77.8144C206.634 75.9506 206.309 74.1088 206.01 72.2743C205.709 70.4215 205.414 68.5412 205.526 66.6573C205.604 65.3203 205.95 64.0418 207.044 63.1767C207.825 62.5585 208.862 62.3298 209.82 62.6225C210.989 62.981 211.62 63.9357 212.032 65.0203C212.308 65.7483 212.478 66.4506 212.589 67.2225C212.692 67.9486 212.782 68.6967 213.069 69.3771C213.167 69.6057 213.321 70.0282 213.533 70.1617C213.742 70.2934 214.086 70.2001 214.314 70.1636C214.775 70.0867 215.225 69.9423 215.631 69.7081C217.318 68.7369 217.616 66.564 217.764 64.8027C217.93 62.7725 217.747 60.5319 218.488 58.5986C218.9 57.525 219.483 56.466 220.502 55.8661C221.433 55.3155 222.565 55.2734 223.56 55.6831C224.674 56.1441 225.532 57.1098 225.965 58.2255C226.538 59.696 226.929 61.2654 227.299 62.7999C228.879 69.357 229.44 76.2542 228.985 82.9832C228.886 84.4702 228.729 85.9536 228.498 87.4259C228.729 87.3582 228.957 87.2887 229.188 87.2192C226.547 85.4963 227.975 81.37 229.27 79.2703C230.893 76.6402 233.976 74.16 237.131 75.8518C238.048 76.3438 238.812 77.07 239.463 77.8729C239.871 78.3777 240.239 78.9155 240.574 79.4715C240.903 80.022 241.228 80.5506 241.338 81.1871C241.419 81.67 241.51 82.1949 241.388 82.6778C241.378 82.7125 241.324 82.7857 241.329 82.7948C241.3 82.7418 241.55 82.7253 241.627 82.6961C241.671 82.6814 241.649 82.7217 241.602 82.676C241.547 82.6247 241.508 82.6156 241.457 82.5717C240.718 81.9407 240.312 80.8012 240.036 79.9068C239.626 78.5881 239.449 77.1413 239.776 75.7878C240.149 74.2423 241.227 73.0955 242.708 72.5413C243.751 72.1517 244.883 71.9487 245.958 72.3054C247.096 72.6821 248.054 73.4741 248.93 74.2642C250.628 75.797 252.309 77.7412 254.692 78.107C255.734 78.268 256.691 77.7668 257.174 76.8212C257.655 75.8793 257.68 74.7745 257.865 73.7521C258.077 72.5815 258.566 71.2902 259.985 71.303C261.481 71.3158 262.805 72.448 264.086 73.0863C266.164 74.1216 268.673 73.8527 270.628 72.6401C271.524 72.0841 272.305 71.3159 272.728 70.3355C272.944 69.8325 273.041 69.2875 273.022 68.7388C273.013 68.4736 272.975 68.2083 272.913 67.9504C272.838 67.6432 272.653 67.484 272.424 67.2719C271.471 66.3866 269.818 65.538 268.731 66.7268C267.941 67.5938 268.161 69.0113 268.825 69.8801C269.275 70.469 269.946 70.8513 270.657 71.0269C271.118 71.1403 271.594 71.1732 272.069 71.1586C272.646 71.1403 273.22 71.1147 273.798 71.0964C278.502 70.95 283.045 67.5572 284.858 63.2718C285.725 61.2233 285.904 58.8693 284.966 56.8135C284.465 55.7143 283.68 54.6644 282.72 53.9236C281.719 53.1536 280.13 53.117 278.93 53.1865C276.134 53.3475 273.092 54.54 270.511 52.9085C269.71 52.4019 269.288 51.4416 269.05 50.5582C268.832 49.7553 268.662 48.7036 269.03 47.9171C269.154 47.6501 269.262 47.5239 269.549 47.5915C270.211 47.7507 270.893 48.2006 271.466 48.5554C272.838 49.4078 274.059 50.5052 275.075 51.7599C276.079 53 276.891 54.412 277.333 55.952C277.538 56.669 277.659 57.4134 277.672 58.1597C277.679 58.5566 277.754 59.2461 277.31 59.4638C276.562 59.8314 275.318 59.2296 274.712 58.8108C273.939 58.2749 273.697 57.3549 273.47 56.4806C273.13 55.171 273.136 53.706 274.008 52.5976C275.327 50.9185 278.147 50.6716 279.978 51.5752C280.721 51.9428 281.381 52.6067 281.249 53.4993C281.044 54.9003 279.519 55.9118 278.436 56.6068C277.03 57.5103 275.492 58.3682 273.836 58.6992C272.905 58.8858 271.903 58.8547 271.087 58.3225C269.485 57.2799 269.379 54.9607 269.628 53.2652C269.948 51.096 270.915 48.8645 272.507 47.3245C273.205 46.6459 274.058 46.0954 275 45.9034C276.026 45.693 277.118 45.9674 278.047 46.4685C279.431 47.2166 280.536 48.4055 281.482 49.6437C281.644 49.8577 282.383 49.6163 282.195 49.3694Z" fill="#201D40"/>
</svg>
