<svg width="23" height="32" viewBox="0 0 23 32" fill="none" xmlns="http://www.w3.org/2000/svg">
<path d="M22.0811 16C22.0811 14.4423 20.801 13.1622 19.2433 13.1622C17.9679 13.1622 16.8724 14.0231 16.5195 15.1892L14.7838 15.1892C14.6764 15.1877 14.5697 15.2075 14.47 15.2476C14.3703 15.2877 14.2796 15.3471 14.203 15.4226C14.1265 15.498 14.0658 15.5879 14.0243 15.687C13.9828 15.7862 13.9615 15.8925 13.9615 16C13.9615 16.1075 13.9828 16.2138 14.0243 16.313C14.0658 16.4121 14.1265 16.502 14.203 16.5774C14.2796 16.6529 14.3703 16.7123 14.47 16.7524C14.5697 16.7925 14.6764 16.8123 14.7838 16.8108L16.5195 16.8108C16.8724 17.9769 17.9679 18.8378 19.2433 18.8378C20.801 18.8378 22.0811 17.5577 22.0811 16ZM20.4595 16C20.4595 16.6813 19.9246 17.2162 19.2433 17.2162C18.562 17.2162 18.0271 16.6813 18.0271 16C18.0271 15.3187 18.562 14.7838 19.2433 14.7838C19.9246 14.7838 20.4595 15.3187 20.4595 16ZM18.4325 7.48649C18.4325 5.92879 17.1523 4.64865 15.5946 4.64865C14.037 4.64865 12.7568 5.92879 12.7568 7.48649C12.7568 7.97327 12.8794 8.42742 13.0989 8.82939L12.1867 9.75422C12.1094 9.82939 12.0479 9.91922 12.0057 10.0184C11.9635 10.1177 11.9416 10.2243 11.9411 10.3322C11.9406 10.44 11.9617 10.5468 12.003 10.6464C12.0443 10.746 12.1051 10.8363 12.1818 10.9121C12.2584 10.988 12.3494 11.0477 12.4495 11.088C12.5495 11.1282 12.6566 11.148 12.7644 11.1464C12.8722 11.1447 12.9786 11.1216 13.0774 11.0783C13.1761 11.0351 13.2653 10.9726 13.3396 10.8944L14.2391 9.98226C14.641 10.2017 15.1079 10.3243 15.5946 10.3243C17.1523 10.3243 18.4325 9.04418 18.4325 7.48649ZM18.4325 24.5135C18.4325 22.9558 17.1523 21.6757 15.5946 21.6757C15.1079 21.6757 14.641 21.7983 14.2391 22.0177L13.3396 21.1056C13.2653 21.0274 13.1761 20.9649 13.0774 20.9217C12.9786 20.8784 12.8722 20.8553 12.7644 20.8536C12.6566 20.852 12.5495 20.8718 12.4495 20.912C12.3494 20.9523 12.2584 21.012 12.1818 21.0879C12.1051 21.1637 12.0443 21.254 12.003 21.3536C11.9617 21.4532 11.9406 21.56 11.9411 21.6679C11.9416 21.7757 11.9635 21.8823 12.0057 21.9816C12.0479 22.0808 12.1094 22.1706 12.1867 22.2458L13.0989 23.1579C12.8762 23.5622 12.7568 24.0229 12.7568 24.5135C12.7568 26.0712 14.037 27.3514 15.5946 27.3514C17.1523 27.3514 18.4325 26.0712 18.4325 24.5135ZM16.8108 7.48649C16.8108 8.16778 16.2759 8.7027 15.5946 8.7027C14.9134 8.7027 14.3784 8.16778 14.3784 7.48649C14.3784 6.80519 14.9134 6.27027 15.5946 6.27027C16.2759 6.27027 16.8108 6.80519 16.8108 7.48649ZM16.8108 24.5135C16.8108 25.1948 16.2759 25.7297 15.5946 25.7297C14.9134 25.7297 14.3784 25.1948 14.3784 24.5135C14.3784 23.8322 14.9134 23.2973 15.5946 23.2973C16.2759 23.2973 16.8108 23.8322 16.8108 24.5135ZM12.3514 16C12.3514 12.875 9.80069 10.3243 6.67572 10.3243C3.55077 10.3243 1.00004 12.875 1.00004 16C1.00004 19.125 3.55077 21.6757 6.67572 21.6757C9.80069 21.6757 12.3514 19.125 12.3514 16ZM10.7298 16C10.7298 18.2486 8.9243 20.0541 6.67572 20.0541C4.42718 20.0541 2.62166 18.2486 2.62166 16C2.62166 13.7514 4.42718 11.9459 6.67572 11.9459C8.9243 11.9459 10.7298 13.7514 10.7298 16ZM9.51355 3.83784C9.51355 2.28014 8.23341 1 6.67572 1C5.11803 0.999999 3.83788 2.28014 3.83788 3.83784C3.83788 5.11704 4.69352 6.21207 5.86491 6.56166L5.86491 8.2973C5.86339 8.40474 5.88324 8.51141 5.92331 8.61111C5.96337 8.71081 6.02286 8.80156 6.0983 8.87807C6.17374 8.95459 6.26363 9.01534 6.36276 9.05681C6.46188 9.09828 6.56827 9.11964 6.67572 9.11964C6.78317 9.11964 6.88955 9.09828 6.98867 9.05681C7.0878 9.01534 7.17769 8.95459 7.25314 8.87807C7.32858 8.80156 7.38806 8.71081 7.42813 8.61111C7.46819 8.51141 7.48804 8.40474 7.48653 8.2973L7.48653 6.54899C8.6512 6.19517 9.51355 5.11224 9.51355 3.83784ZM9.51355 28.1622C9.51355 26.8878 8.6512 25.8048 7.48653 25.451L7.48653 23.7027C7.48771 23.6774 7.48771 23.652 7.48653 23.6267C7.48156 23.5202 7.45566 23.4157 7.41031 23.3192C7.36496 23.2228 7.30105 23.1362 7.22222 23.0644C7.1434 22.9926 7.05121 22.9371 6.95092 22.9009C6.85062 22.8648 6.74419 22.8487 6.6377 22.8537C6.53121 22.8587 6.42675 22.8846 6.33027 22.93C6.2338 22.9754 6.14721 23.0393 6.07545 23.1181C6.00369 23.197 5.94816 23.2892 5.91203 23.3895C5.87591 23.4898 5.85989 23.5962 5.8649 23.7027L5.8649 25.4383C4.69352 25.7879 3.83788 26.883 3.83788 28.1622C3.83788 29.7199 5.11803 31 6.67572 31C8.2334 31 9.51355 29.7199 9.51355 28.1622ZM7.89193 3.83784C7.89193 4.51914 7.35701 5.05405 6.67572 5.05405C5.99442 5.05405 5.4595 4.51914 5.4595 3.83784C5.4595 3.15654 5.99442 2.62162 6.67572 2.62162C7.35701 2.62162 7.89193 3.15654 7.89193 3.83784ZM7.89193 28.1622C7.89193 28.8435 7.35701 29.3784 6.67572 29.3784C5.99442 29.3784 5.4595 28.8435 5.4595 28.1622C5.4595 27.4809 5.99442 26.9459 6.67572 26.9459C7.35701 26.9459 7.89193 27.4809 7.89193 28.1622Z" fill="black" stroke="black" stroke-width="0.3"/>
</svg>
