<svg width="39" height="9" viewBox="0 0 39 9" fill="none" xmlns="http://www.w3.org/2000/svg">
<path d="M0.792063 1.51212C0.581585 1.51212 0.40434 1.43827 0.260328 1.29056C0.116317 1.14286 0.0443112 0.963769 0.0443112 0.753291C0.0443112 0.542812 0.116317 0.365567 0.260328 0.221556C0.40434 0.073852 0.581585 0 0.792063 0C1.00623 0 1.18532 0.073852 1.32934 0.221556C1.47704 0.365567 1.55089 0.542812 1.55089 0.753291C1.55089 0.963769 1.47704 1.14286 1.32934 1.29056C1.18532 1.43827 1.00623 1.51212 0.792063 1.51212ZM1.58966 8.37482H0V2.83592H1.58966V8.37482Z" fill="#3172B7"/>
<path d="M8.66284 8.37482H7.26704L7.18396 7.62153C6.94763 7.88739 6.6633 8.09787 6.33096 8.25296C6.00232 8.40805 5.64229 8.4856 5.25088 8.4856C4.74499 8.4856 4.29265 8.36189 3.89385 8.11449C3.49874 7.86339 3.18671 7.51998 2.95777 7.08425C2.72883 6.64853 2.61436 6.15557 2.61436 5.60537C2.61436 5.05148 2.72883 4.55852 2.95777 4.12648C3.18671 3.69075 3.49874 3.34919 3.89385 3.10178C4.29265 2.85069 4.74499 2.72514 5.25088 2.72514C5.61275 2.72514 5.94878 2.79161 6.25896 2.92454C6.57283 3.05378 6.84424 3.23472 7.07318 3.46735V0.0664668H8.66284V8.37482ZM5.66076 7.0621C5.92293 7.0621 6.15926 7.00302 6.36974 6.88485C6.58391 6.76669 6.75377 6.60606 6.87932 6.40297C7.00856 6.19618 7.07318 5.9617 7.07318 5.69953V5.50013C7.07318 5.23795 7.00856 5.00532 6.87932 4.80223C6.75377 4.59913 6.58391 4.44035 6.36974 4.32588C6.15926 4.20772 5.92293 4.14864 5.66076 4.14864C5.3912 4.14864 5.14933 4.21141 4.93516 4.33696C4.72099 4.46251 4.55113 4.63606 4.42558 4.85762C4.30373 5.07548 4.2428 5.32473 4.2428 5.60537C4.2428 5.88231 4.30373 6.13156 4.42558 6.35312C4.55113 6.57098 4.72099 6.74453 4.93516 6.87378C5.14933 6.99932 5.3912 7.0621 5.66076 7.0621Z" fill="#3172B7"/>
<path d="M15.1157 7.75446C14.4288 8.24188 13.6774 8.4856 12.8613 8.4856C12.2557 8.4856 11.7111 8.35636 11.2274 8.09787C10.7473 7.8357 10.367 7.48121 10.0863 7.0344C9.80939 6.5876 9.67092 6.08356 9.67092 5.52228C9.67092 4.98686 9.79647 4.50867 10.0476 4.08771C10.3024 3.66675 10.6476 3.33442 11.0833 3.09071C11.5191 2.847 12.0139 2.72514 12.5678 2.72514C13.1401 2.72514 13.6442 2.85992 14.0799 3.12948C14.5156 3.39535 14.8553 3.7683 15.099 4.24834C15.3428 4.72468 15.4646 5.27673 15.4646 5.90447V6.08171H11.3824C11.4489 6.29958 11.5578 6.49159 11.7092 6.65776C11.8606 6.82023 12.049 6.94947 12.2742 7.04548C12.4995 7.14149 12.7579 7.18949 13.0497 7.18949C13.6146 7.18949 14.1408 7.00671 14.6282 6.64114L15.1157 7.75446ZM11.3104 5.27303H13.9968C13.9673 5.03301 13.8916 4.82254 13.7697 4.6416C13.6515 4.45697 13.4946 4.31296 13.2989 4.20956C13.1069 4.10617 12.8909 4.05448 12.6509 4.05448C12.4071 4.05448 12.1893 4.10802 11.9973 4.2151C11.8089 4.32219 11.6557 4.4662 11.5375 4.64714C11.4194 4.82808 11.3437 5.03671 11.3104 5.27303Z" fill="#3172B7"/>
<path d="M21.4134 8.37482H20.0287L19.9456 7.71569C19.7425 7.9594 19.4914 8.14957 19.1923 8.2862C18.8932 8.41913 18.5646 8.4856 18.2064 8.4856C17.8186 8.4856 17.4734 8.41174 17.1706 8.26404C16.8678 8.11264 16.6296 7.90586 16.4561 7.64368C16.2825 7.37782 16.1957 7.07687 16.1957 6.74084C16.1957 6.38635 16.2899 6.07433 16.4782 5.80477C16.6666 5.53521 16.925 5.32473 17.2537 5.17333C17.586 5.01824 17.9627 4.9407 18.3836 4.9407C18.631 4.9407 18.8784 4.96839 19.1258 5.02378C19.3769 5.07917 19.6096 5.15672 19.8237 5.25642V5.11241C19.8237 4.89085 19.761 4.70068 19.6354 4.5419C19.5135 4.37942 19.3437 4.25388 19.1258 4.16525C18.9117 4.07663 18.6716 4.03232 18.4058 4.03232C18.151 4.03232 17.898 4.07294 17.6469 4.15418C17.3995 4.23541 17.1706 4.35727 16.9601 4.51974L16.5281 3.30672C16.901 3.11471 17.2777 2.9707 17.658 2.87469C18.042 2.77499 18.4132 2.72514 18.7713 2.72514C19.3105 2.72514 19.7776 2.83222 20.1727 3.0464C20.5678 3.25687 20.8724 3.55597 21.0866 3.9437C21.3045 4.32773 21.4134 4.78376 21.4134 5.31181V8.37482ZM18.5553 7.2615C18.7658 7.2615 18.967 7.21534 19.1591 7.12303C19.3511 7.03071 19.5062 6.90516 19.6243 6.74638C19.7462 6.5876 19.8108 6.4122 19.8182 6.22019V6.18141C19.6557 6.07064 19.4748 5.98571 19.2754 5.92662C19.0797 5.86385 18.8803 5.83246 18.6772 5.83246C18.3744 5.83246 18.127 5.89893 17.935 6.03186C17.7429 6.1648 17.6469 6.3365 17.6469 6.54698C17.6469 6.68361 17.6857 6.80731 17.7633 6.91809C17.8445 7.02517 17.9534 7.1101 18.0901 7.17288C18.2267 7.23196 18.3818 7.2615 18.5553 7.2615Z" fill="#3172B7"/>
<path d="M27.7721 8.37482H22.3107V7.57722L25.0746 4.25941H22.4602V2.83592H27.5782V3.51166L24.709 6.95132H27.7721V8.37482Z" fill="#3172B7"/>
<path d="M29.4633 3.33318V0.102157H30.6415C30.9187 0.102157 31.1585 0.148828 31.3609 0.242168C31.5649 0.334073 31.7214 0.465468 31.8305 0.636353C31.9411 0.805803 31.9964 1.00756 31.9964 1.24163C31.9964 1.4757 31.9411 1.6789 31.8305 1.85122C31.7214 2.0221 31.5663 2.15422 31.3653 2.24756C31.1642 2.3409 30.9266 2.38757 30.6523 2.38757H30.3162V3.33318H29.4633ZM30.3162 1.64443H30.5575C30.7413 1.64443 30.8813 1.60997 30.9775 1.54104C31.0752 1.47211 31.124 1.37231 31.124 1.24163C31.124 1.11383 31.0752 1.01618 30.9775 0.948686C30.8813 0.879757 30.7413 0.845293 30.5575 0.845293H30.3162V1.64443Z" fill="#E16C37"/>
<path d="M35.2231 3.33318H34.2796L33.6636 2.26479H33.2802V3.33318H32.4272V0.102157H33.7282C34.0082 0.102157 34.2466 0.144519 34.4433 0.229244C34.6401 0.313969 34.7901 0.437466 34.8935 0.599735C34.9984 0.760568 35.0508 0.955148 35.0508 1.18347C35.0508 1.39744 35.0048 1.58197 34.9129 1.73706C34.821 1.89215 34.6882 2.01421 34.5144 2.10324L35.2231 3.33318ZM33.2802 1.60782H33.6614C33.8323 1.60782 33.9608 1.57622 34.047 1.51304C34.1346 1.44842 34.1784 1.35292 34.1784 1.22655C34.1784 1.10019 34.1346 1.00541 34.047 0.942224C33.9608 0.877603 33.8323 0.845293 33.6614 0.845293H33.2802V1.60782Z" fill="#E16C37"/>
<path d="M37.11 3.3978C36.863 3.3978 36.6347 3.35616 36.425 3.27287C36.2168 3.18815 36.0352 3.07039 35.8801 2.91961C35.7264 2.76739 35.6072 2.58933 35.5225 2.38542C35.4378 2.1815 35.3954 1.95892 35.3954 1.71767C35.3954 1.47642 35.4378 1.25384 35.5225 1.04992C35.6072 0.846011 35.7264 0.668664 35.8801 0.517882C36.0352 0.365665 36.2168 0.247912 36.425 0.164624C36.6347 0.079899 36.8637 0.0375366 37.1122 0.0375366C37.3592 0.0375366 37.5868 0.079899 37.795 0.164624C38.0032 0.247912 38.1834 0.365665 38.3357 0.517882C38.4893 0.668664 38.6085 0.846011 38.6932 1.04992C38.7779 1.25384 38.8203 1.47642 38.8203 1.71767C38.8203 1.95892 38.7779 2.1815 38.6932 2.38542C38.6085 2.58933 38.4893 2.76739 38.3357 2.91961C38.1834 3.07039 38.0032 3.18815 37.795 3.27287C37.5868 3.35616 37.3584 3.3978 37.11 3.3978ZM37.11 2.65467C37.2292 2.65467 37.3398 2.63097 37.4417 2.58358C37.5437 2.5362 37.632 2.47014 37.7067 2.38542C37.7828 2.29925 37.8417 2.19945 37.8833 2.08601C37.9264 1.97256 37.9479 1.84978 37.9479 1.71767C37.9479 1.58556 37.9264 1.46278 37.8833 1.34933C37.8417 1.23589 37.7828 1.1368 37.7067 1.05208C37.632 0.965918 37.5437 0.899143 37.4417 0.851755C37.3398 0.804367 37.2292 0.780672 37.11 0.780672C36.9908 0.780672 36.8795 0.804367 36.7761 0.851755C36.6742 0.899143 36.5852 0.965918 36.509 1.05208C36.4329 1.1368 36.3733 1.23589 36.3303 1.34933C36.2886 1.46278 36.2678 1.58556 36.2678 1.71767C36.2678 1.84978 36.2886 1.97256 36.3303 2.08601C36.3733 2.19945 36.4329 2.29925 36.509 2.38542C36.5852 2.47014 36.6742 2.5362 36.7761 2.58358C36.8795 2.63097 36.9908 2.65467 37.11 2.65467Z" fill="#E16C37"/>
</svg>
