<svg width="300" height="279" viewBox="0 0 300 279" fill="none" xmlns="http://www.w3.org/2000/svg">
<path d="M45.9499 278.208C45.9499 278.208 5.04978 238.13 0.673586 177.765C-4.76973 102.678 23.0212 62.895 75.2199 54.8652C91.2395 52.3999 112.444 35.7192 134.52 15.2192C179.071 -26.1591 305.605 17.7726 276.447 153.614C262.733 217.516 318.823 213.941 293.21 278.345L45.9499 278.208Z" fill="#EBF3FA"/>
<path d="M198.74 250.272C198.74 250.272 193.725 237.233 204.019 233.742C204.019 233.742 211.154 232.273 215.839 234.264C215.839 234.264 205.012 243.229 206.805 245.14C208.598 247.052 218.147 234.281 218.147 234.281C218.147 234.281 231.971 237.734 235.534 241.327C235.534 241.327 220.791 246.616 222.998 248.026C225.207 249.438 240.807 244.648 240.807 244.648C240.807 244.648 252.489 251.184 249.13 258.534C245.771 265.886 240.653 266.705 238.843 265.834C237.031 264.963 227.507 256.843 226.72 258.301C225.931 259.758 230.771 267.157 235.33 269.045C235.33 269.045 223.127 275.597 218.292 270.737C213.457 265.876 214.53 261.275 211.488 258.326C208.444 255.375 205.341 254.277 206.24 256.503C207.139 258.727 213.13 262.709 213.901 267.121C214.672 271.533 215.654 274.674 209.95 271.624C204.242 268.574 196.009 260.681 197.374 255.477C198.74 250.272 198.74 250.272 198.74 250.272Z" fill="#599DAD"/>
<path d="M242.947 256.567C242.947 256.567 209.631 243.262 198.739 250.272C198.739 250.272 195.334 254.627 188.658 257.322L187.1 259.198C187.1 259.198 195.147 255.106 197.373 255.477C197.373 255.477 198.352 242.344 242.947 256.567Z" fill="#599DAD"/>
<path d="M188.658 257.322C188.658 257.322 179.503 260.107 175.596 269.509L176.869 270.095C176.869 270.095 182.705 261.011 188.267 258.625C193.829 256.237 188.658 257.322 188.658 257.322Z" fill="#599DAD"/>
<path d="M120.217 201.255C120.217 201.255 126.711 195.463 122.004 190.594C122.004 190.594 118.47 187.749 115.308 187.516C115.308 187.516 118.75 195.567 117.213 196.115C115.675 196.661 114.024 186.867 114.024 186.867C114.024 186.867 105.384 184.839 102.386 185.815C102.386 185.815 109.046 192.946 107.421 193.099C105.796 193.251 98.521 186.152 98.521 186.152C98.521 186.152 90.187 186.443 89.9527 191.473C89.7185 196.501 92.3196 198.413 93.5711 198.446C94.8228 198.481 102.411 196.696 102.433 197.728C102.454 198.76 97.6646 201.48 94.6012 201.226C94.6012 201.226 99.4933 208.333 103.557 207.019C107.62 205.704 108.336 202.849 110.862 202.083C113.388 201.317 115.419 201.592 114.287 202.568C113.156 203.544 108.704 204.043 107.019 206.267C105.334 208.492 103.895 209.95 107.925 209.887C111.954 209.824 118.763 207.798 119.491 204.527C120.217 201.255 120.217 201.255 120.217 201.255Z" fill="#599DAD"/>
<path d="M93.938 192.145C93.938 192.145 116.182 194.269 120.217 201.255C120.217 201.255 120.863 204.637 123.792 208.032L124.121 209.515C124.121 209.515 120.83 204.956 119.491 204.527C119.491 204.527 122.691 196.975 93.938 192.145Z" fill="#599DAD"/>
<path d="M123.792 208.032C123.792 208.032 128.07 212.184 127.555 218.505L126.683 218.465C126.683 218.465 126.039 211.773 123.638 208.865C121.238 205.958 123.792 208.032 123.792 208.032Z" fill="#599DAD"/>
<path d="M189.552 218.194C189.552 218.194 167.418 203.023 179.905 186.288C179.905 186.288 189.598 176.197 199.176 174.243C199.176 174.243 191.809 200.219 196.726 201.29C201.643 202.364 202.851 171.755 202.851 171.755C202.851 171.755 228.481 162.167 238.034 163.974C238.034 163.974 220.463 188.397 225.492 188.225C230.524 188.053 249.989 163.488 249.989 163.488C249.989 163.488 275.595 161.107 278.283 176.397C280.973 191.685 273.768 198.554 269.951 199.149C266.136 199.745 242.228 197.264 242.567 200.43C242.907 203.594 258.621 210.034 267.892 208.053C267.892 208.053 255.717 231.711 242.775 229.286C229.828 226.858 226.52 218.408 218.493 217.054C210.466 215.7 204.362 217.341 208.206 219.883C212.051 222.426 225.862 222.203 231.887 228.344C237.915 234.486 242.89 238.384 230.54 239.773C218.188 241.162 196.567 237.635 193.061 227.915C189.552 218.194 189.552 218.194 189.552 218.194Z" fill="#86D1CD"/>
<path d="M266.357 180.018C266.357 180.018 199.155 195.241 189.554 218.193C189.554 218.193 188.905 228.792 181.277 240.325L180.855 244.988C180.855 244.988 189.132 229.753 193.061 227.915C193.061 227.915 180.307 206.071 266.357 180.018Z" fill="#6BB7BF"/>
<path d="M181.279 240.324C181.279 240.324 169.825 254.701 173.879 273.833L176.533 273.371C176.533 273.371 175.875 252.645 182.076 242.811C188.279 232.979 181.279 240.324 181.279 240.324Z" fill="#6BB7BF"/>
<path d="M104.695 253.068C104.695 253.068 121.55 239.918 110.8 227.224C110.8 227.224 102.598 219.674 94.8841 218.593C94.8841 218.593 102.019 238.886 98.1607 239.979C94.3027 241.074 91.8409 216.795 91.8409 216.795C91.8409 216.795 70.9889 210.427 63.4809 212.333C63.4809 212.333 78.6528 230.892 74.644 231.003C70.6355 231.113 53.9507 212.534 53.9507 212.534C53.9507 212.534 33.4734 211.898 32.0852 224.188C30.6972 236.477 36.7637 241.586 39.8266 241.872C42.8897 242.157 61.7814 239.012 61.6661 241.545C61.5512 244.078 49.3704 249.97 41.9022 248.85C41.9022 248.85 52.7442 267.066 62.9186 264.5C73.0929 261.936 75.3096 255.054 81.626 253.583C87.9424 252.113 92.8769 253.117 89.9446 255.329C87.0123 257.538 76.0185 258.038 71.5282 263.219C67.0381 268.399 63.2733 271.743 73.1621 272.24C83.0509 272.739 100.071 268.873 102.383 260.971C104.695 253.068 104.695 253.068 104.695 253.068Z" fill="#599DAD"/>
<path d="M105.092 252.569C105.092 252.569 117.663 260.081 120.001 275.485L117.894 275.885C117.894 275.885 112.575 260.243 105.194 254.648C97.8129 249.054 105.092 252.569 105.092 252.569Z" fill="#599DAD"/>
<path d="M109.262 242.897C109.262 242.897 118.3 235.611 112.352 228.813C112.352 228.813 107.833 224.784 103.635 224.263C103.635 224.263 107.686 235.22 105.601 235.847C103.516 236.475 101.967 223.314 101.967 223.314C101.967 223.314 90.5901 220.039 86.5301 221.137C86.5301 221.137 94.9295 231.083 92.754 231.178C90.5784 231.273 81.3575 221.331 81.3575 221.331C81.3575 221.331 70.2336 221.164 69.5867 227.848C68.9401 234.533 72.2784 237.254 73.9439 237.383C75.6095 237.512 85.8397 235.639 85.7992 237.015C85.7589 238.392 79.1964 241.697 75.1316 241.153C75.1316 241.153 81.1771 250.951 86.6791 249.469C92.1812 247.986 93.3247 244.231 96.7415 243.378C100.158 242.524 102.846 243.028 101.273 244.253C99.7005 245.478 93.7356 245.846 91.3428 248.698C88.9498 251.548 86.9347 253.398 92.3083 253.581C97.6821 253.766 106.89 251.519 108.076 247.209C109.262 242.897 109.262 242.897 109.262 242.897Z" fill="#86D1CD"/>
<path d="M74.8522 229.009C74.8522 229.009 104.35 233.321 109.262 242.897C109.262 242.897 109.897 247.448 113.575 252.166L113.913 254.163C113.913 254.163 109.832 247.869 108.076 247.209C108.076 247.209 112.843 237.359 74.8522 229.009Z" fill="#6BB7BF"/>
<path d="M113.575 252.166C113.575 252.166 118.998 257.982 117.892 266.371L116.732 266.26C116.732 266.26 116.319 257.299 113.314 253.266C110.309 249.233 113.575 252.166 113.575 252.166Z" fill="#6BB7BF"/>
<path d="M130.787 210.095C130.787 210.095 130.787 207.421 131.168 206.533C131.549 205.645 132.945 202.028 132.945 202.028H138.403C138.403 202.028 139.419 205.328 139.483 206.408C139.546 207.486 139.483 210.095 139.483 210.095H130.787Z" fill="#233862"/>
<path d="M165.444 210.095C165.444 210.095 165.444 207.421 165.062 206.533C164.683 205.645 163.286 202.028 163.286 202.028H157.828C157.828 202.028 156.812 205.328 156.748 206.408C156.685 207.486 156.748 210.095 156.748 210.095H165.444Z" fill="#233862"/>
<path d="M131.472 117.554C131.472 117.554 132.427 146.717 130.999 163.354C129.571 179.993 131.009 203.15 131.009 203.15C131.009 203.15 135.576 205.668 140.527 203.15C140.527 203.15 145.956 171.005 145.922 163.354C145.885 155.208 151.83 118.826 151.83 118.826L131.472 117.554Z" fill="#F99746"/>
<path d="M165.246 203.148C165.246 203.148 160.68 205.668 155.729 203.148C155.729 203.148 150.301 171.005 150.336 163.354C150.351 159.914 149.3 151.435 148.08 142.79C146.409 130.965 144.426 118.827 144.426 118.827L164.762 115.151C164.762 115.151 163.829 146.717 165.257 163.354C166.686 179.993 165.246 203.148 165.246 203.148Z" fill="#F99746"/>
<path d="M150.336 163.354C150.351 159.914 149.3 151.434 148.08 142.79C149.345 137.628 152.43 132.657 152.43 132.657C156.333 143.605 150.336 163.354 150.336 163.354Z" fill="#ED7D2B"/>
<path d="M132.806 67.4111C132.806 67.4111 128.312 67.0775 125.655 67.9577C122.997 68.8395 105.36 53.667 101.45 54.278C101.45 54.278 97.9415 55.9656 97.8813 59.9652C97.8813 59.9652 111.827 79.1141 120.861 84.0533C129.894 88.9908 130.512 102.651 130.512 102.651L135.548 98.8823L132.806 67.4111Z" fill="#2A4E96"/>
<path d="M96.2402 35.3059C96.3368 35.5057 105.591 55.756 105.591 55.756C105.591 55.756 100.904 60.7877 97.8813 59.9653L92.3262 35.0796L96.2402 35.3059Z" fill="#F1B994"/>
<path d="M96.2404 35.3043C96.2404 35.3043 96.1926 32.0542 95.8208 31.1774C95.2811 29.9042 95.418 28.3791 93.7348 28.663C92.052 28.9485 90.1645 30.1931 90.1148 30.7558C90.0483 31.5117 90.5555 34.1135 91.1349 34.7097C91.7142 35.3077 92.7883 36.2349 92.7883 36.2349L96.2404 35.3043Z" fill="#F1B994"/>
<path d="M96.2397 35.3062C96.2397 35.3062 97.0447 33.3205 97.4766 32.7625C97.9084 32.2046 95.8746 29.1247 95.6934 29.0359C95.6934 29.0359 94.9947 29.3577 95.7611 30.7987C96.2568 31.7304 95.5538 32.4458 95.5538 32.4458L96.2397 35.3062Z" fill="#F1B994"/>
<path d="M143.823 65.5055C143.823 65.5055 147.728 63.2564 150.504 62.8964C153.28 62.5364 162.594 41.2176 166.382 40.0716C166.382 40.0716 170.274 40.0716 172.064 43.65C172.064 43.65 167.802 66.9521 161.804 75.3194C155.807 83.6867 160.627 97.0229 160.627 97.0229L155.001 95.0513L143.823 65.5055Z" fill="#2A4E96"/>
<path d="M132.529 62.1419C132.529 62.1419 125.98 63.0166 125.105 59.3056C124.23 55.5946 118.366 53.8551 119.362 50.5615C120.583 46.5225 118.192 43.3002 120.136 40.3761C122.279 37.1555 125.899 38.0203 127.369 36.1018C128.84 34.185 131.796 32.1207 135.344 33.4974C138.891 34.8758 141.122 33.3682 143.564 34.8742C146.263 36.5375 145.875 39.3324 148.046 40.4109C150.035 41.3983 149.986 45.111 149.053 48.2918C148.379 50.5864 151.188 52.099 147.436 55.2848C145.874 56.6118 146.72 59.0654 141.497 60.4819C139.143 61.1197 133.751 60.9607 132.529 62.1419Z" fill="#233862"/>
<path d="M132.109 58.7844C132.109 58.7844 133.002 64.6698 132.738 67.4292L127.575 72.6606L150.504 71.873L143.823 65.5054C143.823 65.5054 140.766 57.9571 141.072 54.8988C141.377 51.8422 132.109 58.7844 132.109 58.7844Z" fill="#F1B994"/>
<path d="M132.226 59.5985C132.225 59.5969 134.775 63.5188 138.081 62.8104C141.387 62.102 141.448 58.2048 141.448 58.2048L132.226 59.5985Z" fill="#DC9E76"/>
<path d="M137.398 61.2401C134.982 61.643 129.956 59.2568 129.222 55.2853L128.076 49.0895C127.807 47.6396 128.599 46.2657 129.835 46.0378L139.021 44.3386C140.258 44.1107 141.488 45.1098 141.755 46.5597L142.837 52.4054C143.607 56.5684 140.168 60.7777 137.398 61.2401Z" fill="#F1B994"/>
<path d="M164.82 116.083C164.82 116.083 156.272 119.44 148.184 120.936C144.657 121.588 140.753 121.909 137.625 122.065C134.169 122.242 131.662 122.216 131.662 122.216C131.662 122.216 129.894 122.706 129.316 113.649C128.876 106.754 128.823 103.22 127.34 97.0229C126.524 93.6113 125.626 89.08 123.873 86.2744C119.934 79.9663 124.515 71.1118 126.068 70.0945C126.068 70.0945 128.399 68.7008 132.738 67.4293C132.754 67.5152 136.015 70.7931 139.138 70.651C140.893 69.5513 142.261 68.6381 143.823 65.5055C146.503 65.3255 149.461 65.3156 152.671 65.5732C152.671 65.5732 153.247 66.9075 158.919 90.8519C161.167 100.336 167.378 115.642 164.82 116.083Z" fill="#2A4E96"/>
<path d="M128.505 51.7812C128.505 51.7812 129.268 46.1915 134.891 45.9735C140.515 45.7572 141.205 46.8388 142.039 48.0889C142.872 49.3389 142.827 42.8112 142.827 42.8112L136.012 42.0879C136.012 42.0879 128.624 44.5104 128.041 45.8381C127.443 47.1971 127.61 47.2615 127.61 47.2615L128.505 51.7812Z" fill="#233862"/>
<path d="M130.568 51.5155C130.052 51.6096 129.637 51.8821 129.428 52.2603C129.243 52.5988 129.234 53.0001 129.404 53.4245C129.729 54.2353 130.462 54.6564 131.582 54.6762C132.434 54.6911 133.2 54.4566 133.208 54.4533L133.22 54.45C134.02 54.303 134.503 53.73 134.736 52.65C134.788 52.4072 134.929 51.5882 134.534 51.1819C134.316 50.9557 133.959 50.888 133.475 50.9772L130.568 51.5155ZM132.734 54.7637C131.789 54.9371 129.858 55.0775 129.224 53.4955C129.031 53.0166 129.043 52.5575 129.258 52.1678C129.495 51.7368 129.96 51.4297 130.533 51.324L133.439 50.7856C133.992 50.6832 134.407 50.7708 134.674 51.0465C135.124 51.5089 135 52.3511 134.925 52.6913C134.674 53.8555 134.144 54.4747 133.26 54.6399C133.223 54.6514 133.026 54.7092 132.734 54.7637Z" fill="#2C3A64"/>
<path d="M137.391 50.2519C136.907 50.3427 136.598 50.5343 136.474 50.8216C136.251 51.3434 136.676 52.0585 136.811 52.2649C137.417 53.1913 138.071 53.5529 138.872 53.4043L138.884 53.4026C138.892 53.4026 139.691 53.3482 140.482 53.0294C141.521 52.61 142.054 51.9544 142.069 51.0809C142.076 50.6251 141.924 50.2535 141.63 50.0042C141.3 49.7251 140.814 49.6194 140.299 49.7152L137.391 50.2519ZM139.437 53.5232C139.146 53.576 138.94 53.5942 138.902 53.5975C138.017 53.7577 137.302 53.368 136.649 52.3722C136.458 52.0799 136.043 51.3385 136.296 50.7457C136.446 50.3939 136.803 50.1627 137.356 50.062L140.263 49.5237C140.836 49.418 141.381 49.5385 141.755 49.8556C142.096 50.1429 142.271 50.5673 142.262 51.0842C142.236 52.7884 140.383 53.3481 139.437 53.5232Z" fill="#2C3A64"/>
<path d="M134.605 51.9593C134.562 51.9676 134.516 51.9511 134.489 51.9131C134.451 51.8603 134.465 51.7876 134.518 51.7496C134.56 51.7199 135.606 50.9983 136.715 51.3467C136.777 51.3665 136.811 51.4309 136.791 51.492C136.773 51.5531 136.707 51.5878 136.646 51.568C135.644 51.2542 134.661 51.9329 134.651 51.9412C134.636 51.9511 134.622 51.956 134.605 51.9593Z" fill="#2C3A64"/>
<path d="M134.156 57.574C134.156 57.574 135.989 57.2339 136.491 57.1414C136.981 57.0522 138.89 56.6972 138.89 56.6972C138.89 56.6972 138.213 58.5252 136.81 58.7498C135.406 58.9744 134.156 57.574 134.156 57.574Z" fill="#EBF3FA"/>
<path d="M162.848 20.7176C162.848 20.9401 163.291 43.2012 163.291 43.2012C163.291 43.2012 169.697 45.7009 172.065 43.6497L166.276 18.8159L162.848 20.7176Z" fill="#F1B994"/>
<path d="M162.848 20.7178C162.848 20.7178 161.481 17.7694 161.436 16.8173C161.369 15.4362 160.585 14.1207 162.225 13.6473C163.865 13.1739 166.105 13.4771 166.395 13.9629C166.782 14.6153 167.454 17.179 167.191 17.9679C166.925 18.7569 166.362 20.06 166.362 20.06L162.848 20.7178Z" fill="#F1B994"/>
<path d="M162.847 20.7188C162.847 20.7188 161.26 19.2785 160.629 18.9629C159.996 18.6474 160.494 14.9895 160.62 14.8308C160.62 14.8308 161.389 14.8185 161.324 16.4491C161.28 17.5033 162.225 17.8435 162.225 17.8435L162.847 20.7188Z" fill="#F1B994"/>
<path d="M82.133 46.6053L74.3796 31.4548C74.2485 31.1989 74.35 30.8837 74.6063 30.7532L83.7162 26.09C83.9726 25.9595 84.2869 26.0611 84.418 26.317L92.1714 41.4676C92.3027 41.7235 92.2012 42.0369 91.9447 42.1691L82.835 46.8307C82.5783 46.9629 82.2642 46.8612 82.133 46.6053Z" fill="#F99746"/>
<path d="M100.062 33.77C99.9431 33.5354 99.9146 33.2792 99.9695 33.048C100.088 32.5456 100.637 32.0847 101.56 32.2611C102.148 32.3742 102.967 32.9415 104.003 33.6602C105.798 34.9046 108.256 36.6082 109.814 36.0126C110.96 35.5734 111.621 34.69 111.458 33.8149C111.302 32.9814 110.279 32.0115 107.906 32.0165C107.625 32.0182 107.396 31.7903 107.396 31.5091C107.395 31.2263 107.622 30.9984 107.904 30.9984C110.9 30.9901 112.222 32.3526 112.459 33.6286C112.715 35.0028 111.799 36.3437 110.178 36.9642C108.117 37.7528 105.514 35.9477 103.423 34.497C102.598 33.9247 101.745 33.3341 101.369 33.2626C101.091 33.2094 100.972 33.2726 100.957 33.2909C100.963 33.3092 101.026 33.404 101.225 33.4606C101.495 33.5371 101.652 33.8199 101.575 34.0894C101.499 34.3606 101.217 34.5187 100.946 34.4405C100.501 34.314 100.211 34.0595 100.062 33.77Z" fill="#E6A330"/>
<path d="M95.3557 24.5747C95.4753 24.8084 95.6668 24.9819 95.8869 25.0722C96.3639 25.2705 97.0582 25.0952 97.455 24.2418C97.7077 23.7 97.7261 22.7031 97.7493 21.4424C97.7897 19.2592 97.8449 16.2686 99.2403 15.355C100.267 14.6822 101.369 14.6627 101.984 15.3054C102.569 15.9198 102.758 17.3169 101.365 19.238C101.2 19.4664 101.251 19.7851 101.478 19.9498C101.706 20.1145 102.025 20.0649 102.19 19.8365C103.949 17.4107 103.617 15.5409 102.721 14.6025C101.756 13.5914 100.133 13.5507 98.6815 14.5016C96.8358 15.7127 96.7774 18.8786 96.7305 21.4247C96.712 22.4287 96.6927 23.4663 96.5313 23.8115C96.4121 24.0683 96.2906 24.1285 96.2671 24.1285C96.2559 24.1143 96.2156 24.0063 96.2859 23.8133C96.3817 23.5495 96.2451 23.2573 95.9806 23.1599C95.7161 23.0643 95.4239 23.2007 95.3279 23.4663C95.1698 23.9018 95.2072 24.2843 95.3557 24.5747Z" fill="#E6A330"/>
<path d="M90.9887 34.0305L89.7585 31.6254C89.9923 32.083 95.3663 29.4315 95.1327 28.974L96.3627 31.3774C96.0704 30.8059 90.6964 33.459 90.9887 34.0305Z" fill="#E6A330"/>
<path d="M113.778 29.2287C105.529 33.4494 97.3379 33.9355 95.4833 30.3115C93.6288 26.6875 98.8128 20.3275 107.062 16.1051C108.192 18.3128 112.137 26.0224 113.778 29.2287Z" fill="#FFB93E"/>
<path d="M85.2239 27.8893C86.4846 27.2434 88.8818 29.4073 90.5782 32.7215C92.275 36.0374 92.628 39.2471 91.3671 39.8931C90.3339 37.8742 86.7248 30.8224 85.2239 27.8893Z" fill="#FFB93E"/>
<path d="M113.27 29.7996L106.301 16.1838C106.134 15.858 106.263 15.4583 106.589 15.2928C106.914 15.1255 107.313 15.254 107.48 15.5798L114.449 29.1974C114.615 29.5232 114.486 29.9211 114.161 30.0884C113.835 30.254 113.436 30.1254 113.27 29.7996Z" fill="#E6A330"/>
<path d="M85.2969 40.4097L81.2545 32.5107L83.7793 31.2191L87.8217 39.1181L85.2969 40.4097Z" fill="#FFB93E"/>
<path d="M92.066 29.2676C93.1143 28.8177 94.5845 28.5408 94.9679 28.9755C95.3513 29.4103 94.3715 31.2199 93.3695 31.8477C92.8913 32.1482 90.4733 32.306 90.1681 31.6413C89.9271 31.1175 89.913 30.1926 92.066 29.2676Z" fill="#F1B994"/>
<path d="M180.21 278.156H115.949V211.928H180.21V278.156Z" fill="#E6A330"/>
<path d="M179.346 218.124H116.812C114.502 218.124 112.63 216.251 112.63 213.941C112.63 211.631 114.502 209.758 116.812 209.758H179.346C181.657 209.758 183.529 211.631 183.529 213.941C183.529 216.251 181.657 218.124 179.346 218.124Z" fill="#FFB93E"/>
<path d="M208.338 31.9356C208.338 31.9356 206.419 33.3796 204.207 33.2584C202.564 33.1704 200.882 31.7315 200.814 31.6336L199.618 33.9605C199.618 33.9605 202.682 35.6285 205.214 35.0144C205.988 34.8268 207.221 33.9903 207.768 33.3812C208.369 32.709 208.338 31.9356 208.338 31.9356Z" fill="#6BB7BF"/>
<path d="M208.062 27.2214L211.275 25.7119C211.275 25.7119 211.142 32.5384 205.613 34.8789C205.613 34.8789 208.951 30.0554 208.062 27.2214Z" fill="#86D1CD"/>
<path d="M97.1935 100.999C97.1935 100.999 98.0771 104.256 96.7669 107.083C95.7945 109.18 93.0394 110.625 92.8774 110.661L95.2896 113.439C95.2896 113.439 99.0654 110.308 99.584 106.683C99.7428 105.573 99.2938 103.527 98.7831 102.497C98.2203 101.361 97.1935 100.999 97.1935 100.999Z" fill="#6BB7BF"/>
<path d="M90.8933 98.8972L90.5979 93.9184C90.5979 93.9184 99.4406 97.6505 99.6148 106.087C99.6148 106.087 95.0571 99.2176 90.8933 98.8972Z" fill="#86D1CD"/>
<path d="M201.767 143.792C201.767 143.792 198.786 142.562 197.409 139.921C196.388 137.961 196.9 135.032 196.968 134.888L193.457 135.094C193.457 135.094 193.626 139.779 196.068 142.286C196.816 143.054 198.627 143.908 199.706 144.122C200.895 144.358 201.767 143.792 201.767 143.792Z" fill="#6BB7BF"/>
<path d="M207.033 140.246L210.975 142.927C210.975 142.927 202.99 147.446 196.502 142.657C196.502 142.657 204.363 143.214 207.033 140.246Z" fill="#86D1CD"/>
<path d="M249.793 104.854C249.793 104.854 254.461 101.611 257.963 106.445L261.81 104.789C261.81 104.789 259.912 101.789 252.455 103.119C247.574 103.99 249.793 104.854 249.793 104.854Z" fill="#5685D8"/>
<path d="M245.199 108.023C245.199 108.023 246.469 102.779 256.039 102.779C256.039 102.779 252.455 103.119 249.652 107.775L245.199 108.023Z" fill="#739AF0"/>
<path d="M71.9351 157.519C71.9351 157.519 67.1229 160.541 63.8475 155.551L59.9274 157.026C59.9274 157.026 61.6864 160.11 69.1975 159.128C74.1117 158.485 71.9351 157.519 71.9351 157.519Z" fill="#5685D8"/>
<path d="M76.6726 154.566C76.6726 154.566 75.1603 159.746 65.5992 159.302C65.5992 159.302 69.1975 159.128 72.2127 154.608L76.6726 154.566Z" fill="#739AF0"/>
<path d="M209.878 75.0004C209.878 75.0004 207.3 73.3722 207.03 71.4055C207.03 71.4055 204.519 71.5409 203.976 72.355C203.976 72.355 205.13 75.6114 206.486 76.2224C206.486 76.2224 209.54 76.4255 209.878 75.0004Z" fill="#ED7D2B"/>
<path d="M43.1948 100.618C43.1948 100.618 40.6171 98.9896 40.346 97.0228C40.346 97.0228 37.8361 97.1582 37.2935 97.9723C37.2935 97.9723 38.4466 101.227 39.8032 101.838C39.8032 101.838 42.8557 102.041 43.1948 100.618Z" fill="#ED7D2B"/>
<path d="M28.8523 193.359C28.8523 193.359 31.4989 191.688 31.7775 189.668C31.7775 189.668 34.3544 189.807 34.9116 190.642C34.9116 190.642 33.7276 193.985 32.3347 194.612C32.3347 194.612 29.2006 194.82 28.8523 193.359Z" fill="#F99746"/>
<path d="M160.232 253.885H135.926C131.042 253.885 127.082 249.927 127.082 245.042C127.082 240.157 131.042 236.198 135.926 236.198H160.232C165.117 236.198 169.077 240.157 169.077 245.042C169.077 249.927 165.117 253.885 160.232 253.885Z" fill="#FFB93E"/>
</svg>
