<svg width="307" height="298" viewBox="0 0 307 298" fill="none" xmlns="http://www.w3.org/2000/svg">
<g filter="url(#filter0_d_5468_544)">
<path d="M218.864 87.497C209.811 78.4436 194.93 78.4437 185.877 87.497C178.464 94.9097 177.101 106.28 181.827 115.109L171.74 125.197C171.106 125.812 170.602 126.548 170.255 127.36C169.908 128.172 169.727 129.045 169.721 129.928C169.714 130.812 169.884 131.687 170.219 132.504C170.554 133.322 171.048 134.064 171.673 134.688C172.297 135.313 173.039 135.807 173.857 136.142C174.674 136.477 175.549 136.647 176.433 136.64C177.316 136.634 178.189 136.453 179.001 136.106C179.813 135.759 180.549 135.255 181.164 134.621L191.252 124.534C200.081 129.26 211.451 127.897 218.864 120.484C227.917 111.431 227.917 96.5503 218.864 87.497ZM209.439 96.9219C213.399 100.882 213.399 107.1 209.439 111.059C205.48 115.019 199.261 115.019 195.302 111.059C191.342 107.1 191.342 100.881 195.302 96.9219C199.261 92.9622 205.479 92.9622 209.439 96.9219ZM148.177 59.2223C139.124 50.1689 124.243 50.1689 115.19 59.2223C106.137 68.2755 106.137 83.156 115.19 92.2094C118.019 95.0386 121.372 96.9654 124.983 98.0263L125.057 108.703C125.044 109.589 125.209 110.469 125.54 111.291C125.872 112.113 126.364 112.86 126.988 113.489C127.612 114.119 128.356 114.617 129.175 114.956C129.994 115.294 130.872 115.466 131.758 115.461C132.644 115.457 133.521 115.275 134.336 114.927C135.151 114.58 135.889 114.073 136.506 113.437C137.123 112.801 137.607 112.048 137.929 111.222C138.252 110.397 138.406 109.515 138.384 108.629L138.311 98.1C141.922 97.039 145.348 95.0385 148.177 92.2094C157.231 83.1561 157.231 68.2756 148.177 59.2223ZM247.139 158.184C238.085 149.13 223.205 149.13 214.152 158.184C211.322 161.013 209.322 164.439 208.261 168.05L197.732 167.977C196.846 167.955 195.964 168.109 195.139 168.432C194.313 168.754 193.56 169.238 192.924 169.855C192.288 170.472 191.781 171.21 191.434 172.025C191.086 172.84 190.904 173.717 190.9 174.603C190.895 175.489 191.067 176.367 191.405 177.186C191.744 178.005 192.242 178.749 192.872 179.373C193.501 179.997 194.248 180.489 195.07 180.821C195.892 181.152 196.772 181.317 197.658 181.304L208.261 181.304C209.316 184.948 211.3 188.319 214.152 191.171C223.205 200.224 238.085 200.224 247.139 191.171C256.192 182.118 256.192 167.237 247.139 158.184ZM138.752 68.6472C142.712 72.6069 142.712 78.8248 138.752 82.7845C134.793 86.7441 128.575 86.7442 124.615 82.7845C120.655 78.8248 120.655 72.6067 124.615 68.6472C128.575 64.6875 134.793 64.6874 138.752 68.6472ZM237.714 167.609C241.674 171.568 241.674 177.786 237.714 181.746C233.754 185.706 227.536 185.706 223.576 181.746C219.617 177.786 219.617 171.568 223.576 167.609C227.536 163.649 233.754 163.649 237.714 167.609ZM162.315 144.046C144.152 125.884 114.503 125.884 96.3404 144.046C78.1781 162.209 78.1779 191.858 96.3404 210.021C114.503 228.183 144.152 228.183 162.315 210.021C180.477 191.858 180.477 162.209 162.315 144.046ZM152.89 153.471C165.959 166.54 165.959 187.527 152.89 200.596C139.821 213.664 118.834 213.665 105.765 200.596C92.6964 187.527 92.6967 166.54 105.765 153.471C118.834 140.402 139.821 140.402 152.89 153.471ZM75.1344 89.8532C66.081 80.7998 51.2005 80.7998 42.1472 89.8532C33.0939 98.9065 33.0939 113.787 42.1472 122.84C49.582 130.275 60.9193 131.666 69.7592 126.89L79.8468 136.978C80.4624 137.611 81.1978 138.116 82.0101 138.462C82.8225 138.809 83.6956 138.99 84.5787 138.997C85.4619 139.003 86.3375 138.834 87.1547 138.498C87.9718 138.163 88.7142 137.669 89.3387 137.045C89.9632 136.42 90.4574 135.678 90.7925 134.861C91.1276 134.043 91.2969 133.168 91.2907 132.285C91.2845 131.402 91.1028 130.528 90.7562 129.716C90.4096 128.904 89.905 128.168 89.2717 127.553L79.1105 117.392C83.8232 108.566 82.5412 97.26 75.1344 89.8532ZM216.508 231.227C209.101 223.82 197.795 222.538 188.969 227.251L178.808 217.089C178.668 216.935 178.521 216.788 178.366 216.648C177.719 216.057 176.961 215.601 176.137 215.304C175.312 215.006 174.438 214.875 173.562 214.916C172.687 214.956 171.828 215.169 171.035 215.542C170.242 215.915 169.53 216.44 168.941 217.088C168.351 217.736 167.894 218.494 167.597 219.319C167.3 220.143 167.168 221.018 167.21 221.893C167.251 222.768 167.464 223.627 167.837 224.42C168.21 225.213 168.735 225.924 169.383 226.514L179.471 236.602C174.695 245.442 176.086 256.779 183.521 264.214C192.574 273.267 207.455 273.267 216.508 264.214C225.561 255.16 225.561 240.28 216.508 231.227ZM65.7095 99.2781C69.6692 103.238 69.6692 109.456 65.7095 113.415C61.7497 117.375 55.5318 117.375 51.5721 113.415C47.6124 109.456 47.6124 103.238 51.5721 99.2781C55.5318 95.3184 61.7497 95.3183 65.7095 99.2781ZM207.083 240.652C211.043 244.611 211.043 250.829 207.083 254.789C203.123 258.749 196.905 258.749 192.946 254.789C188.986 250.829 188.986 244.611 192.946 240.652C196.905 236.692 203.123 236.692 207.083 240.652Z" fill="white" fill-opacity="0.3"/>
</g>
<path d="M272.547 260.598H297.38V260.785H272.547V260.598Z" fill="#EEEEEE"/>
<path d="M201.882 262.633H208.399V262.821H201.882V262.633Z" fill="#EEEEEE"/>
<path d="M257.407 253.629H271.796V253.816H257.407V253.629Z" fill="#EEEEEE"/>
<path d="M38.4594 254.89H43.2075V255.077H38.4594V254.89Z" fill="#EEEEEE"/>
<path d="M58.6387 258.058H128.872V258.246H58.6387V258.058Z" fill="#EEEEEE"/>
<path d="M226.273 217.81C226.273 219.078 225.245 220.107 223.978 220.107C222.711 220.107 221.683 219.078 221.683 217.81C221.683 216.542 222.711 215.512 223.978 215.512C225.245 215.512 226.273 216.542 226.273 217.81Z" fill="#EEEEEE"/>
<path d="M223.978 220.107C223.052 220.107 222.26 219.555 221.897 218.765C221.763 219.057 221.683 219.379 221.683 219.721C221.683 220.989 222.711 222.018 223.978 222.018C225.245 222.018 226.273 220.989 226.273 219.721C226.273 219.379 226.193 219.057 226.059 218.765C225.697 219.555 224.904 220.107 223.978 220.107Z" fill="#E3E3E2"/>
<path d="M224.236 125.965C223.564 124.876 223.552 122.615 223.697 120.687H225.072L224.236 125.965Z" fill="#E8E8E7"/>
<path d="M218.019 182.662V184.945H221.189C221.97 184.945 222.603 184.311 222.603 183.53V182.662H218.019Z" fill="#E3E3E2"/>
<path d="M292.873 273.503C292.873 278.196 227.79 282 147.505 282C67.2211 282 2.13818 278.196 2.13818 273.503C2.13818 268.811 67.2211 265.006 147.505 265.006C227.79 265.006 292.873 268.811 292.873 273.503Z" fill="#F8F8F9"/>
<path d="M226.985 264.636L226.819 269.489L222.123 269.881L221.911 264.568L226.985 264.636Z" fill="#D04648"/>
<path d="M218.549 269.365C218.466 269.366 218.382 269.38 218.303 269.404C218.196 269.425 218.105 269.494 218.055 269.591C217.963 269.754 217.999 269.831 218.037 269.873C218.298 270.222 219.67 270.195 220.68 270.042C220.018 269.684 219.295 269.455 218.549 269.365ZM219.441 270.402C218.765 270.42 218.063 270.315 217.831 270.03C217.711 269.862 217.709 269.637 217.826 269.468C217.914 269.317 218.056 269.204 218.224 269.156C219.126 268.882 221.051 269.917 221.136 269.964L221.202 270.096L221.101 270.204C220.554 270.319 219.999 270.385 219.441 270.402Z" fill="#4870C0"/>
<path d="M219.694 268.033L219.619 268.029C219.388 268.055 219.376 268.148 219.367 268.181C219.343 268.551 220.224 269.452 220.908 269.834C220.828 269.219 220.56 268.642 220.143 268.184C220.016 268.081 219.856 268.028 219.694 268.033ZM221.081 270.203L221.027 270.199C220.369 269.928 219.031 268.782 219.131 268.166C219.14 268.019 219.247 267.836 219.601 267.79C219.859 267.757 220.12 267.829 220.324 267.992C221.031 268.544 221.215 270.009 221.224 270.077L221.169 270.196L221.081 270.203Z" fill="#4870C0"/>
<path d="M221.636 269.428L227.574 269.272C227.798 269.266 227.996 269.416 228.05 269.635L229.25 274.441C229.359 274.866 229.103 275.3 228.678 275.41L228.511 275.434C226.37 275.453 224.464 275.385 221.799 275.458C218.655 275.542 219.463 275.897 215.767 276.046C213.541 276.134 213.066 273.61 214.008 273.461C218.316 272.804 218.731 271.485 220.358 269.893C220.713 269.587 221.168 269.42 221.636 269.428Z" fill="#1D2A30"/>
<path d="M195.667 261.242L193.96 270.102L189.127 268.482L190.741 260.025L195.667 261.242Z" fill="#D04648"/>
<path d="M185.687 266.033C185.608 266.007 185.525 265.992 185.442 265.99C185.334 265.976 185.226 266.013 185.148 266.089C185.008 266.215 185.018 266.298 185.041 266.351C185.178 266.764 186.488 267.175 187.492 267.352C186.979 266.802 186.367 266.354 185.687 266.033ZM186.203 267.3C185.557 267.102 184.925 266.777 184.796 266.433C184.735 266.236 184.804 266.022 184.97 265.9C185.101 265.784 185.271 265.723 185.446 265.73C186.388 265.758 187.885 267.352 187.951 267.422L187.971 267.57L187.84 267.639C187.286 267.574 186.739 267.461 186.203 267.3Z" fill="#4870C0"/>
<path d="M187.195 265.133L187.127 265.105C186.9 265.057 186.858 265.141 186.839 265.17C186.699 265.513 187.248 266.647 187.776 267.227C187.895 266.618 187.824 265.987 187.574 265.419C187.487 265.282 187.352 265.18 187.195 265.133ZM187.821 267.633L187.772 267.612C187.234 267.145 186.33 265.632 186.62 265.081C186.677 264.944 186.835 264.804 187.185 264.874C187.441 264.924 187.665 265.076 187.806 265.295C188.302 266.044 188.01 267.491 187.998 267.558L187.908 267.653L187.821 267.633Z" fill="#4870C0"/>
<path d="M188.595 267.074L194.273 268.818C194.487 268.884 194.628 269.089 194.61 269.313L194.22 274.251C194.188 274.689 193.807 275.019 193.369 274.987L193.204 274.957C191.168 274.294 189.382 273.623 186.832 272.844C183.824 271.921 184.477 272.516 180.927 271.48C178.788 270.854 179.14 268.312 180.08 268.47C184.374 269.218 185.186 268.1 187.235 267.108C187.668 266.931 188.153 266.919 188.595 267.074Z" fill="#1D2A30"/>
<path d="M194.868 265.467C194.863 265.467 194.858 265.467 194.853 265.467L194.907 265.189L194.916 265.191L194.868 265.467Z" fill="#CECDCC"/>
<path d="M194.648 266.713L194.615 266.704L194.853 265.467C194.858 265.467 194.863 265.467 194.867 265.467L194.648 266.713Z" fill="#C5C4C2"/>
<path d="M194.615 266.704L189.719 265.378L189.72 265.369L189.97 264.064L194.907 265.188L194.853 265.467L194.615 266.704Z" fill="#A4383A"/>
<path d="M226.941 266.386C226.937 266.386 226.929 266.386 226.925 266.385L226.963 265.271L226.941 266.386ZM221.977 266.204C221.972 266.204 221.974 266.204 221.97 266.204L221.967 265.958L221.977 266.204Z" fill="#CECDCC"/>
<path d="M226.925 267.178H226.898L226.925 266.385C226.929 266.386 226.937 266.386 226.941 266.386L226.925 267.178ZM222.015 267.178H221.983L221.97 266.204C221.974 266.204 221.972 266.204 221.977 266.204L222.015 267.178Z" fill="#C5C4C2"/>
<path d="M226.898 267.178H222.015L221.977 266.204L221.967 265.958L221.953 265.021L226.973 264.768L226.963 265.271L226.925 266.385L226.898 267.178Z" fill="#A4383A"/>
<path d="M229.898 165.953L207.244 161.463L203.84 176.269L194.902 215.134L187.427 263.485L195.838 265.401L206.951 217.142L218.215 180.707L230.373 181.536L229.898 165.953Z" fill="#1D2A30"/>
<path d="M187.427 260.833L197.076 262.998L196.039 265.783L186.817 263.439L187.427 260.833Z" fill="#4870C0"/>
<path d="M227.626 216.435L231.059 181.053C231.373 176.833 231.555 172.685 230.86 168.511L230.483 168.416L225.046 167.705L216.78 169.766L215.156 215.878C215.143 216.249 215.152 216.621 215.181 216.992L219.059 265.165L228.452 264.694L227.626 216.435Z" fill="#1D2A30"/>
<path d="M214.628 192.303L214.941 179.257L216.229 185.413L216.162 187.318L214.628 192.303Z" fill="#161C1E"/>
<path d="M216.162 187.318L216.229 185.413L216.439 186.417L216.162 187.318Z" fill="#161C1E"/>
<path d="M208.288 133.551L199.891 144.345C199.891 144.345 199.031 150.851 200.873 157.893C200.873 157.893 203.965 160.147 203.874 161.722C203.781 163.297 204.887 167.007 204.887 167.007L202.415 168.272L199.684 167.755L198.601 163.916L198.105 159.312C198.105 159.312 191.369 145.933 195.113 140.381C198.495 135.368 203.698 129.375 203.698 129.375L208.288 133.551Z" fill="#D04648"/>
<path d="M210.761 128.288C210.761 128.288 210.956 132.631 203.43 140.863L196.277 135.142L199.944 130.764C202.019 128.287 204.986 126.729 208.202 126.427L210.761 128.288Z" fill="#4870C0"/>
<path d="M204.158 140.051C204.786 139.338 205.353 138.658 205.866 138.008C205.865 138.021 205.865 138.034 205.864 138.046C205.089 139.053 204.532 139.658 204.158 140.051Z" fill="#B6B6B4"/>
<path d="M203.614 140.659L202.169 139.454C202.453 138.909 204.278 137.1 206.087 135.47C205.994 136.314 205.921 137.16 205.866 138.008C205.353 138.658 204.786 139.338 204.158 140.051C203.878 140.346 203.701 140.522 203.614 140.659Z" fill="#395EB4"/>
<path d="M202.795 142.58L203.978 140.962L196.372 134.619L195.136 136.013L202.795 142.58Z" fill="#4870C0"/>
<path d="M202.795 142.58L201.876 141.792L197.05 137.654L195.136 136.013L196.372 134.619L203.978 140.962L202.795 142.58Z" fill="#A1BCE6"/>
<path d="M230.002 153.252C230.365 146.901 231.657 128.567 231.657 128.567C231.657 128.567 229.731 127.519 226.292 126.646C224.131 127.784 219.302 130.225 217.67 130.22C216.211 130.215 215.209 127.349 214.724 125.548C212.585 125.652 210.282 125.921 207.83 126.429C206.574 130.945 205.877 135.599 205.766 140.285C205.616 146.674 205.534 156.51 206.014 166.814C206.014 166.814 210.892 170.395 222.364 170.046C226.895 169.907 230.86 168.512 230.86 168.512C230.86 168.512 229.775 157.23 230.002 153.252Z" fill="#4870C0"/>
<path d="M237.755 134.436L242.897 138.912C242.897 138.912 247.368 132.455 250.739 128.204C250.739 128.204 249.909 125.355 251.448 123.609L252.215 120.958L254.632 120.22L257.946 124.525L253.867 129.905C253.867 129.905 246.702 145.412 244.169 145.809C241.635 146.205 234.371 139.539 234.371 139.539L237.755 134.436Z" fill="#D04648"/>
<path d="M228.091 127.441C228.091 127.441 231.536 127.224 240.007 134.479L234.533 141.824L229.18 138.14L225.792 130.57L228.091 127.441Z" fill="#4870C0"/>
<path d="M241.744 135.057L240.088 133.928L234.009 141.748L235.441 142.938L241.744 135.057Z" fill="#4870C0"/>
<path d="M235.441 142.938L234.009 141.748L240.088 133.928L241.744 135.057L240.399 136.738L236.613 141.472L235.441 142.938Z" fill="#A1BCE6"/>
<path d="M232.813 140.641L230.911 139.331L232.813 140.641C232.813 140.641 232.813 140.641 232.813 140.641Z" fill="#B3B2B1"/>
<path d="M232.813 140.641L230.911 139.331C231.021 137.698 231.131 136.119 231.228 134.697C231.791 136.074 232.666 138.506 232.813 140.641Z" fill="#395EB4"/>
<path d="M224.431 126.226C222.829 124.47 224.102 117.384 224.102 117.384L218.668 119.568C218.668 119.568 218.241 124.463 216.893 125.496C216.548 125.761 216.078 125.685 215.597 125.61C215.341 125.57 215.084 125.529 214.839 125.541L216.434 130.135L220.063 130.381L226.593 126.725C225.929 126.55 224.967 126.814 224.431 126.226Z" fill="#D04648"/>
<path d="M218.535 120.687H218.533C218.628 120.024 218.667 119.568 218.667 119.568L220.257 118.93L218.668 119.568C218.668 119.568 218.628 120.024 218.535 120.687Z" fill="#D6D5D3"/>
<path d="M218.099 122.958C218.302 122.157 218.442 121.326 218.533 120.687H218.535C218.445 121.326 218.304 122.157 218.101 122.958C218.101 122.958 218.1 122.958 218.099 122.958Z" fill="#CECDCC"/>
<path d="M223.972 118.208C224.045 117.699 224.101 117.387 224.102 117.384C224.101 117.387 224.045 117.7 223.972 118.208Z" fill="#E8E8E7"/>
<path d="M218.101 122.958C218.304 122.157 218.445 121.326 218.535 120.687C218.628 120.024 218.668 119.568 218.668 119.568L220.257 118.93L224.102 117.384C224.102 117.387 224.045 117.7 223.972 118.208C223.971 118.214 223.97 118.22 223.969 118.227C223.387 119.9 221.885 122.345 218.101 122.958Z" fill="#BA3F41"/>
<path d="M215.49 125.181L218.009 130.323L214.059 132.788L213.726 125.273L215.49 125.181Z" fill="#4870C0"/>
<path d="M214.059 132.788L213.726 125.273L215.49 125.181L217.8 129.897L217.32 130.119L217.661 130.54L214.059 132.788Z" fill="#A1BCE6"/>
<path d="M226.029 126.116L217.32 130.119L220.473 134.009L227.626 126.779L226.029 126.116Z" fill="#4870C0"/>
<path d="M220.473 134.009L217.661 130.54L217.32 130.119L226.029 126.116L227.626 126.779L220.473 134.009Z" fill="#A1BCE6"/>
<path d="M215.245 102.191C214.709 101.059 214.991 99.5959 215.907 98.7441C216.824 97.8924 218.304 97.7213 219.391 98.3404C221.624 96.9004 225.098 96.6355 227.495 97.7814C229.893 98.9265 231.622 101.368 231.909 104.012C233.299 105.289 234.792 106.999 235.243 108.833C235.473 109.762 235.555 110.776 235.162 111.649C234.77 112.522 233.787 113.18 232.861 112.941C232.702 113.664 232.41 114.329 231.956 114.914C231.426 115.598 230.587 115.957 229.786 116.287C227.722 117.14 225.658 117.991 223.594 118.843C223.725 118.849 223.856 118.854 223.987 118.86C220.838 118.881 217.765 116.747 216.089 114.078C214.412 111.41 213.837 108.181 213.787 105.029C213.768 103.878 214.131 102.475 215.245 102.191Z" fill="#1D2A30"/>
<path d="M228.197 110.974C226.404 115.742 225.745 117.79 222.527 119.523C217.684 122.135 212.228 118.881 212.561 113.679C212.868 108.994 215.761 101.962 221.102 101.527C224.918 101.177 228.296 103.989 228.646 107.809C228.744 108.884 228.59 109.968 228.197 110.974Z" fill="#D04648"/>
<path d="M220.072 109.856C219.946 110.249 219.637 110.506 219.382 110.43C219.126 110.355 219.012 109.961 219.131 109.567C219.249 109.172 219.565 108.916 219.821 108.992C220.076 109.068 220.167 109.474 220.072 109.856Z" fill="#1D2A30"/>
<path d="M215.607 108.486C215.48 108.887 215.173 109.137 214.917 109.061C214.661 108.985 214.547 108.592 214.666 108.198C214.784 107.803 215.1 107.546 215.355 107.63C215.61 107.713 215.725 108.092 215.607 108.486Z" fill="#1D2A30"/>
<path d="M216.763 109.628C216.13 110.421 215.392 111.124 214.569 111.717C214.891 112.132 215.377 112.387 215.901 112.417L216.763 109.628Z" fill="#981F24"/>
<path d="M222.143 109.512C222.038 109.499 221.953 109.418 221.936 109.313C221.701 108.548 221.159 107.917 220.438 107.57C220.315 107.513 220.262 107.367 220.318 107.243C220.373 107.123 220.515 107.071 220.635 107.126L220.643 107.13C221.512 107.541 222.16 108.31 222.416 109.237C222.437 109.367 222.348 109.49 222.218 109.511L222.143 109.512Z" fill="#1D2A30"/>
<path d="M214.903 106.013C214.815 105.998 214.741 105.941 214.707 105.859C214.658 105.734 214.717 105.593 214.841 105.541C215.565 105.216 216.404 105.273 217.077 105.693C217.185 105.762 217.216 105.905 217.148 106.013L217.136 106.029C217.061 106.138 216.913 106.165 216.804 106.091L216.801 106.088C216.264 105.779 215.613 105.745 215.047 105.995L214.903 106.013Z" fill="#1D2A30"/>
<path d="M215.532 114.123C215.532 114.123 217.811 114.628 219.46 114.003C219.46 114.003 219.415 116.566 216.192 116.139C216.04 116.119 215.59 116.032 215.59 116.032C215.59 116.032 215.83 115.288 215.532 114.123Z" fill="#1D2A30"/>
<path d="M216.06 114.214L216.078 114.801C216.078 114.801 217.568 115.324 219.286 114.763C219.452 114.348 219.46 114.003 219.46 114.003C218.301 114.443 216.832 114.323 216.06 114.214Z" fill="white"/>
<path d="M218.936 115.353C218.68 115.32 218.4 115.304 218.107 115.313C217.017 115.347 216.137 115.694 216.016 116.111C216.087 116.123 216.15 116.134 216.192 116.139C217.69 116.338 218.496 115.889 218.936 115.353Z" fill="#E12A30"/>
<path d="M228.367 115.118C227.793 115.893 226.937 116.411 225.985 116.559C224.716 116.736 224.246 115.56 224.738 114.441C225.189 113.439 226.388 112.138 227.597 112.451C228.468 112.706 228.967 113.62 228.712 114.491C228.644 114.723 228.526 114.937 228.367 115.118Z" fill="#D04648"/>
<path d="M225.943 100.799C226.984 100.775 227.933 101.513 228.421 102.434C228.91 103.355 230.464 105.757 230.469 106.8C230.483 109.612 230.599 111.061 226.79 113.635C227.321 112.399 227.525 110.79 226.884 109.607C226.211 109.336 225.5 109.387 225.128 108.766C224.754 108.144 224.842 106.506 225.556 106.382C224.294 106.325 223.219 105.183 222.729 104.018C221.648 104.473 220.142 104.013 219.215 103.292C218.496 104.22 217.145 104.487 216.023 104.146C216.747 102.432 218.184 100.637 219.925 99.9807C221.666 99.3249 223.673 99.4157 225.348 100.226L225.943 100.799Z" fill="#1D2A30"/>
<path d="M256.416 117.482C256.416 117.482 257.09 116.57 257.433 117.37C257.613 117.791 254.642 122.598 254.642 122.598L253.402 121.935L256.416 117.482Z" fill="#D04648"/>
<path d="M218.231 261.737L228.791 261.159L228.672 264.68L218.499 264.917L218.231 261.737Z" fill="#4870C0"/>
<path d="M119.603 96.49C120.044 97.5946 120.599 98.6497 121.26 99.638C120.977 100.049 120.486 100.265 119.991 100.196L119.603 96.49Z" fill="#F03E4C"/>
<path d="M119.505 94.7986C119.846 94.7626 120.167 95.161 120.221 95.6803C120.276 96.1996 120.045 96.6559 119.703 96.6919C119.361 96.7272 119.042 96.3362 118.987 95.8101C118.932 95.2841 119.163 94.8346 119.505 94.7986Z" fill="#1D2A30"/>
<path d="M104.181 104.214C105.33 107.96 106.814 114.901 104.396 117.745C104.396 117.745 105.86 121.518 112.971 120.772C120.792 119.952 116.294 116.497 116.294 116.497C111.919 115.92 111.699 112.74 112.135 109.684L104.181 104.214Z" fill="#F47372"/>
<path d="M101.186 95.7043C102.249 102.057 102.567 104.775 106.134 107.716C111.511 112.149 119.076 109.455 119.934 102.946C120.703 97.0453 119.779 88.784 113.235 86.8989C108.584 85.5264 102.783 87.0588 101.412 91.7136C101.032 93.0088 100.954 94.3738 101.186 95.7043Z" fill="#D04648"/>
<path d="M102.183 118.415C101.99 117.643 102.446 116.856 103.212 116.64C106.051 115.863 112.529 114.201 115.886 114.314C118.385 114.404 119.178 115.769 119.407 116.935C119.554 117.721 119.04 118.477 118.257 118.63L118.027 118.654L103.663 119.496C102.978 119.528 102.363 119.079 102.183 118.415Z" fill="#4870C0"/>
<mask id="mask0_5468_544" style="mask-type:luminance" maskUnits="userSpaceOnUse" x="102" y="114" width="18" height="5">
<path d="M102.141 118.149C102.14 118.118 102.139 118.086 102.139 118.055C102.14 117.411 102.566 116.822 103.212 116.64C105.959 115.889 112.111 114.309 115.549 114.309C115.664 114.309 115.777 114.311 115.886 114.315C118.093 114.394 118.969 115.467 119.302 116.52C118.601 116.502 117.891 116.492 117.188 116.492C116.889 116.492 116.589 116.493 116.294 116.498C112.303 116.624 108.327 117.041 104.396 117.745C103.642 117.869 102.891 118.004 102.141 118.149Z" fill="white"/>
</mask>
<g mask="url(#mask0_5468_544)">
<path d="M102.139 118.149H119.302V114.309H102.139V118.149Z" fill="#223263"/>
</g>
<path d="M98.5252 125.162L94.3738 137.189L104.004 150.033L100.233 152.548C100.233 152.548 89.3078 143.781 86.6964 138.728C86.1071 137.588 93.4644 120.786 93.4644 120.786L98.5252 125.162Z" fill="#D04648"/>
<path d="M96.7542 134.244L86.6964 129.174C86.6964 129.174 91.6327 117.726 95.0006 116.492C106.638 113.555 96.7542 134.244 96.7542 134.244Z" fill="#4870C0"/>
<path d="M104.004 150.033L108.831 152.786C108.831 152.786 110.627 157.542 109.681 157.943C108.735 158.343 105.26 159.526 105.26 159.526C105.26 159.526 103.177 156.642 102.246 155.956C101.316 155.27 100.233 152.548 100.233 152.548L104.004 150.033Z" fill="#D04648"/>
<path d="M127.373 117.003C127.373 117.003 125.919 124.28 128.367 156.293L102.81 156.2C102.13 145.462 100.818 141.714 93.4261 120.371C97.0144 119.231 100.681 118.354 104.396 117.746C108.327 117.041 112.303 116.624 116.294 116.498C121.458 116.427 127.373 117.003 127.373 117.003Z" fill="#4870C0"/>
<path d="M135.274 101.53C135.274 101.53 135.293 100.484 135.978 100.902C136.339 101.122 136.677 106.325 136.677 106.325L135.39 106.491L135.274 101.53Z" fill="#D04648"/>
<path d="M130.262 121.621L133.986 127.806C133.986 127.806 135.673 120.31 136.016 113.523C136.016 113.523 135.252 111.726 134.312 109.004L134.52 105.767C134.566 105.048 135.252 104.546 135.95 104.721L139.736 105.669C140.307 105.811 140.679 106.36 140.599 106.943L139.715 113.463C139.715 113.463 141.333 135.454 136.662 136.392C131.689 137.39 125.742 124.782 125.742 124.782L130.262 121.621Z" fill="#D04648"/>
<path d="M127.019 131.802C127.018 131.785 127.018 131.769 127.018 131.753H127.018C127.018 131.769 127.019 131.786 127.019 131.802Z" fill="#CECDCC"/>
<path d="M125.67 133.782C125.045 133.782 124.316 133.169 123.745 131.535L121.733 122.522L127.018 131.753C127.018 131.77 127.018 131.786 127.019 131.802C127.031 132.881 126.426 133.782 125.67 133.782Z" fill="#395EB4"/>
<path d="M131.213 119.563C133.689 124.782 134.425 125.666 134.425 125.666L127.018 131.753C127.018 131.753 118.075 119.247 118.946 115.767C119.48 113.644 125.349 109.216 131.213 119.563Z" fill="#4870C0"/>
<path d="M117.873 90.6179C118.184 92.5 117.962 94.4308 117.235 96.1935C116.034 98.8575 116.251 103.791 118.044 106.075C119.492 107.916 121.981 108.546 123.666 110.183C125.35 111.82 126.348 114.187 125.333 116.539C124.43 118.627 120.389 118.166 119.251 120.106C117.707 122.733 118.435 127.88 114.875 127.921C109.806 128.014 108.599 123.523 105.086 124.337C101.574 125.15 96.228 126.469 94.8305 121.04C93.9638 117.71 96.2925 115.352 96.6283 112.215C96.8735 109.997 95.3523 108.209 95.0231 106.078C94.6745 103.855 95.2308 101.586 96.5669 99.776C97.531 98.4597 98.7981 97.5022 99.3124 95.8806C99.7218 94.5951 99.9812 93.2654 100.37 91.9694C101.185 89.2259 103.039 87.0377 106.061 86.3488C114.448 84.466 117.063 87.2546 117.873 90.6179Z" fill="#1D2A30"/>
<path d="M115.048 97.8783C115.175 99.094 115.649 100.248 116.412 101.203C117.416 102.427 118.396 101.825 118.504 100.385C118.604 99.1195 118.197 96.9433 116.997 96.1981C115.797 95.4537 114.907 96.4045 115.048 97.8783Z" fill="#D04648"/>
<path d="M121.512 88.5701C122.01 89.6515 121.652 91.1403 120.578 91.6528C120.742 93.8838 118.516 95.9647 116.304 95.6488C117.285 95.1595 117.3 93.6947 116.735 92.7544C115.696 91.0247 112.545 89.2703 114.834 87.2149C116.581 85.6473 120.552 86.4937 121.512 88.5701Z" fill="#1D2A30"/>
<path d="M120.442 94.1275C119.809 93.9437 119.124 94.0773 118.607 94.487L118.545 94.5463C118.425 94.6281 118.262 94.5966 118.18 94.4765C118.099 94.3572 118.13 94.1943 118.249 94.1133C118.884 93.582 119.735 93.3906 120.535 93.6L120.685 93.7028C120.768 93.8206 120.74 93.9842 120.622 94.0683L120.442 94.1275Z" fill="#1D2A30"/>
<path d="M102.81 156.2C102.81 156.2 97.9635 163.028 93.5333 186.376C87.689 211.043 73.5908 261.443 73.5908 261.443L83.5692 263.637C83.5692 263.637 104.147 204.974 109.552 187.291C114.496 171.145 122.336 156.2 122.336 156.2H102.81Z" fill="#1D2A30"/>
<path d="M113.167 156.2C113.167 156.2 114.442 197.608 114.019 216.842C112.13 235.315 112.641 257.147 113.097 264.037H122.684C122.684 264.037 129.419 202.23 131.37 184.29C133.253 167.047 128.367 156.292 128.367 156.292L113.167 156.2Z" fill="#1D2A30"/>
<path d="M113.672 175.632C113.663 175.622 113.653 175.613 113.642 175.603C113.651 175.58 113.661 175.556 113.67 175.533C113.671 175.567 113.672 175.598 113.672 175.632Z" fill="#B2B1B0"/>
<path d="M113.642 175.603C113.07 175.041 112.599 174.395 112.312 173.718C111.18 171.05 110.52 166.848 110.52 166.848C110.52 166.848 112.412 170.671 113.245 171.817C113.362 171.978 113.479 172.134 113.595 172.284C113.62 173.337 113.645 174.421 113.67 175.533C113.661 175.556 113.651 175.58 113.642 175.603Z" fill="#161C1E"/>
<path d="M117.734 177.55C116.418 177.55 114.839 176.765 113.672 175.632C113.671 175.597 113.671 175.567 113.67 175.533C113.645 174.421 113.62 173.336 113.595 172.284C116.398 175.914 119.016 176.652 119.548 176.775C119.095 177.316 118.454 177.55 117.734 177.55Z" fill="#161C1E"/>
<path d="M123.137 270.893C122.356 270.988 121.601 271.235 120.914 271.619C121.965 271.763 123.393 271.756 123.658 271.392C123.719 271.34 123.749 271.263 123.658 271.098C123.604 270.997 123.507 270.927 123.393 270.908C123.309 270.896 123.222 270.896 123.137 270.908V270.893ZM120.49 271.846L120.385 271.732L120.445 271.596C120.551 271.551 122.532 270.424 123.469 270.681C123.651 270.718 123.808 270.83 123.9 270.992C124.026 271.166 124.026 271.4 123.9 271.574C123.666 271.907 122.993 272.005 122.237 272.005C121.652 272.002 121.067 271.949 120.49 271.846Z" fill="#4870C0"/>
<path d="M121.927 269.539C121.748 269.541 121.578 269.611 121.451 269.735C121.027 270.228 120.763 270.837 120.695 271.483C121.398 271.059 122.312 270.098 122.252 269.713C122.245 269.682 122.229 269.561 121.988 269.561H121.912L121.927 269.539ZM120.437 271.816L120.377 271.695C120.385 271.627 120.505 270.106 121.262 269.509C121.471 269.331 121.745 269.249 122.018 269.282C122.388 269.32 122.516 269.509 122.516 269.66C122.623 270.318 121.269 271.521 120.581 271.831H120.529L120.437 271.816Z" fill="#4870C0"/>
<path d="M114.874 261.575L120.529 260.827L119.961 271.696H114.307L114.874 261.575Z" fill="#D04648"/>
<path d="M121.292 271.483C125.117 273.844 126.297 273.95 130.727 274.918C131.694 275.13 131.051 277.483 128.731 277.483C124.89 277.483 124.49 277.302 121.217 277.302C118.411 277.302 115.191 277.43 112.962 277.468C112.893 277.469 112.824 277.462 112.758 277.447C112.319 277.342 112.048 276.901 112.153 276.462L113.264 271.43C113.316 271.205 113.516 271.045 113.747 271.044H119.931C120.417 271.061 120.888 271.213 121.292 271.483Z" fill="#1D2A30"/>
<path d="M114.63 265.224L114.707 264.038H114.736L114.669 265.224C114.656 265.224 114.643 265.224 114.63 265.224Z" fill="#CECDCC"/>
<path d="M114.626 266.003H114.579L114.63 265.224C114.643 265.224 114.656 265.224 114.669 265.224L114.626 266.003Z" fill="#C5C4C2"/>
<path d="M114.736 264.037H114.707L114.867 261.584H114.873L114.736 264.037Z" fill="#182124"/>
<path d="M120.328 264.676L120.361 264.037H120.369L120.328 264.676Z" fill="#CECDCC"/>
<path d="M120.369 264.037H120.361L120.489 261.584H120.529L120.369 264.037Z" fill="#182124"/>
<path d="M120.241 266.003H114.626L114.669 265.224L114.736 264.037L114.873 261.584H120.489L120.361 264.037L120.328 264.676L120.241 266.003Z" fill="#A4383A"/>
<path d="M111.684 260.648L112.001 264.197H123.658L124.195 260.217L111.684 260.648Z" fill="#4870C0"/>
<path d="M72.3883 269.13C72.4737 269.909 72.7077 270.664 73.0765 271.354C73.2347 270.303 73.2347 268.873 72.8726 268.607C72.8269 268.547 72.7436 268.517 72.5772 268.607C72.4767 268.662 72.407 268.76 72.3883 268.873C72.3755 268.958 72.3755 269.044 72.3883 269.13ZM73.3112 271.778L73.2047 271.884L73.069 271.816C73.0158 271.718 71.9047 269.728 72.1693 268.79C72.2136 268.613 72.3245 268.461 72.479 268.366C72.6559 268.239 72.8921 268.239 73.069 268.366C73.3937 268.607 73.4844 269.281 73.4844 270.038C73.4769 270.622 73.4192 271.204 73.3112 271.778Z" fill="#4870C0"/>
<path d="M71.0276 270.348C71.0351 270.521 71.1018 270.687 71.2173 270.817C71.7061 271.241 72.3127 271.505 72.9552 271.574C72.5399 270.87 71.5877 269.947 71.2016 270.008C71.1716 270.008 71.0501 270.023 71.0501 270.264V270.348H71.0276ZM73.3031 271.83L73.1824 271.884C73.1216 271.876 71.5944 271.748 71.0126 270.991C70.8327 270.783 70.7502 270.507 70.7854 270.234C70.8237 269.871 71.0126 269.743 71.1641 269.743C71.8066 269.645 73.0159 271.006 73.3181 271.687V271.74L73.3031 271.83Z" fill="#4870C0"/>
<path d="M75.7824 260.908L81.2968 261.326L78.7537 272.171L73.2273 271.778L75.7824 260.908Z" fill="#D04648"/>
<path d="M74.7319 265.377L75.5522 261.874H75.5552L74.7319 265.377Z" fill="#CECDCC"/>
<path d="M75.5552 261.874H75.5522L75.8499 260.605L81.3748 260.986L81.2953 261.326L75.7824 260.907L75.5552 261.874Z" fill="#182124"/>
<path d="M80.2501 265.77L74.7319 265.377L75.5552 261.874L75.7823 260.907L81.2952 261.326L80.2501 265.77Z" fill="#A4383A"/>
<path d="M71.8972 271.052C70.4075 272.815 69.6217 273.723 65.298 275.084C64.345 275.38 65.199 277.665 67.5127 277.46C71.3379 277.12 69.2281 277.128 72.4865 276.84C75.2763 276.59 78.4965 276.439 80.7187 276.28C80.7944 276.277 80.8687 276.265 80.9399 276.241C81.3732 276.104 81.6132 275.639 81.4752 275.205L79.918 270.287C79.8505 270.065 79.6346 269.922 79.4037 269.947L73.2498 270.492C72.7429 270.49 72.2556 270.692 71.8972 271.052Z" fill="#1D2A30"/>
<path d="M72.3959 259.589L72.3434 263.16L84.3401 264.446L85.3237 260.549L72.3959 259.589Z" fill="#4870C0"/>
<path d="M0.244491 272.239L0.40501 272.369C0.267357 272.346 0.137653 272.33 0 272.308L0.244491 272.239Z" fill="#4870C0"/>
<path d="M47.7824 272.308C47.7824 272.308 47.6444 272.331 47.3843 272.361L47.538 272.239L47.7824 272.308Z" fill="#4870C0"/>
<path d="M161.433 102.703L150.853 99.1074L149.219 94.262L165.678 99.8563L161.433 102.703Z" fill="#4870C0"/>
<path d="M161.433 102.703L151.07 99.1809L150.883 99.1179L150.853 99.1074L149.219 94.262L165.678 99.8563L161.433 102.703Z" fill="#A1BCE6"/>
<path d="M195.946 59.5202C193.599 66.3587 188.512 71.5036 182.336 74.118C178.084 75.9115 174.705 79.2793 173.219 83.6595L172.622 85.4185L152.429 78.5552L153.026 76.7962C154.508 72.4281 153.88 67.6855 151.606 63.6865C148.279 57.828 147.37 50.6196 149.71 43.7255C154.188 30.5265 168.805 23.658 181.901 28.8726C193.873 33.64 200.115 47.3088 195.946 59.5202Z" fill="#4870C0"/>
<path d="M172.622 85.4185L152.429 78.5552L153.025 76.7962C153.567 75.2001 153.827 73.5552 153.828 71.914C153.83 69.0624 153.05 66.2244 151.606 63.6865C151.42 63.3578 151.241 63.0261 151.07 62.6892C151.006 62.5646 150.944 62.4386 150.883 62.3132C149.277 59.0174 148.406 55.3592 148.404 51.6071C148.403 48.9957 148.823 46.3377 149.709 43.7255C153.166 33.5387 162.662 27.1226 172.837 27.1226C175.845 27.1226 178.913 27.6832 181.901 28.8726C191.359 32.6397 197.241 41.9621 197.238 51.7317C197.237 54.3281 196.821 56.9561 195.945 59.5202C193.599 66.3587 188.512 71.5036 182.336 74.118C178.084 75.9115 174.705 79.2793 173.218 83.6595L172.622 85.4185ZM169.579 45.4815C163.12 45.4815 157.088 49.551 154.892 56.0113C152.129 64.1315 156.467 72.9549 164.58 75.7194C166.237 76.2837 167.924 76.5523 169.582 76.5523C176.041 76.5523 182.072 72.4828 184.27 66.0218C187.032 57.9023 182.694 49.079 174.581 46.3145C172.924 45.7501 171.238 45.4815 169.579 45.4815ZM173.059 30.0358C166.872 30.0358 157.978 33.709 153.709 40.5978C153.039 41.6807 152.387 42.8213 152.244 44.0872L152.24 44.1255C152.135 45.1498 152.97 45.8289 153.834 45.8289C154.287 45.8289 154.748 45.6428 155.084 45.2218C158.175 41.3632 163.051 38.9394 168.003 38.9394C168.113 38.9394 168.222 38.9401 168.332 38.9431C169.911 38.9769 171.579 39.2163 173.172 39.2163C175.485 39.217 177.64 38.712 179.138 36.34C179.593 35.6196 179.683 34.7596 179.664 33.9071V33.8561C179.341 31.2792 176.657 30.0358 173.059 30.0358ZM184.982 33.9019C183.925 33.9019 182.804 34.551 181.847 36.0743C181.139 37.2022 180.951 38.7225 181.635 39.8654C182.181 40.7764 183.174 41.3212 184.168 41.6927C184.762 41.914 185.414 42.0859 186.043 42.0859C186.502 42.0859 186.949 41.9943 187.352 41.764C188.506 41.1051 188.832 39.5592 188.655 38.2408C188.312 35.6939 186.737 33.9019 184.982 33.9019Z" fill="#A1BCE6"/>
<path d="M169.582 76.5522C167.924 76.5522 166.238 76.2836 164.58 75.7193C156.467 72.9548 152.129 64.1314 154.892 56.0112C157.089 49.5509 163.12 45.4814 169.579 45.4814C171.238 45.4814 172.924 45.7501 174.582 46.3144C182.695 49.0789 187.032 57.9023 184.27 66.0217C182.072 72.4828 176.041 76.5522 169.582 76.5522Z" fill="#C8D9F2"/>
<path d="M159.297 80.957L161.849 60.7852C161.891 60.4558 162.192 60.2224 162.521 60.2644C162.85 60.3064 163.083 60.6074 163.041 60.9368L160.489 81.1094L159.297 80.957Z" fill="#4870C0"/>
<path d="M165.831 83.2061L164.793 82.6005L175.042 65.0438C175.209 64.7572 175.576 64.6604 175.863 64.8277C176.15 64.995 176.247 65.3635 176.08 65.6509L165.831 83.2061Z" fill="#4870C0"/>
<path d="M168.613 71.7727L167.732 66.8568L164.037 70.2164L161.425 63.8176L162.538 63.3636L164.5 68.1715L168.53 64.5042L169.492 69.8667L173.973 67.25L174.579 68.2893L168.613 71.7727Z" fill="#4870C0"/>
<path d="M173.302 88.91C172.818 90.3283 171.282 91.0832 169.869 90.6059L167.259 89.7242C167.061 89.7085 166.852 89.6664 166.652 89.5981L151.574 84.5013C150.156 84.0218 149.395 82.4827 149.874 81.063C150.352 79.6672 151.848 78.91 153.25 79.349L153.308 79.3678L155.917 80.2495C156.099 80.2653 156.286 80.3005 156.467 80.3576L156.525 80.3756L171.603 85.4724C173.021 85.9519 173.782 87.491 173.302 88.91Z" fill="#4870C0"/>
<path d="M170.732 93.5434C170.25 94.9617 168.797 95.7436 167.484 95.2971L165.058 94.4731C164.872 94.4611 164.678 94.4244 164.492 94.3598L150.479 89.597C149.161 89.1482 148.48 87.6339 148.957 86.2141C149.431 84.8168 150.847 84.0349 152.15 84.4431L152.205 84.4604L154.629 85.2843C154.8 85.2963 154.973 85.3279 155.142 85.3804L155.196 85.3976L169.21 90.1613C170.528 90.6085 171.208 92.1236 170.732 93.5434Z" fill="#4870C0"/>
<path d="M168.162 98.1761C167.682 99.5951 166.312 100.403 165.099 99.9876L162.858 99.2214C162.685 99.2139 162.504 99.1809 162.332 99.1209L149.383 94.6912C148.165 94.2747 147.564 92.7851 148.038 91.3646C148.511 89.9658 149.845 89.1591 151.051 89.5366L151.1 89.5523L153.342 90.3185C153.5 90.3268 153.661 90.3545 153.817 90.4033L153.867 90.4191L166.816 94.8488C168.034 95.2652 168.636 96.7548 168.162 98.1761Z" fill="#4870C0"/>
<path d="M148.183 95.8234L148.648 94.4254L165.966 100.273L165.501 101.671L148.183 95.8234Z" fill="#4870C0"/>
<path d="M152.193 79.253L152.658 77.855L172.894 84.6139L172.428 86.0127L152.193 79.253Z" fill="#4870C0"/>
<path d="M153.835 45.8291C152.97 45.8291 152.135 45.15 152.241 44.1257L152.245 44.0874C152.387 42.8215 153.039 41.6808 153.71 40.598C157.978 33.7092 166.872 30.0359 173.059 30.0359C176.658 30.0359 179.341 31.2794 179.664 33.8563V33.9073C179.684 34.7598 179.594 35.6197 179.139 36.3401C177.641 38.7122 175.485 39.2172 173.172 39.2165C171.58 39.2165 169.912 38.9771 168.333 38.9433C168.222 38.9403 168.114 38.9396 168.003 38.9396C163.051 38.9396 158.175 41.3634 155.085 45.222C154.748 45.643 154.288 45.8291 153.835 45.8291Z" fill="#C8D9F2"/>
<path d="M186.043 42.0859C185.415 42.0859 184.762 41.9141 184.169 41.6927C183.174 41.3213 182.181 40.7765 181.635 39.8655C180.951 38.7226 181.139 37.2023 181.847 36.0744C182.804 34.5511 183.926 33.902 184.982 33.902C186.737 33.902 188.312 35.6939 188.655 38.2408C188.832 39.5593 188.506 41.1052 187.352 41.764C186.949 41.9944 186.502 42.0859 186.043 42.0859Z" fill="#C8D9F2"/>
<path d="M151.725 9.32789C154.572 13.3066 157.418 17.2845 160.265 21.2632Z" fill="white"/>
<path d="M151.268 9.656C154.115 13.6347 156.961 17.6126 159.808 21.5913L160.722 20.9354C157.875 16.9575 155.029 12.9788 152.182 9.00014L151.268 9.656Z" fill="#4870C0"/>
<path d="M120.205 27.7296C126.92 30.9429 133.636 34.1554 140.351 37.3687Z" fill="white"/>
<path d="M119.963 28.2377C126.678 31.4502 133.394 34.6635 140.109 37.876L140.594 36.8607C133.879 33.6474 127.163 30.4349 120.448 27.2216L119.963 28.2377Z" fill="#4870C0"/>
<path d="M122.469 63.6648C127.49 63.8321 132.51 63.9987 137.531 64.1653Z" fill="white"/>
<path d="M122.45 64.2275C127.471 64.3941 132.492 64.5614 137.513 64.728L137.55 63.6032C132.529 63.4358 127.509 63.2692 122.488 63.1026L122.45 64.2275Z" fill="#4870C0"/>
<path d="M213.638 30.4249C208.957 31.8387 204.277 33.2518 199.597 34.6655Z" fill="white"/>
<path d="M213.475 29.8862C208.795 31.3 204.115 32.713 199.434 34.1268L199.759 35.2043C204.439 33.7906 209.12 32.3775 213.801 30.9638L213.475 29.8862Z" fill="#4870C0"/>
<path d="M227.392 64.2537C220.113 62.6981 212.834 61.1425 205.555 59.5861Z" fill="white"/>
<path d="M227.51 63.7039C220.231 62.1475 212.951 60.5919 205.672 59.0363L205.437 60.1371C212.717 61.6927 219.996 63.2484 227.275 64.804L227.51 63.7039Z" fill="#4870C0"/>
<path d="M203.691 91.3416C199.612 88.4074 195.532 85.4733 191.453 82.5392Z" fill="white"/>
<path d="M204.02 90.8846C199.94 87.9505 195.861 85.0163 191.781 82.0822L191.125 82.9962C195.204 85.9304 199.283 88.8645 203.364 91.7986L204.02 90.8846Z" fill="#4870C0"/>
<defs>
<filter id="filter0_d_5468_544" x="25.3572" y="42.4324" width="238.572" height="238.572" filterUnits="userSpaceOnUse" color-interpolation-filters="sRGB">
<feFlood flood-opacity="0" result="BackgroundImageFix"/>
<feColorMatrix in="SourceAlpha" type="matrix" values="0 0 0 0 0 0 0 0 0 0 0 0 0 0 0 0 0 0 127 0" result="hardAlpha"/>
<feOffset/>
<feGaussianBlur stdDeviation="5"/>
<feComposite in2="hardAlpha" operator="out"/>
<feColorMatrix type="matrix" values="0 0 0 0 0.0196078 0 0 0 0 0.658824 0 0 0 0 0.878431 0 0 0 0.1 0"/>
<feBlend mode="normal" in2="BackgroundImageFix" result="effect1_dropShadow_5468_544"/>
<feBlend mode="normal" in="SourceGraphic" in2="effect1_dropShadow_5468_544" result="shape"/>
</filter>
</defs>
</svg>
